<?xml version="1.0" standalone="no"?>
<!DOCTYPE svg PUBLIC "-//W3C//DTD SVG 20010904//EN"
 "http://www.w3.org/TR/2001/REC-SVG-20010904/DTD/svg10.dtd">
<svg version="1.0" xmlns="http://www.w3.org/2000/svg"
 width="98.000000pt" height="98.000000pt" viewBox="0 0 98.000000 98.000000"
 preserveAspectRatio="xMidYMid meet">
<metadata>
Created by potrace 1.11, written by Peter Selinger 2001-2013
</metadata>
<g transform="translate(0.000000,98.000000) scale(0.100000,-0.100000)"
fill="#000000" stroke="none">
<path d="M462 957 c-12 -7 -19 -17 -15 -22 4 -4 2 -5 -4 -1 -15 9 -86 -37 -75
-49 4 -5 2 -5 -5 -1 -12 6 -61 -18 -74 -37 -3 -5 -9 -8 -13 -8 -15 3 -66 -31
-61 -39 3 -6 0 -7 -8 -4 -8 3 -25 -5 -37 -18 -13 -13 -20 -18 -16 -11 6 11
-128 -67 -143 -83 -3 -4 1 -3 9 1 13 8 13 6 2 -7 -15 -18 0 -34 20 -22 7 4 8
3 4 -5 -4 -6 0 -14 9 -17 13 -5 10 -10 -14 -25 -31 -18 -41 -39 -20 -39 5 0 8
-4 5 -9 -3 -5 1 -12 10 -15 22 -9 26 -8 18 6 -4 7 -3 8 4 4 15 -9 -3 -46 -22
-46 -8 0 -17 -7 -20 -16 -8 -22 -8 -26 4 -19 5 3 10 -2 10 -12 0 -15 2 -16 10
-3 6 9 10 10 10 3 0 -6 3 -18 6 -26 4 -10 -4 -21 -23 -31 -15 -8 -22 -15 -14
-16 11 0 11 -3 0 -17 -10 -11 -10 -14 -1 -9 7 4 12 2 12 -4 0 -7 9 -9 23 -6
12 3 16 3 9 0 -6 -3 -10 -9 -7 -14 3 -5 -4 -12 -16 -15 -12 -4 -18 -13 -15
-20 3 -8 0 -15 -7 -18 -15 -5 84 -63 102 -59 8 2 10 -1 5 -9 -5 -9 -2 -10 9
-6 10 4 16 2 14 -6 -1 -7 4 -11 11 -9 6 1 12 -2 12 -8 0 -10 80 -55 92 -52 5
1 8 -2 8 -7 0 -14 33 -23 40 -11 5 8 9 6 13 -5 5 -11 3 -14 -6 -9 -9 5 -9 4 0
-6 7 -7 28 -14 47 -14 19 -1 32 -4 29 -9 -2 -4 -9 -5 -14 -2 -5 4 -9 2 -9 -2
0 -5 9 -14 21 -21 17 -11 20 -11 14 0 -4 8 -1 7 7 -2 17 -19 62 -45 53 -31 -3
6 -1 11 4 11 6 0 11 -7 11 -15 0 -19 29 -20 36 0 4 8 10 13 14 10 12 -8 60 16
54 26 -5 9 10 13 30 10 5 -1 6 5 3 14 -4 8 -2 15 3 15 6 0 10 -6 10 -12 0 -7
10 -2 23 12 12 14 18 20 13 13 -6 -10 -5 -12 7 -7 8 3 18 12 21 19 3 8 15 19
27 25 17 10 20 9 13 -1 -4 -7 6 -3 23 9 17 12 36 22 42 22 6 0 15 9 21 21 7
12 18 18 26 15 9 -3 14 1 14 12 0 13 2 14 9 3 5 -7 10 -9 12 -5 2 5 18 17 34
26 17 10 29 22 28 27 -1 5 5 8 14 7 25 -2 23 31 -3 45 -13 7 -24 17 -24 22 0
6 3 8 6 4 3 -3 14 3 25 14 20 20 15 53 -8 45 -8 -3 -11 -1 -8 4 3 6 2 10 -3
10 -6 0 -13 7 -16 16 -3 8 -2 12 4 9 6 -3 10 -1 10 5 0 6 5 8 12 4 7 -5 9 -2
5 9 -4 10 -2 14 7 11 7 -3 13 2 13 12 0 9 -8 19 -18 21 -28 8 -30 30 -3 47 32
22 31 31 -13 61 -21 14 -33 25 -28 26 80 6 81 38 4 84 -32 20 -64 33 -70 29
-7 -4 -9 -3 -5 4 3 6 -7 16 -24 24 -16 7 -30 16 -30 19 0 4 -8 9 -17 12 -10 3
-39 19 -65 34 -114 69 -141 82 -152 76 -6 -3 -8 -2 -3 2 7 9 -40 45 -58 45 -5
-1 -20 -6 -33 -13z"/>
</g>
</svg>
