<svg xmlns="http://www.w3.org/2000/svg" viewBox="0 0 96.46 122.01"><defs><style>.cls-1{fill:#fff;}</style></defs><title>Asset 35</title><g id="Layer_2" data-name="Layer 2"><g id="Economics_main" data-name="Economics main"><path class="cls-1" d="M25.36,65.06h2.49V73.8a2,2,0,0,0,1.95,2h7.84a1.94,1.94,0,0,0,1.94-2V65.06h3.9V73.8a1.94,1.94,0,0,0,1.94,2h7.84a2,2,0,0,0,2-2V65.06H57.7a1.95,1.95,0,1,0,0-3.89H56.53V33.94h5.33l17,9.69a13,13,0,0,1,5.82,10.06V66.86a2,2,0,0,0,3.9,0V53.69a16.91,16.91,0,0,0-7.78-13.44L63.34,30.3a2,2,0,0,0-1-.25H56.53v-10a2,2,0,0,0-1.94-1.95H51.31V2a2,2,0,0,0-2-1.95H33.7a2,2,0,0,0-2,2V18.14H28.47a2,2,0,0,0-1.95,1.95V61.17H25.36a1.95,1.95,0,1,0,0,3.89Zm10.33,6.79H31.74V65.06h3.95Zm15.63,0h-4V65.06h4Zm-15.68-68H47.41V18.14H35.64ZM30.42,22H52.64V61.17H30.42Z"/><path class="cls-1" d="M86.62,72.7a9.84,9.84,0,0,0-2,19.48v25.93H4.9L9.67,107a10.86,10.86,0,0,1,9.07-6h60a2,2,0,0,0,0-3.9H72.89V54.92a2,2,0,0,0-1-1.7l-8.57-4.85a1.94,1.94,0,1,0-1.92,3.38L69,56.05V80.59H25.36a2,2,0,0,0-1.95,2v7.78a2,2,0,0,0,1.95,2H63.15a1.95,1.95,0,1,0,0-3.89H27.31v-3.9H69V97.11H18.74A14.69,14.69,0,0,0,6.1,105.45L.16,119.29A1.95,1.95,0,0,0,2,122H86.62a2,2,0,0,0,1.95-2V92.18A9.84,9.84,0,0,0,86.62,72.7Zm0,15.78a5.95,5.95,0,1,1,5.94-5.94A6,6,0,0,1,86.62,88.48Z"/></g></g></svg>