<svg xmlns="http://www.w3.org/2000/svg" viewBox="0 0 98.48 120.05"><defs><style>.cls-1{fill:#fff;}</style></defs><title>Asset 32</title><g id="Layer_2" data-name="Layer 2"><g id="Economics_main" data-name="Economics main"><path class="cls-1" d="M96.53,105c-.38-.92-.78-1.88-1.1-2.81-2.28-6.54-1.53-15.65-.73-25.3.45-5.47.91-11.13.91-16.9s-.46-11.43-.91-16.91c-.8-9.65-1.55-18.76.73-25.3.32-.93.72-1.88,1.1-2.8,1.69-4.11,3.8-9.22-1-13A8.07,8.07,0,0,0,90.39.34,24.2,24.2,0,0,0,83.2,1.89l-1.93.61A12.71,12.71,0,0,1,77.6,3a57.48,57.48,0,0,1-8.83-1.07A111.52,111.52,0,0,0,49.24,0,111.52,111.52,0,0,0,29.71,1.91,57.48,57.48,0,0,1,20.88,3a12.8,12.8,0,0,1-3.67-.48l-1.93-.61A24.2,24.2,0,0,0,8.09.34,8.07,8.07,0,0,0,3,2C-1.85,5.8.26,10.91,2,15c.39.92.78,1.87,1.1,2.8,2.28,6.54,1.53,15.65.73,25.3C3.33,48.6,2.87,54.26,2.87,60s.46,11.43.91,16.9c.8,9.65,1.55,18.77-.73,25.3-.32.93-.72,1.89-1.1,2.81-1.69,4.11-3.8,9.22,1,13a8.14,8.14,0,0,0,5.14,1.68,23.92,23.92,0,0,0,7.18-1.56l1.93-.61a12.82,12.82,0,0,1,3.67-.47,57.33,57.33,0,0,1,8.83,1.06,111.52,111.52,0,0,0,19.53,1.91,111.52,111.52,0,0,0,19.53-1.91,57.33,57.33,0,0,1,8.83-1.06,12.72,12.72,0,0,1,3.67.47l1.93.61a23.91,23.91,0,0,0,7.19,1.56A8.13,8.13,0,0,0,95.52,118C100.33,114.26,98.22,109.15,96.53,105ZM90,43.51c.45,5.38.9,10.94.9,16.52s-.45,11.14-.9,16.52c-.17,2-.33,4.07-.47,6.06H82.13a2.35,2.35,0,1,0,0,4.69h7.16c-.23,6.08,0,11.71,1.71,16.48.37,1,.79,2.07,1.19,3,1.9,4.6,2.19,6.14.43,7.52a3.45,3.45,0,0,1-2.23.68,20.7,20.7,0,0,1-5.74-1.33c-.67-.21-1.36-.44-2-.64a17.45,17.45,0,0,0-5-.67A59.82,59.82,0,0,0,68,113.52a107.65,107.65,0,0,1-18.75,1.84,107.65,107.65,0,0,1-18.75-1.84,59.82,59.82,0,0,0-9.61-1.13,17.45,17.45,0,0,0-5,.67c-.68.2-1.37.43-2,.64A20.64,20.64,0,0,1,8.1,115a3.46,3.46,0,0,1-2.24-.68c-1.76-1.38-1.47-2.92.43-7.52.4-1,.82-2,1.19-3,2.61-7.48,1.82-17.08,1-27.23-.45-5.38-.9-11-.9-16.52s.45-11.14.9-16.52q.25-3.07.47-6.06h7.42a2.35,2.35,0,1,0,0-4.69H9.19c.23-6.09,0-11.72-1.71-16.48-.37-1.06-.79-2.07-1.19-3.06C4.39,8.63,4.1,7.08,5.86,5.7A3.45,3.45,0,0,1,8.09,5a20.65,20.65,0,0,1,5.74,1.32l2,.65a17.45,17.45,0,0,0,5,.67,61,61,0,0,0,9.61-1.13A106.55,106.55,0,0,1,49.24,4.69,106.55,106.55,0,0,1,68,6.54,61,61,0,0,0,77.6,7.67a17.4,17.4,0,0,0,5-.67l2-.65A20.73,20.73,0,0,1,90.39,5a3.45,3.45,0,0,1,2.23.67c1.76,1.38,1.47,2.93-.43,7.53-.4,1-.82,2-1.19,3.05C88.39,23.75,89.18,33.35,90,43.51Z"/><path class="cls-1" d="M65.94,50.84c.82-2.54,1.17-5.91,1.17-10.83a2.35,2.35,0,0,0-3.52-2c-2,1.14-3.73,2.07-5.28,2.88l-1.62.86a10.64,10.64,0,0,0,.07-1.26,12.75,12.75,0,0,0-5.17-10.23V29.09a2.35,2.35,0,1,0-4.69,0v1.14a12.74,12.74,0,0,0-5.18,10.23,10.64,10.64,0,0,0,.07,1.26l-1.62-.86c-1.55-.81-3.3-1.74-5.28-2.88a2.35,2.35,0,0,0-3.52,2c0,4.92.35,8.29,1.17,10.83a2.35,2.35,0,0,0-1.17,2c0,4.92.35,8.28,1.17,10.83a2.35,2.35,0,0,0-1.17,2c0,7.06.71,10.92,2.52,13.75s4.83,4.51,8.9,6.65c1.23.65,2.6,1.37,4.11,2.22v9.42a2.35,2.35,0,0,0,4.69,0V88.34c1.5-.85,2.87-1.57,4.1-2.22,4.07-2.14,7-3.69,8.9-6.65s2.52-6.69,2.52-13.75a2.35,2.35,0,0,0-1.17-2c.82-2.55,1.17-5.91,1.17-10.83A2.35,2.35,0,0,0,65.94,50.84ZM60.5,45l1.84-1c-.39,7.77-2.28,8.77-8.84,12.22l-1.83,1C52.05,49.46,53.94,48.47,60.5,45Zm1.84,11.88c-.39,7.78-2.28,8.77-8.84,12.23l-1.83,1c.38-7.77,2.27-8.77,8.83-12.22ZM45,82c-6.56-3.46-8.45-4.45-8.83-12.23l1.83,1c6.56,3.46,8.45,4.45,8.83,12.23C46.17,82.6,45.56,82.28,45,82Zm0-12.86c-6.56-3.46-8.45-4.45-8.83-12.23l1.83,1c6.56,3.45,8.45,4.45,8.83,12.22Zm0-12.86c-6.56-3.45-8.45-4.45-8.83-12.22L38,45c6.56,3.46,8.45,4.45,8.83,12.23Zm4.26-9.7a8,8,0,0,1,0-12.21,8,8,0,0,1,0,12.21ZM53.5,82c-.58.3-1.19.62-1.83,1,.38-7.78,2.27-8.77,8.83-12.23l1.84-1C62,77.53,60.06,78.52,53.5,82Z"/></g></g></svg>