<svg xmlns="http://www.w3.org/2000/svg" viewBox="0 0 147.82 147.82"><defs><style>.cls-1{fill:#fff;}</style></defs><title>Asset 33</title><g id="Layer_2" data-name="Layer 2"><g id="Economics_main" data-name="Economics main"><path class="cls-1" d="M75.87,91.58a2.34,2.34,0,0,0-3.11-1.11,37.49,37.49,0,0,1-5.91,2.21,2.34,2.34,0,0,0-1.65,1.79l-2.47,12.34a2.64,2.64,0,0,1-2.57,2.11H53.43a2.62,2.62,0,0,1-2.57-2.11L48.39,94.47a2.33,2.33,0,0,0-1.66-1.79,37,37,0,0,1-8.2-3.4,2.35,2.35,0,0,0-2.44.09l-10.47,7a2.62,2.62,0,0,1-3.3-.33l-4.77-4.76a2.62,2.62,0,0,1-.32-3.3l7-10.48a2.33,2.33,0,0,0,.09-2.44,36.74,36.74,0,0,1-3.39-8.2,2.36,2.36,0,0,0-1.79-1.66L6.77,62.73a2.63,2.63,0,0,1-2.1-2.57V53.42a2.61,2.61,0,0,1,2.1-2.56l12.35-2.47a2.33,2.33,0,0,0,1.79-1.66,36.74,36.74,0,0,1,3.39-8.2,2.33,2.33,0,0,0-.09-2.44l-7-10.47a2.62,2.62,0,0,1,.32-3.3l4.77-4.77a2.62,2.62,0,0,1,3.3-.32l10.47,7a2.33,2.33,0,0,0,2.44.09,36.94,36.94,0,0,1,8.2-3.39,2.33,2.33,0,0,0,1.66-1.79L50.86,6.77a2.62,2.62,0,0,1,2.57-2.1h6.73a2.63,2.63,0,0,1,2.57,2.1L65.2,19.12a2.33,2.33,0,0,0,1.66,1.79,36.86,36.86,0,0,1,8.19,3.39,2.33,2.33,0,0,0,2.44-.09l10.48-7a2.62,2.62,0,0,1,3.3.32L96,22.32a2.62,2.62,0,0,1,.33,3.3l-7,10.47a2.33,2.33,0,0,0-.1,2.44,37,37,0,0,1,3.4,8.2,2.33,2.33,0,0,0,1.79,1.66l12.35,2.47a2.63,2.63,0,0,1,2.1,2.57v6.73a2.64,2.64,0,0,1-2.1,2.57L94.47,65.2a2.33,2.33,0,0,0-1.79,1.66,37.24,37.24,0,0,1-2.27,6,2.33,2.33,0,1,0,4.2,2,42.14,42.14,0,0,0,2.15-5.42l11-2.2a7.31,7.31,0,0,0,5.86-7.14V53.42a7.31,7.31,0,0,0-5.86-7.14l-11-2.19A42,42,0,0,0,94,37.51l6.2-9.3a7.31,7.31,0,0,0-.91-9.2l-4.76-4.76a7.31,7.31,0,0,0-9.19-.91l-9.31,6.21a41.38,41.38,0,0,0-6.57-2.73l-2.2-11A7.29,7.29,0,0,0,60.16,0H53.43a7.3,7.3,0,0,0-7.15,5.86l-2.19,11a42,42,0,0,0-6.58,2.73l-9.3-6.21a7.31,7.31,0,0,0-9.19.91L14.25,19a7.31,7.31,0,0,0-.91,9.19l6.21,9.31a41.54,41.54,0,0,0-2.73,6.57l-11,2.19A7.31,7.31,0,0,0,0,53.43v6.73A7.29,7.29,0,0,0,5.86,67.3l11,2.2a42.34,42.34,0,0,0,2.73,6.57l-6.21,9.31a7.31,7.31,0,0,0,.91,9.19L19,99.33a7.3,7.3,0,0,0,9.19.91L37.52,94a41.5,41.5,0,0,0,6.57,2.72l2.19,11a7.32,7.32,0,0,0,7.15,5.86h6.73a7.3,7.3,0,0,0,7.14-5.86l2.2-11a41,41,0,0,0,5.26-2.07A2.34,2.34,0,0,0,75.87,91.58Z"/><path class="cls-1" d="M77,69.76a2.24,2.24,0,0,0,1.06.26,2.32,2.32,0,0,0,2.08-1.27A26.24,26.24,0,0,0,56.79,30.56,26.07,26.07,0,0,0,38.48,38a2.33,2.33,0,1,0,3.26,3.34A21.57,21.57,0,0,1,76,66.62,2.33,2.33,0,0,0,77,69.76Z"/><path class="cls-1" d="M35,46.81a2.34,2.34,0,0,0-3,1.44A26.25,26.25,0,0,0,72.17,78.06a2.34,2.34,0,0,0-2.74-3.79,21.36,21.36,0,0,1-12.64,4.09,21.61,21.61,0,0,1-20.4-28.59A2.33,2.33,0,0,0,35,46.81Z"/><path class="cls-1" d="M143.33,102l-6.75-1.35a29.18,29.18,0,0,0-1.48-3.57l3.81-5.72a5.61,5.61,0,0,0-.69-7.06l-3.13-3.12a5.6,5.6,0,0,0-7.05-.7l-5.73,3.82a27.11,27.11,0,0,0-3.57-1.48l-1.35-6.75a5.6,5.6,0,0,0-5.48-4.49h-4.43A5.6,5.6,0,0,0,102,76.07l-1.35,6.75a27.69,27.69,0,0,0-3.57,1.48l-5.73-3.82a5.6,5.6,0,0,0-7,.7L81.18,84.3a5.6,5.6,0,0,0-.7,7.06l3.82,5.72a28.39,28.39,0,0,0-1.91,5,2.33,2.33,0,1,0,4.49,1.26A23.77,23.77,0,0,1,89,98.09,2.33,2.33,0,0,0,89,95.65l-4.59-6.88a.92.92,0,0,1,.12-1.16l3.13-3.13a.92.92,0,0,1,1.16-.12L95.65,89a2.33,2.33,0,0,0,2.44.09,23.77,23.77,0,0,1,5.21-2.16A2.3,2.3,0,0,0,105,85.09L106.58,77a.93.93,0,0,1,.9-.74h4.43a.92.92,0,0,1,.9.74l1.62,8.11a2.33,2.33,0,0,0,1.66,1.79A23.77,23.77,0,0,1,121.3,89a2.33,2.33,0,0,0,2.44-.09l6.89-4.59a.92.92,0,0,1,1.16.12l3.13,3.13a.93.93,0,0,1,.11,1.16l-4.59,6.88a2.33,2.33,0,0,0-.09,2.44,23.77,23.77,0,0,1,2.16,5.21A2.32,2.32,0,0,0,134.3,105l8.11,1.62a.93.93,0,0,1,.74.9v4.43a.91.91,0,0,1-.74.9l-8.11,1.62a2.35,2.35,0,0,0-1.79,1.66,23.77,23.77,0,0,1-2.16,5.21,2.33,2.33,0,0,0,.09,2.44l4.59,6.89a.94.94,0,0,1-.11,1.16l-3.13,3.13a.92.92,0,0,1-1.16.11l-6.89-4.59a2.33,2.33,0,0,0-2.44-.09,23.77,23.77,0,0,1-5.21,2.16,2.35,2.35,0,0,0-1.66,1.79l-1.62,8.11a.92.92,0,0,1-.9.74h-4.43a.93.93,0,0,1-.9-.74L105,134.3a2.33,2.33,0,0,0-1.66-1.79,23.77,23.77,0,0,1-5.21-2.16,2.33,2.33,0,0,0-2.44.09L88.77,135a.93.93,0,0,1-1.16-.11l-3.13-3.13a.92.92,0,0,1-.12-1.16L89,123.74A2.33,2.33,0,0,0,89,121.3a23.77,23.77,0,0,1-2.16-5.21,2.32,2.32,0,0,0-1.79-1.66L77,112.81a.91.91,0,0,1-.74-.9v-4.43a.93.93,0,0,1,.74-.9l.5-.1a2.34,2.34,0,0,0-.92-4.58l-.49.1a5.61,5.61,0,0,0-4.5,5.48v4.43a5.61,5.61,0,0,0,4.5,5.48l6.75,1.35a27.11,27.11,0,0,0,1.48,3.57L80.48,128a5.6,5.6,0,0,0,.69,7.05l3.13,3.13a5.62,5.62,0,0,0,7,.7l5.73-3.82a29.18,29.18,0,0,0,3.57,1.48l1.35,6.75a5.61,5.61,0,0,0,5.48,4.49h4.43a5.61,5.61,0,0,0,5.48-4.49l1.35-6.75a28.54,28.54,0,0,0,3.57-1.48l5.73,3.81a5.6,5.6,0,0,0,7.05-.69l3.13-3.13a5.61,5.61,0,0,0,.7-7.05l-3.82-5.73a28.54,28.54,0,0,0,1.48-3.57l6.75-1.35a5.61,5.61,0,0,0,4.49-5.48v-4.43A5.61,5.61,0,0,0,143.33,102Z"/><path class="cls-1" d="M109.7,101.29a8.41,8.41,0,0,1,8.4,8.41,2.34,2.34,0,0,0,4.67,0,13.07,13.07,0,1,0-13.07,13.07,13,13,0,0,0,8-2.73,2.33,2.33,0,1,0-2.85-3.69,8.41,8.41,0,1,1-5.13-15.06Z"/><path class="cls-1" d="M71,56.79A14.22,14.22,0,1,0,56.79,71,14.24,14.24,0,0,0,71,56.79Zm-23.77,0a9.55,9.55,0,1,1,9.55,9.55A9.57,9.57,0,0,1,47.24,56.79Z"/></g></g></svg>