<svg xmlns="http://www.w3.org/2000/svg" viewBox="0 0 62.72 89.2"><defs><style>.cls-1{fill:#fff;}</style></defs><title>Asset 36</title><g id="Layer_2" data-name="Layer 2"><g id="Economics_main" data-name="Economics main"><path class="cls-1" d="M31.36,0A31.44,31.44,0,0,0,14.28,57.79a8.58,8.58,0,0,1,4,7V70.9a7.84,7.84,0,0,0,5.22,7.39v3.07a7.85,7.85,0,0,0,15.69,0V78.29a7.84,7.84,0,0,0,5.22-7.39V64.63a8.23,8.23,0,0,1,3.87-6.75A31.44,31.44,0,0,0,31.36,0ZM34,81.36a2.62,2.62,0,0,1-5.23,0V78.74H34ZM39.2,70.9a2.63,2.63,0,0,1-2.62,2.62H26.13a2.63,2.63,0,0,1-2.62-2.62V68.29H39.2Zm6.26-17.41a13.61,13.61,0,0,0-6.16,9.57H34V56.13l4.46-4.46a2.62,2.62,0,0,0-3.7-3.7l-3.37,3.38L28,48a2.62,2.62,0,0,0-3.7,3.7l4.46,4.46v6.93H23.39a14,14,0,0,0-6.26-9.65,26.13,26.13,0,1,1,28.33.08Z"/><path class="cls-1" d="M36.58,26.3H30.33l3.37-6.87A2.61,2.61,0,1,0,29,17.13L23.78,27.76a2.62,2.62,0,0,0,2.35,3.76h6.22L29,38.2a2.61,2.61,0,1,0,4.67,2.33l5.23-10.45A2.61,2.61,0,0,0,36.58,26.3Z"/></g></g></svg>