<svg xmlns="http://www.w3.org/2000/svg" viewBox="0 0 105.93 105.88"><defs><style>.cls-1{fill:#fff;}</style></defs><title>Asset 34</title><g id="Layer_2" data-name="Layer 2"><g id="Economics_main" data-name="Economics main"><g id="Layer_1-2" data-name="Layer 1"><path class="cls-1" d="M101.07,96.25H4.81a4.82,4.82,0,0,0,0,9.63h96.26a4.82,4.82,0,0,0,0-9.63Z"/><path class="cls-1" d="M10.83,83.74a4.82,4.82,0,0,0,0,9.63H95.05a4.82,4.82,0,1,0,0-9.63h-1.2V40.42h1.2a2.41,2.41,0,1,0,0-4.81H10.83a2.41,2.41,0,1,0,0,4.81H12V83.73h-1.2ZM84.22,40.42V83.73H69.79V40.42Zm-24.06,0V83.73H45.72V40.42Zm-38.5,0H36.09V83.73H21.66Z"/><path class="cls-1" d="M4.81,31.28h96.31a4.82,4.82,0,0,0,1.56-9.37L54.92.42a4.85,4.85,0,0,0-4,0L2.84,22.08a4.81,4.81,0,0,0,2,9.2Z"/></g></g></g></svg>