<svg xmlns="http://www.w3.org/2000/svg" viewBox="0 0 298.25 260.58"><defs><style>.cls-1{fill:#333;}.cls-2{fill:#b00d0d;}.cls-3{fill:#fff;}.cls-4{fill:#5e5e5e;}</style></defs><title>Asset 27</title><g id="Layer_2" data-name="Layer 2"><g id="Economics_main" data-name="Economics main"><path class="cls-1" d="M139.94,141.84V255.2c54,18.63,104.34-18.62,158.31,0V141.84C244.28,123.21,193.91,160.47,139.94,141.84Zm58.78,33.71c.5-1.64.76-2.47,1.26-4.12.51,1.45.76,2.18,1.26,3.63,1.64-.32,2.45-.49,4.08-.84l-3.3,3.09c.51,1.45.76,2.17,1.26,3.62-1.32-.69-2-1-3.29-1.73l-3.3,3,1.25-4.11c-1.32-.71-2-1.07-3.29-1.81C196.27,176,197.09,175.86,198.72,175.55Zm-13.39-10.84c.5-1.6.75-2.41,1.26-4,.5,1.49.75,2.24,1.26,3.73,1.63-.21,2.45-.32,4.08-.57-1.32,1.16-2,1.73-3.3,2.86.5,1.49.76,2.23,1.26,3.71-1.32-.77-2-1.16-3.3-2-1.32,1.11-2,1.66-3.3,2.74.5-1.6.76-2.4,1.26-4-1.32-.83-2-1.25-3.3-2.11C182.88,165,183.69,164.89,185.33,164.71Zm0,25c.5-1.61.75-2.41,1.26-4,.5,1.49.75,2.23,1.26,3.72,1.63-.2,2.45-.32,4.08-.57-1.32,1.17-2,1.74-3.3,2.87.5,1.49.76,2.23,1.26,3.71-1.32-.78-2-1.17-3.3-2-1.32,1.12-2,1.67-3.3,2.75.5-1.6.76-2.4,1.26-4-1.32-.83-2-1.25-3.3-2.11C182.88,190,183.69,189.91,185.33,189.74Zm-11.79-11.48,1.27-3.89c.5,1.54.76,2.31,1.26,3.85,1.63,0,2.45-.08,4.08-.19-1.32,1.05-2,1.56-3.3,2.57.5,1.53.76,2.29,1.26,3.82-1.32-.9-2-1.35-3.3-2.29-1.32,1-2,1.46-3.3,2.39.5-1.54.76-2.32,1.26-3.87-1.32-1-2-1.46-3.3-2.47C171.1,178.25,171.91,178.26,173.54,178.26Zm-14.4-14c.51-1.47.76-2.21,1.26-3.68.51,1.63.76,2.44,1.26,4.06,1.64.23,2.45.32,4.08.46-1.32.84-2,1.25-3.3,2l1.27,4c-1.33-1.1-2-1.67-3.3-2.83-1.33.76-2,1.12-3.3,1.82.5-1.45.75-2.18,1.26-3.64-1.33-1.2-2-1.81-3.31-3.07C156.69,163.79,157.51,164,159.14,164.23Zm0,25c.51-1.46.76-2.2,1.26-3.67.51,1.62.76,2.44,1.26,4.06,1.64.22,2.45.31,4.08.45-1.32.85-2,1.26-3.3,2l1.27,4c-1.33-1.11-2-1.67-3.3-2.83-1.33.75-2,1.12-3.3,1.82.5-1.46.75-2.19,1.26-3.65-1.33-1.19-2-1.81-3.31-3.07C156.69,188.81,157.51,189,159.14,189.25Zm130.78,54.28c-48.56-10.73-93.09,17.4-141.65,6.68v-9c48.56,10.73,93.09-17.4,141.65-6.68Zm0-17.34c-48.56-10.73-93.09,17.41-141.65,6.68v-8.66c48.56,10.73,93.09-17.4,141.65-6.67Zm0-17c-48.56-10.73-93.09,17.41-141.65,6.68v-8.82c48.57,10.72,93.09-17.41,141.65-6.68Zm0-17.15c-25.49-5.88-47.22-2.12-72.39,3.71v-9.52c25.16-5.83,46.9-9.59,72.39-3.71Zm0-17.85c-25.49-5.88-47.23-2.13-72.39,3.7v-8.62c25.16-5.84,46.9-9.59,72.39-3.71Zm0-17c-25.49-5.87-47.22-2.12-72.39,3.71v-10.4c25.16-5.83,46.9-9.59,72.39-3.71Z"/><path class="cls-2" d="M0,5.38V118.74c54,18.63,104.35-18.63,158.32,0V5.38C104.34-13.25,54,24,0,5.38ZM58.78,39.09,60.05,35,61.3,38.6c1.64-.32,2.45-.5,4.09-.85l-3.3,3.1,1.25,3.61c-1.32-.68-2-1-3.29-1.73l-3.3,3c.5-1.64.75-2.46,1.26-4.11-1.32-.71-2-1.07-3.3-1.81C56.34,39.55,57.15,39.4,58.78,39.09ZM45.39,28.25c.5-1.61.76-2.41,1.26-4L47.91,28c1.63-.21,2.45-.32,4.08-.57-1.32,1.16-2,1.73-3.3,2.86.51,1.49.76,2.23,1.26,3.71-1.32-.77-2-1.17-3.3-2-1.32,1.11-2,1.66-3.3,2.74.51-1.6.76-2.4,1.26-4-1.32-.83-2-1.25-3.3-2.11C42.94,28.5,43.76,28.42,45.39,28.25Zm0,25c.5-1.61.76-2.41,1.26-4,.5,1.49.76,2.23,1.26,3.72,1.63-.2,2.45-.32,4.08-.57-1.32,1.16-2,1.74-3.3,2.87.51,1.48.76,2.23,1.26,3.71-1.32-.78-2-1.17-3.3-2-1.32,1.12-2,1.67-3.3,2.74.51-1.59.76-2.39,1.26-4-1.32-.82-2-1.24-3.3-2.1C42.94,53.53,43.76,53.45,45.39,53.28ZM33.61,41.79c.5-1.55.75-2.32,1.26-3.88.51,1.54.76,2.31,1.26,3.85,1.63,0,2.45-.08,4.08-.19-1.32,1-2,1.56-3.3,2.56.51,1.54.76,2.3,1.26,3.83-1.32-.9-2-1.35-3.3-2.29-1.32,1-2,1.45-3.3,2.39.51-1.54.76-2.32,1.26-3.87-1.32-1-2-1.46-3.3-2.47C31.16,41.78,32,41.8,33.61,41.79Zm-14.41-14c.51-1.46.76-2.2,1.27-3.67.5,1.63.75,2.44,1.26,4.06,1.63.22,2.44.32,4.08.46-1.32.84-2,1.25-3.3,2,.5,1.62.75,2.42,1.26,4-1.32-1.1-2-1.67-3.3-2.83-1.33.75-2,1.12-3.3,1.81.5-1.45.75-2.18,1.26-3.63-1.32-1.2-2-1.82-3.3-3.08C16.76,27.32,17.57,27.49,19.2,27.76Zm0,25,1.27-3.68c.5,1.63.75,2.45,1.26,4.07,1.63.22,2.44.31,4.08.45-1.32.85-2,1.26-3.3,2,.5,1.62.75,2.42,1.26,4-1.32-1.11-2-1.67-3.3-2.83-1.33.75-2,1.12-3.3,1.81.5-1.45.75-2.18,1.26-3.64-1.32-1.2-2-1.81-3.3-3.07C16.76,52.35,17.57,52.51,19.2,52.79ZM150,107.07c-48.56-10.73-93.08,17.4-141.65,6.68v-9C56.9,115.47,101.42,87.33,150,98.06Zm0-17.34C101.42,79,56.9,107.13,8.33,96.41V87.75C56.9,98.48,101.42,70.34,150,81.08Zm0-17C101.42,62,56.89,90.15,8.33,79.42V70.6C56.9,81.32,101.42,53.19,150,63.92Zm0-17.15c-25.49-5.88-47.22-2.12-72.39,3.71V49.78c25.16-5.83,46.9-9.59,72.39-3.71Zm0-17.86c-25.49-5.87-47.22-2.12-72.39,3.71V32.82c25.16-5.84,46.9-9.59,72.39-3.71Zm0-17c-25.49-5.87-47.22-2.12-72.39,3.71V14.08c25.16-5.83,46.9-9.59,72.39-3.71Z"/><path class="cls-2" d="M150.7,108.76c0-32.07-.72-66.32-.72-98.39C99.12-5.43,57.91,30.81,7,15c0,32.07.25,67.18.25,99.25,35.66,11.08,60.58-4.15,95.25-7l16.33-1.84C129.7,105.35,139.62,105.31,150.7,108.76ZM107.16,12.52q3.81-.29,7.63-.37Z"/><path class="cls-3" d="M102,8c-16,2.47-31.54,7-47.5,9.45v98.29c15.41-2.89,30.63-7.67,47.5-9.45Z"/><path class="cls-2" d="M74.39,45.78a1.06,1.06,0,0,1-1.42.47l-3-1.49,2.11,8.74a1,1,0,0,1-.47,1.15,1.05,1.05,0,0,1-1.25-.12l-3.73-3.31-.48,2.34A1.05,1.05,0,0,1,65,54.4l-5.33-.58,2,6a1.06,1.06,0,0,1-.5,1.26l-2,1.09,10.43,8.1a.89.89,0,0,1,.29,1l-1,2.71a94.15,94.15,0,0,1,10.42-1.3l.63,10.47,1.28-.08-.63-10.47a96.8,96.8,0,0,1,10.5,0l-1.56-2.26a.88.88,0,0,1,.1-1.14l9.67-9.69-2.15-.84a1.06,1.06,0,0,1-.65-1.19l1.26-6.17-5.23,1.22a1,1,0,0,1-1.23-.69l-.76-2.28-3.56,4a1,1,0,0,1-1.2.27,1,1,0,0,1-.64-1.06l.77-9.26-2.69,1.78a1.05,1.05,0,0,1-1.46-.3l-4-6Z"/><path class="cls-4" d="M261,106.14a62.22,62.22,0,0,0-1.5-19.89,61.72,61.72,0,0,0-50.43-46.39,62.14,62.14,0,0,0-27.21,1.88L180,38.08a2,2,0,0,0-3.4-.17L166.84,53a2,2,0,0,0,1.54,3l18,.91a2,2,0,0,0,1.84-2.86l-1.72-3.34a52.26,52.26,0,0,1,21-1.08,51.7,51.7,0,0,1,39.32,72,5,5,0,0,0,1.47,5.92,4.64,4.64,0,0,0,1.06.63,5,5,0,0,0,6.57-2.53A60.71,60.71,0,0,0,261,106.14Z"/><path class="cls-4" d="M130.14,217.12a5,5,0,1,0-5.2-8.49,51.82,51.82,0,0,1-48.69,2.87,51.64,51.64,0,0,1-29.63-53.28l3.53,1.26a2,2,0,0,0,2.59-2.2l-3.28-17.72a2,2,0,0,0-3.2-1.13l-13.7,11.69a2,2,0,0,0,.62,3.34l3.88,1.38a62.27,62.27,0,0,0,1.75,27.21,61.52,61.52,0,0,0,52.68,43.82,62.24,62.24,0,0,0,19.91-1.15A61,61,0,0,0,130.14,217.12Z"/></g></g></svg>