<svg xmlns="http://www.w3.org/2000/svg" viewBox="0 0 424.42 379.42"><defs><style>.cls-1{fill:#b00d0d;}.cls-2{fill:#e6a0a2;}.cls-3{font-size:36px;fill:#fff;letter-spacing:-0.05em;}.cls-3,.cls-5,.cls-6{font-family:Quicksand-Bold, Quicksand;font-weight:700;}.cls-4{font-size:27px;letter-spacing:-0.05em;}.cls-5{font-size:26px;letter-spacing:-0.03em;}.cls-5,.cls-6{fill:#333;}.cls-6{font-size:40px;letter-spacing:-0.05em;}.cls-7{font-size:20px;}</style></defs><title>Asset 26</title><g id="Layer_2" data-name="Layer 2"><g id="Economics_main" data-name="Economics main"><path class="cls-1" d="M60.26,94.88h87.95a7,7,0,0,1,7,7V314.11a0,0,0,0,1,0,0H53.26a0,0,0,0,1,0,0V101.88A7,7,0,0,1,60.26,94.88Z"/><path class="cls-2" d="M172.27,115.25h87.95a7,7,0,0,1,7,7V314.11a0,0,0,0,1,0,0H165.27a0,0,0,0,1,0,0V122.25A7,7,0,0,1,172.27,115.25Z"/><text class="cls-3" transform="translate(74.04 131.05)">2.7<tspan class="cls-4" x="43.34" y="-4">%</tspan></text><text class="cls-5" transform="translate(58.05 339.65)">London</text><text class="cls-5" transform="translate(284.06 340.65)">Ontario</text><text class="cls-6" transform="translate(182.77 34)">GDP<tspan class="cls-7"><tspan x="19.16" y="28">2016</tspan></tspan></text><path class="cls-2" d="M283.28,173.91h87.95a7,7,0,0,1,7,7v133.2a0,0,0,0,1,0,0H276.28a0,0,0,0,1,0,0V180.91A7,7,0,0,1,283.28,173.91Z"/><text class="cls-3" transform="translate(299.05 213.05)">1.4<tspan class="cls-4" x="42.16" y="-4">%</tspan></text><text class="cls-3" transform="translate(188.05 152.04)">2.6<tspan class="cls-4" x="42.59" y="-4">%</tspan></text><text class="cls-5" transform="translate(169.06 342.66)">Canada</text><path class="cls-1" d="M11.89,123.87h0a1.56,1.56,0,0,0-.5-.29,1,1,0,0,0-.16-.06,2.14,2.14,0,0,0-.44-.08h-.17a.22.22,0,0,0-.08,0,1.71,1.71,0,0,0-.51.1l0,0a1.72,1.72,0,0,0-.48.26l-.06,0L.52,131.41a1.37,1.37,0,0,0,0,2.13,1.93,1.93,0,0,0,2.45,0l4.81-4.08a39,39,0,0,0,.53,12.1c3.28,18.09,20,30.9,37.24,28.54A1.58,1.58,0,0,0,47,168.64a1.64,1.64,0,0,0,0-.23,1.73,1.73,0,0,0-2-1.26c-15.38,2.1-30.31-9.58-33.3-26.09a36.76,36.76,0,0,1-.42-11.83l3.74,6.3a1.87,1.87,0,0,0,2.33.65,1.41,1.41,0,0,0,.74-2l-5.89-9.92A1.31,1.31,0,0,0,11.89,123.87Z"/><path class="cls-1" d="M405,239l-3.88,6.54a.92.92,0,0,0,.49,1.33,1.24,1.24,0,0,0,1.54-.42l2.46-4.15a24.09,24.09,0,0,1-.28,7.8c-2,10.88-11.81,18.58-22,17.2a1.12,1.12,0,0,0-1.3.82.78.78,0,0,0,0,.16,1,1,0,0,0,1,1c11.38,1.56,22.39-6.89,24.55-18.81a26,26,0,0,0,.35-8l3.17,2.69a1.27,1.27,0,0,0,1.61,0,.9.9,0,0,0,0-1.4l-5.88-5,0,0a1.33,1.33,0,0,0-.31-.18h0a1.21,1.21,0,0,0-.33-.07h-.17a1.5,1.5,0,0,0-.29.06l-.1,0a1,1,0,0,0-.33.2h0A1.16,1.16,0,0,0,405,239Z"/><rect class="cls-1" x="18.47" y="308.35" width="405.95" height="6.1" rx="2.15" ry="2.15"/></g></g></svg>