<svg xmlns="http://www.w3.org/2000/svg" viewBox="0 0 406.63 278.7"><defs><style>.cls-1{fill:#525252;}.cls-2{fill:#b00d0d;}.cls-3,.cls-7{font-size:36px;letter-spacing:-0.05em;}.cls-3,.cls-5,.cls-6{fill:#353535;font-family:Quicksand-Bold, Quicksand;font-weight:700;}.cls-4{font-size:27px;letter-spacing:-0.05em;}.cls-5{font-size:19px;letter-spacing:-0.05em;}.cls-6{font-size:25px;letter-spacing:-0.05em;}.cls-8{letter-spacing:-0.06em;}.cls-9{letter-spacing:-0.05em;}.cls-10{letter-spacing:-0.05em;}</style></defs><title>Asset 28</title><g id="Layer_2" data-name="Layer 2"><g id="Economics_main" data-name="Economics main"><path class="cls-1" d="M88.64,87.73c28.25-31.28,74.72-31.88,103.62-1.3l-8.23.1a3.5,3.5,0,0,0,0,7h0l16-.21a3.38,3.38,0,0,0,3.19-3.52l-.2-17.34A3.34,3.34,0,0,0,199.85,69a3.38,3.38,0,0,0-3.19,3.52l.09,8.92c-31.43-33.26-82-32.59-112.73,1.44A88.45,88.45,0,0,0,63,125.5a93.22,93.22,0,0,0,3,46.92,3.32,3.32,0,0,0,3,2.33,2.7,2.7,0,0,0,1.07-.22,3.61,3.61,0,0,0,2-4.47C62.51,141.21,68.86,109.64,88.64,87.73Z"/><path class="cls-1" d="M85.36,205c15,15.85,34.75,24.56,55.68,24.56H142c21.32-.29,41.24-9.48,56.11-26a88.28,88.28,0,0,0,21-42.66,93.25,93.25,0,0,0-3-46.93,3.2,3.2,0,0,0-4.14-2.11A3.6,3.6,0,0,0,210,116.3c9.57,28.85,3.22,60.42-16.56,82.33-13.7,15.15-32,23.64-51.58,23.89s-38-7.79-52-22.59l8.23-.1a3.5,3.5,0,0,0,0-7h0l-16,.21a3.1,3.1,0,0,0-2.27,1.06,3.73,3.73,0,0,0-.91,2.47L79,213.92a3.38,3.38,0,0,0,3.22,3.45h0a3.37,3.37,0,0,0,3.19-3.52Z"/><path class="cls-2" d="M185.62,123.17C178.5,104.61,162.36,92.28,144,91.08c-.32,0-.68,0-1-.07h-.13c-.2,0-.39,0-.59,0h-.09c-.36,0-.72,0-1.11,0a44.71,44.71,0,0,0-18.42,4c-11.91,5.32-21.19,15.36-26.1,28.25a55.59,55.59,0,0,0,0,40c7.48,19.59,25,32.27,44.58,32.27a4.71,4.71,0,0,0,.75,0c.13,0,.3,0,.43,0s.13,0,.16,0c.29,0,.55,0,.84,0h.33a.59.59,0,0,0,.26,0,44.77,44.77,0,0,0,15.69-3.87c11.91-5.32,21.18-15.36,26.1-28.25a55.86,55.86,0,0,0,0-39.95s0,0,0,0Zm-61.37-21.38a56.86,56.86,0,0,0-8.33,19.27h-11.3A43,43,0,0,1,124.25,101.79Zm-22.56,26.28h12.83a97.4,97.4,0,0,0-1.14,15.15,91.19,91.19,0,0,0,1.23,15.14H101.69A48.27,48.27,0,0,1,101.69,128.07Zm2.93,37.23h11.49A58.61,58.61,0,0,0,124.93,185,42.86,42.86,0,0,1,104.62,165.3ZM139,187.92c-6.74-2.15-12.72-10.88-16.14-22.62H139v22.62Zm0-29.59h-17.8a81.5,81.5,0,0,1-1.4-15.15A93.3,93.3,0,0,1,121.06,128h18Zm0-37.24H122.59c3.28-12.11,9.27-20.68,16.43-22.65Zm38.5,0h-9a58.57,58.57,0,0,0-7-17.33A43.58,43.58,0,0,1,177.52,121.06ZM145.47,98.41c7.15,2,13.11,10.57,16.43,22.65H145.47Zm0,29.66h18a89.7,89.7,0,0,1,1.24,15.15,81.4,81.4,0,0,1-1.4,15.14h-17.8Zm0,59.85V165.3h16.14C158.19,177,152.2,185.77,145.47,187.92Zm15.42-4.9a60.47,60.47,0,0,0,7.52-17.72h9.11A43,43,0,0,1,160.89,183Zm19.56-24.69H169.87a89.88,89.88,0,0,0,1.24-15.15A97.49,97.49,0,0,0,170,128h10.48A48.3,48.3,0,0,1,180.45,158.33Z"/><text class="cls-3" transform="translate(51.18 34.6)">22<tspan class="cls-4" x="34.99" y="-4">%</tspan></text><text class="cls-5" transform="translate(0.08 54.1)">IMMIGRANTS</text><text class="cls-6" transform="translate(184.17 241.53)">+<tspan class="cls-7" x="13.2" y="4">100</tspan></text><text class="cls-5" transform="translate(190.07 264.11)">LANG<tspan class="cls-8" x="46.21" y="0">U</tspan><tspan class="cls-9" x="58.46" y="0">A</tspan><tspan class="cls-10" x="69.56" y="0">GES</tspan></text></g></g></svg>