<svg xmlns="http://www.w3.org/2000/svg" viewBox="0 0 290.9 255.26"><defs><style>.cls-1{fill:#525252;}.cls-2{fill:#b00d0d;}.cls-3{fill:#353535;}</style></defs><title>Asset 42</title><g id="Layer_2" data-name="Layer 2"><g id="Economics_main" data-name="Economics main"><path class="cls-1" d="M87.22,78.69c28.25-31.28,74.72-31.88,103.62-1.3l-8.24.11a3.5,3.5,0,0,0,0,7h0l16-.21a3.38,3.38,0,0,0,3.19-3.52l-.19-17.34a3.23,3.23,0,1,0-6.45.07l.1,8.92c-31.44-33.26-82-32.59-112.73,1.44a88.55,88.55,0,0,0-21,42.63,93.33,93.33,0,0,0,3,46.92,3.31,3.31,0,0,0,3,2.33,3,3,0,0,0,1.08-.21,3.61,3.61,0,0,0,2-4.48C61.09,132.17,67.43,100.6,87.22,78.69Z"/><path class="cls-1" d="M83.93,195.93c15,15.85,34.76,24.56,55.68,24.56h.95c21.31-.29,41.23-9.48,56.1-26a88.21,88.21,0,0,0,21-42.66,93.37,93.37,0,0,0-3-46.93,3.19,3.19,0,0,0-4.13-2.11,3.59,3.59,0,0,0-1.95,4.47c9.57,28.85,3.22,60.42-16.57,82.33-13.7,15.15-32,23.64-51.58,23.89s-38-7.79-52-22.59l8.24-.1a3.5,3.5,0,0,0,0-7h0l-16,.22a3.11,3.11,0,0,0-2.28,1.05,3.78,3.78,0,0,0-.91,2.47l.2,17.33a3.38,3.38,0,0,0,3.22,3.45h0A3.37,3.37,0,0,0,84,204.81Z"/><path class="cls-2" d="M184.2,114.13C177.07,95.57,160.93,83.24,142.58,82c-.33,0-.69,0-1.05-.07h-.13c-.19,0-.39,0-.58,0h-.1c-.36,0-.71,0-1.11,0a44.78,44.78,0,0,0-18.42,4c-11.91,5.32-21.18,15.36-26.1,28.25a55.7,55.7,0,0,0,0,40c7.49,19.59,25,32.27,44.59,32.27a4.71,4.71,0,0,0,.75,0c.13,0,.29,0,.42,0s.13,0,.16,0c.3,0,.56,0,.85,0h.33a.61.61,0,0,0,.26,0,44.67,44.67,0,0,0,15.68-3.87c11.91-5.32,21.19-15.36,26.1-28.25a55.75,55.75,0,0,0,0-39.95s0,0,0,0ZM122.82,92.75A57.06,57.06,0,0,0,114.49,112H103.2A43,43,0,0,1,122.82,92.75ZM100.27,119h12.82A97.49,97.49,0,0,0,112,134.18a91.38,91.38,0,0,0,1.24,15.15H100.27A48.16,48.16,0,0,1,100.27,119Zm2.93,37.24h11.49a58.25,58.25,0,0,0,8.82,19.65A42.89,42.89,0,0,1,103.2,156.27Zm34.4,22.61c-6.74-2.15-12.73-10.88-16.14-22.61H137.6v22.61Zm0-29.59H119.8a80.66,80.66,0,0,1-1.4-15.15A93.33,93.33,0,0,1,119.63,119h18Zm0-37.24H121.16c3.29-12.11,9.28-20.67,16.44-22.65Zm38.5,0h-8.95a58.84,58.84,0,0,0-7-17.33A43.65,43.65,0,0,1,176.1,112ZM144,89.37c7.16,2,13.12,10.57,16.44,22.65H144ZM144,119h18a88.68,88.68,0,0,1,1.24,15.15,81.58,81.58,0,0,1-1.4,15.15H144Zm0,59.85V156.27h16.14C156.77,168,150.78,176.73,144,178.88ZM159.47,174A61,61,0,0,0,167,156.27h9.12A43.19,43.19,0,0,1,159.47,174ZM179,149.29H168.45a91,91,0,0,0,1.23-15.15A98.77,98.77,0,0,0,168.55,119H179A48.3,48.3,0,0,1,179,149.29Z"/><path class="cls-3" d="M67.4,22.18A2,2,0,0,1,68,23.62,1.85,1.85,0,0,1,67.4,25a2,2,0,0,1-1.44.56H53.72A1.91,1.91,0,0,1,52.24,25a2.05,2.05,0,0,1-.54-1.47,2.26,2.26,0,0,1,.65-1.59l7.85-8.38a13.66,13.66,0,0,0,2.1-2.9A5.76,5.76,0,0,0,63.08,8a3.93,3.93,0,0,0-1.15-2.81A3.63,3.63,0,0,0,59.26,4a3.76,3.76,0,0,0-2.1.7,7.87,7.87,0,0,0-1.93,1.86,2,2,0,0,1-1.65.86,2.1,2.1,0,0,1-1.46-.61,1.82,1.82,0,0,1-.67-1.37,2,2,0,0,1,.36-1.1A8.24,8.24,0,0,1,52.89,3,10.82,10.82,0,0,1,56.06.83,8.29,8.29,0,0,1,59.51,0a8.43,8.43,0,0,1,4.18,1,6.9,6.9,0,0,1,2.77,2.77,8.14,8.14,0,0,1,1,4,10,10,0,0,1-1.17,4.51,19.29,19.29,0,0,1-3.15,4.45L58.54,21.6H66A2,2,0,0,1,67.4,22.18Z"/><path class="cls-3" d="M84.9,22.18a2,2,0,0,1,.57,1.44A1.85,1.85,0,0,1,84.9,25a2,2,0,0,1-1.44.56H71.21A1.9,1.9,0,0,1,69.74,25a2.05,2.05,0,0,1-.54-1.47,2.26,2.26,0,0,1,.65-1.59l7.84-8.38a14.08,14.08,0,0,0,2.11-2.9A5.76,5.76,0,0,0,80.58,8a3.9,3.9,0,0,0-1.16-2.81A3.61,3.61,0,0,0,76.76,4a3.79,3.79,0,0,0-2.11.7,7.66,7.66,0,0,0-1.92,1.86,2,2,0,0,1-1.66.86,2.11,2.11,0,0,1-1.46-.61A1.85,1.85,0,0,1,69,5.4a2,2,0,0,1,.36-1.1A8.24,8.24,0,0,1,70.39,3,10.77,10.77,0,0,1,73.55.83,8.33,8.33,0,0,1,77,0a8.45,8.45,0,0,1,4.18,1A7,7,0,0,1,84,3.78a8.14,8.14,0,0,1,1,4,10,10,0,0,1-1.17,4.51,19.29,19.29,0,0,1-3.15,4.45L76,21.6h7.42A2,2,0,0,1,84.9,22.18Z"/><path class="cls-3" d="M87.71,12.23a4.52,4.52,0,0,1-1.58-1.89,6.13,6.13,0,0,1-.57-2.66A6.16,6.16,0,0,1,86.13,5a4.5,4.5,0,0,1,1.56-1.89,4.16,4.16,0,0,1,4.59,0A4.43,4.43,0,0,1,93.84,5a6.45,6.45,0,0,1,.55,2.68,6,6,0,0,1-.58,2.66,4.77,4.77,0,0,1-1.59,1.89,3.89,3.89,0,0,1-2.23.69A3.93,3.93,0,0,1,87.71,12.23Zm3.52-2.51a4,4,0,0,0,.46-2,4.1,4.1,0,0,0-.45-2A1.37,1.37,0,0,0,90,4.85a1.43,1.43,0,0,0-1.26.79,4,4,0,0,0-.47,2,4,4,0,0,0,.46,2,1.42,1.42,0,0,0,1.27.8A1.4,1.4,0,0,0,91.23,9.72ZM89.37,21.24a1.18,1.18,0,0,1-.46-.95,1.68,1.68,0,0,1,.27-.81L99.92,3.25A1.4,1.4,0,0,1,101,2.61,1.48,1.48,0,0,1,102,3a1.21,1.21,0,0,1,.46,1,1.79,1.79,0,0,1-.27.81L91.42,21a1.37,1.37,0,0,1-1.11.64A1.46,1.46,0,0,1,89.37,21.24Zm10-.1a4.8,4.8,0,0,1-1.6-1.89,5.87,5.87,0,0,1-.6-2.66,6.16,6.16,0,0,1,.57-2.68A4.52,4.52,0,0,1,99.28,12a4.16,4.16,0,0,1,4.59,0,4.48,4.48,0,0,1,1.55,1.89,6.3,6.3,0,0,1,.55,2.68,6,6,0,0,1-.58,2.66,4.77,4.77,0,0,1-1.59,1.89,3.95,3.95,0,0,1-4.46,0Zm3.47-2.51a4,4,0,0,0,.46-2,4.21,4.21,0,0,0-.44-2.05,1.4,1.4,0,0,0-2.51,0,3.9,3.9,0,0,0-.48,2,4.11,4.11,0,0,0,.46,2,1.42,1.42,0,0,0,1.27.8A1.39,1.39,0,0,0,102.81,18.63Z"/><path class="cls-3" d="M2,44.73a1.18,1.18,0,0,1-.83.33,1.16,1.16,0,0,1-.85-.33A1.12,1.12,0,0,1,0,43.91v-11a1.08,1.08,0,0,1,.34-.82,1.22,1.22,0,0,1,.88-.34A1.13,1.13,0,0,1,2,32.1a1.09,1.09,0,0,1,.35.82v11A1.09,1.09,0,0,1,2,44.73Z"/><path class="cls-3" d="M16.63,32.08a1.08,1.08,0,0,1,.36.82v11a1.13,1.13,0,0,1-1.18,1.15,1.19,1.19,0,0,1-.87-.32,1.1,1.1,0,0,1-.33-.83V36.25L11.48,41a1.92,1.92,0,0,1-.44.37.94.94,0,0,1-.51.12.92.92,0,0,1-.5-.12A1.69,1.69,0,0,1,9.6,41l-3.14-5v7.83a1.16,1.16,0,0,1-.3.83,1,1,0,0,1-.8.32,1,1,0,0,1-.78-.33,1.18,1.18,0,0,1-.3-.82v-11a1.08,1.08,0,0,1,.35-.81,1.14,1.14,0,0,1,.84-.34,1.2,1.2,0,0,1,.57.14,1.08,1.08,0,0,1,.44.37l4.14,6.36,4.26-6.36a1.13,1.13,0,0,1,.41-.37,1,1,0,0,1,.52-.14A1.16,1.16,0,0,1,16.63,32.08Z"/><path class="cls-3" d="M31.25,32.08a1.1,1.1,0,0,1,.35.82v11a1.13,1.13,0,0,1-1.18,1.15,1.19,1.19,0,0,1-.87-.32,1.1,1.1,0,0,1-.33-.83V36.25L26.09,41a1.92,1.92,0,0,1-.44.37.94.94,0,0,1-.51.12.92.92,0,0,1-.5-.12,1.69,1.69,0,0,1-.43-.37l-3.14-5v7.83a1.16,1.16,0,0,1-.3.83,1,1,0,0,1-.8.32,1,1,0,0,1-.78-.33,1.18,1.18,0,0,1-.3-.82v-11a1.08,1.08,0,0,1,.35-.81,1.14,1.14,0,0,1,.84-.34,1.2,1.2,0,0,1,.57.14,1.08,1.08,0,0,1,.44.37l4.14,6.36,4.26-6.36a1.13,1.13,0,0,1,.41-.37,1,1,0,0,1,.52-.14A1.18,1.18,0,0,1,31.25,32.08Z"/><path class="cls-3" d="M35.51,44.73a1.2,1.2,0,0,1-.84.33,1.14,1.14,0,0,1-.84-.33,1.12,1.12,0,0,1-.33-.82v-11a1.08,1.08,0,0,1,.34-.82,1.22,1.22,0,0,1,.87-.34,1.15,1.15,0,0,1,.82.34,1.08,1.08,0,0,1,.34.82v11A1.08,1.08,0,0,1,35.51,44.73Z"/><path class="cls-3" d="M48.39,38.21a1.15,1.15,0,0,1,.33.83v4a1.17,1.17,0,0,1-.59,1A7.61,7.61,0,0,1,44,45.25a6.93,6.93,0,0,1-6-3.41A6.79,6.79,0,0,1,38,35a7,7,0,0,1,6-3.41,6.78,6.78,0,0,1,3.27.76,1.19,1.19,0,0,1,.43.4,1.14,1.14,0,0,1,.14.54,1.18,1.18,0,0,1-.31.82,1,1,0,0,1-.77.35,1.6,1.6,0,0,1-.63-.15A5.38,5.38,0,0,0,44,33.85a4.27,4.27,0,0,0-2.24.62,4.58,4.58,0,0,0-2.22,3.94,4.62,4.62,0,0,0,2.22,4A4.26,4.26,0,0,0,44,43a7.7,7.7,0,0,0,1.14-.09,6.51,6.51,0,0,0,1.07-.25V40.16H44.46a1.12,1.12,0,0,1-.83-.32A1.11,1.11,0,0,1,43.3,39a1.07,1.07,0,0,1,.33-.81,1.13,1.13,0,0,1,.83-.33h3.12A1.07,1.07,0,0,1,48.39,38.21Z"/><path class="cls-3" d="M60.87,43.6a1.09,1.09,0,0,1,.14.51,1,1,0,0,1-.23.63,1.06,1.06,0,0,1-.87.34,1.69,1.69,0,0,1-.84-.21c-.91-.52-1.37-1.57-1.37-3.17a1.39,1.39,0,0,0-.44-1.08,1.86,1.86,0,0,0-1.29-.4H52.42v3.69a1.24,1.24,0,0,1-.27.83.91.91,0,0,1-.74.32,1.51,1.51,0,0,1-1-.33,1,1,0,0,1-.4-.82v-11a1.11,1.11,0,0,1,.33-.82,1.14,1.14,0,0,1,.83-.34h5.47a3.49,3.49,0,0,1,1.86.54,3.93,3.93,0,0,1,1.4,1.46,4.29,4.29,0,0,1,.52,2.09A3.72,3.72,0,0,1,60,37.7a4.29,4.29,0,0,1-1.33,1.44,2.92,2.92,0,0,1,1.31,2.24A4,4,0,0,1,60,42a6.06,6.06,0,0,0,.15.84.67.67,0,0,0,.35.39A1.24,1.24,0,0,1,60.87,43.6Zm-3.62-5.66a2.57,2.57,0,0,0,.53-.86A3.28,3.28,0,0,0,58,35.91a2.27,2.27,0,0,0-.21-1,2,2,0,0,0-.53-.71,1,1,0,0,0-.67-.27H52.42v4.31h4.16A1,1,0,0,0,57.25,37.94Z"/><path class="cls-3" d="M72.67,44a1.06,1.06,0,0,1-.32.81A1,1,0,0,1,71,45a1.37,1.37,0,0,1-.42-.57l-1-2.3H63.92l-1,2.32a1.19,1.19,0,0,1-.41.56,1,1,0,0,1-.6.2.92.92,0,0,1-1-1,1.23,1.23,0,0,1,.06-.36L65.7,32.45a1.3,1.3,0,0,1,.46-.59,1,1,0,0,1,.68-.17,1.08,1.08,0,0,1,.64.2,1.16,1.16,0,0,1,.43.56l4.67,11.13A1.38,1.38,0,0,1,72.67,44ZM64.85,39.9h3.8l-1.92-4.45Z"/><path class="cls-3" d="M84.17,32.07a1.05,1.05,0,0,1,.28.76V43.91a1.13,1.13,0,0,1-1.16,1.15,1.57,1.57,0,0,1-.52-.08.79.79,0,0,1-.37-.24l-7-8.85V44a1,1,0,0,1-.3.76,1,1,0,0,1-.76.3,1,1,0,0,1-.75-.3,1.07,1.07,0,0,1-.28-.76V32.92a1.11,1.11,0,0,1,.33-.82,1.14,1.14,0,0,1,.83-.34,1.38,1.38,0,0,1,.56.12.93.93,0,0,1,.41.3L82.38,41V32.83a1,1,0,0,1,.3-.76,1.05,1.05,0,0,1,1.49,0Z"/><path class="cls-3" d="M95.93,32.07a1,1,0,0,1,.32.8,1,1,0,0,1-.32.78,1.18,1.18,0,0,1-.84.3h-3v10a1.08,1.08,0,0,1-.36.82,1.27,1.27,0,0,1-.89.33,1.22,1.22,0,0,1-.88-.33,1.09,1.09,0,0,1-.34-.82V34h-3a1.2,1.2,0,0,1-.84-.3,1.08,1.08,0,0,1-.32-.8,1,1,0,0,1,.33-.78,1.2,1.2,0,0,1,.83-.31h8.43A1.19,1.19,0,0,1,95.93,32.07Z"/><path class="cls-3" d="M99.14,44.91a5.55,5.55,0,0,1-2-1.16,1.31,1.31,0,0,1-.52-1A1.06,1.06,0,0,1,97,42a1,1,0,0,1,.78-.34,1,1,0,0,1,.64.23,5.6,5.6,0,0,0,1.48.91,4.63,4.63,0,0,0,1.71.29,3.43,3.43,0,0,0,1.84-.48,1.36,1.36,0,0,0,.77-1.17,1.52,1.52,0,0,0-.76-1.34,6.25,6.25,0,0,0-2.42-.73q-4.16-.62-4.16-3.88a3.49,3.49,0,0,1,.63-2.08A4,4,0,0,1,99.18,32a6.06,6.06,0,0,1,2.41-.47,6.64,6.64,0,0,1,2.25.37,5.27,5.27,0,0,1,1.76.95,1.25,1.25,0,0,1,.55,1,1.09,1.09,0,0,1-.32.77,1,1,0,0,1-.76.33.79.79,0,0,1-.51-.17,5.15,5.15,0,0,0-1.38-.73,4.61,4.61,0,0,0-1.59-.33,3.24,3.24,0,0,0-1.85.45,1.33,1.33,0,0,0-.66,1.16,1.37,1.37,0,0,0,.68,1.24,6.17,6.17,0,0,0,2.12.68,11.3,11.3,0,0,1,2.61.73A3.39,3.39,0,0,1,106,39.24a3.73,3.73,0,0,1,.5,2,3.41,3.41,0,0,1-.68,2.1A4.36,4.36,0,0,1,104,44.77a6.11,6.11,0,0,1-2.42.48A7.88,7.88,0,0,1,99.14,44.91Z"/><path class="cls-3" d="M196.32,224.12a1.43,1.43,0,0,1,0,2,1.36,1.36,0,0,1-1,.39h-3.5v3.27a1.52,1.52,0,0,1-.46,1.15,1.59,1.59,0,0,1-1.16.45,1.58,1.58,0,0,1-1.16-.45,1.53,1.53,0,0,1-.47-1.15v-3.27h-3.42a1.39,1.39,0,0,1-1-.4,1.35,1.35,0,0,1-.4-1,1.27,1.27,0,0,1,.4-1,1.41,1.41,0,0,1,1-.37h3.42V220a1.55,1.55,0,0,1,.47-1.15,1.61,1.61,0,0,1,1.18-.45,1.55,1.55,0,0,1,1.15.45,1.57,1.57,0,0,1,.45,1.15v3.73h3.5A1.4,1.4,0,0,1,196.32,224.12Z"/><path class="cls-3" d="M205.74,211.92a2.14,2.14,0,0,1,.61,1.56v20.81a2.06,2.06,0,0,1-.68,1.57,2.41,2.41,0,0,1-1.69.63,2.27,2.27,0,0,1-1.66-.63,2.1,2.1,0,0,1-.65-1.57V217.23l-2.23,1.36a2.16,2.16,0,0,1-1.15.33,2,2,0,0,1-1.53-.69,2.15,2.15,0,0,1-.63-1.51,2.1,2.1,0,0,1,.3-1.08,2.35,2.35,0,0,1,.81-.79l5.44-3.24a3.36,3.36,0,0,1,1.55-.32A2,2,0,0,1,205.74,211.92Z"/><path class="cls-3" d="M213.1,235.23a9.85,9.85,0,0,1-3.29-4.56,21.11,21.11,0,0,1,0-13.57,9.87,9.87,0,0,1,3.29-4.55,9.17,9.17,0,0,1,10.41,0,9.87,9.87,0,0,1,3.29,4.55,21.11,21.11,0,0,1,0,13.57,9.85,9.85,0,0,1-3.29,4.56,9.17,9.17,0,0,1-10.41,0Zm8.82-4.9a16.39,16.39,0,0,0,0-12.89,4.08,4.08,0,0,0-7.23,0,16.39,16.39,0,0,0,0,12.89,4.07,4.07,0,0,0,7.23,0Z"/><path class="cls-3" d="M233.41,235.23a9.87,9.87,0,0,1-3.3-4.56,21.29,21.29,0,0,1,0-13.57,9.89,9.89,0,0,1,3.3-4.55,9.16,9.16,0,0,1,10.4,0,9.87,9.87,0,0,1,3.29,4.55,21.11,21.11,0,0,1,0,13.57,9.85,9.85,0,0,1-3.29,4.56,9.16,9.16,0,0,1-10.4,0Zm8.82-4.9a16.51,16.51,0,0,0,0-12.89,4.09,4.09,0,0,0-7.24,0,16.51,16.51,0,0,0,0,12.89,4.08,4.08,0,0,0,7.24,0Z"/><path class="cls-3" d="M198.15,253.16a1,1,0,0,1,.34.81,1,1,0,0,1-.34.79,1.13,1.13,0,0,1-.82.31h-6.18a1.14,1.14,0,0,1-1.16-1.16v-11a1.09,1.09,0,0,1,.35-.82,1.15,1.15,0,0,1,.87-.34,1.16,1.16,0,0,1,1.16,1.16v9.92h5A1.18,1.18,0,0,1,198.15,253.16Z"/><path class="cls-3" d="M210.25,254.05a1.07,1.07,0,0,1-.33.81,1.05,1.05,0,0,1-.74.31,1,1,0,0,1-.61-.21,1.31,1.31,0,0,1-.43-.57l-1-2.3h-5.66l-1,2.32a1.13,1.13,0,0,1-.41.56,1,1,0,0,1-.6.2.9.9,0,0,1-1-1,1.2,1.2,0,0,1,0-.36l4.73-11.36a1.31,1.31,0,0,1,.46-.59,1,1,0,0,1,.69-.17,1.07,1.07,0,0,1,.63.2,1.11,1.11,0,0,1,.43.56l4.67,11.13A1.2,1.2,0,0,1,210.25,254.05Zm-7.83-4.14h3.8l-1.92-4.45Z"/><path class="cls-3" d="M221.74,242.08a1.06,1.06,0,0,1,.29.76v11.07a1.14,1.14,0,0,1-1.16,1.16,1.53,1.53,0,0,1-.52-.08.7.7,0,0,1-.37-.24l-7-8.85V254a1.07,1.07,0,0,1-.29.76,1,1,0,0,1-.77.3,1,1,0,0,1-.74-.3,1.07,1.07,0,0,1-.29-.76V242.93a1.16,1.16,0,0,1,1.16-1.16,1.38,1.38,0,0,1,.56.12.88.88,0,0,1,.41.3L220,251v-8.17a1,1,0,0,1,1-1.07A1,1,0,0,1,221.74,242.08Z"/><path class="cls-3" d="M234.55,248.22a1.18,1.18,0,0,1,.32.83v4a1.14,1.14,0,0,1-.59,1,7.5,7.5,0,0,1-4.08,1.16,6.76,6.76,0,0,1-3.48-.92,6.87,6.87,0,0,1-2.53-2.49,6.79,6.79,0,0,1,0-6.86,6.92,6.92,0,0,1,2.53-2.48,7.16,7.16,0,0,1,6.74-.17,1,1,0,0,1,.43.4,1,1,0,0,1,.15.53,1.2,1.2,0,0,1-.32.83,1,1,0,0,1-.77.35,1.52,1.52,0,0,1-.62-.15,5.45,5.45,0,0,0-2.13-.44,4.27,4.27,0,0,0-2.24.62,4.56,4.56,0,0,0-2.23,3.94,4.46,4.46,0,0,0,.6,2.28,4.58,4.58,0,0,0,1.63,1.67,4.26,4.26,0,0,0,2.24.61,7.91,7.91,0,0,0,1.14-.09,6.38,6.38,0,0,0,1.06-.25v-2.47h-1.79a1.16,1.16,0,0,1-.82-.32,1.18,1.18,0,0,1,0-1.64,1.16,1.16,0,0,1,.82-.32h3.12A1.11,1.11,0,0,1,234.55,248.22Z"/><path class="cls-3" d="M246.44,242.08a1.12,1.12,0,0,1,.31.83v6.88a5.76,5.76,0,0,1-.67,2.79,4.66,4.66,0,0,1-1.86,1.9,5.79,5.79,0,0,1-5.48,0,4.63,4.63,0,0,1-1.87-1.9,5.65,5.65,0,0,1-.67-2.79v-6.88a1.12,1.12,0,0,1,.34-.82,1.22,1.22,0,0,1,.88-.34,1.14,1.14,0,0,1,.8.34,1.12,1.12,0,0,1,.34.82v6.88a3.26,3.26,0,0,0,.4,1.63,2.74,2.74,0,0,0,1.07,1.09,2.93,2.93,0,0,0,1.45.38,3.21,3.21,0,0,0,1.53-.38,2.85,2.85,0,0,0,1.14-1.09,3.08,3.08,0,0,0,.43-1.63v-6.88a1.15,1.15,0,0,1,.29-.83,1,1,0,0,1,.77-.33A1,1,0,0,1,246.44,242.08Z"/><path class="cls-3" d="M259,254.05a1.1,1.1,0,0,1-.32.81,1.07,1.07,0,0,1-.74.31,1,1,0,0,1-.62-.21,1.39,1.39,0,0,1-.43-.57l-1-2.3h-5.66l-1,2.32a1.19,1.19,0,0,1-.41.56,1.05,1.05,0,0,1-.6.2.92.92,0,0,1-1-1,1.23,1.23,0,0,1,.06-.36L252,242.46a1.23,1.23,0,0,1,.45-.59,1,1,0,0,1,.69-.17,1.08,1.08,0,0,1,.64.2,1.15,1.15,0,0,1,.42.56l4.68,11.13A1.38,1.38,0,0,1,259,254.05Zm-7.83-4.14H255L253,245.46Z"/><path class="cls-3" d="M270.17,248.22a1.15,1.15,0,0,1,.33.83v4a1.14,1.14,0,0,1-.59,1,7.54,7.54,0,0,1-4.09,1.16,6.93,6.93,0,0,1-6-3.41,6.79,6.79,0,0,1,0-6.86,7,7,0,0,1,6-3.41,6.75,6.75,0,0,1,3.27.76,1.19,1.19,0,0,1,.43.4,1.1,1.1,0,0,1,.14.53,1.19,1.19,0,0,1-.31.83,1,1,0,0,1-.77.35,1.6,1.6,0,0,1-.63-.15,5.38,5.38,0,0,0-2.13-.44,4.27,4.27,0,0,0-2.24.62,4.58,4.58,0,0,0-2.22,3.94,4.46,4.46,0,0,0,.6,2.28,4.55,4.55,0,0,0,1.62,1.67,4.26,4.26,0,0,0,2.24.61,7.7,7.7,0,0,0,1.14-.09,6.51,6.51,0,0,0,1.07-.25v-2.47h-1.79a1.16,1.16,0,0,1-.83-.32,1.18,1.18,0,0,1,0-1.64,1.16,1.16,0,0,1,.83-.32h3.12A1.09,1.09,0,0,1,270.17,248.22Z"/><path class="cls-3" d="M280.18,253.22a1.06,1.06,0,0,1,.33.77,1,1,0,0,1-.33.78,1.21,1.21,0,0,1-.83.3H273a1.13,1.13,0,0,1-1.16-1.16v-11a1.14,1.14,0,0,1,1.16-1.16h6.36a1.18,1.18,0,0,1,.83.32,1.06,1.06,0,0,1,.33.8,1,1,0,0,1-.32.77,1.2,1.2,0,0,1-.84.3H274.2v3.23h4.3a1.15,1.15,0,0,1,.82.31,1.07,1.07,0,0,1,.33.81,1,1,0,0,1-.32.77,1.15,1.15,0,0,1-.83.29h-4.3v3.52h5.15A1.15,1.15,0,0,1,280.18,253.22Z"/><path class="cls-3" d="M283.59,254.92a5.59,5.59,0,0,1-2-1.16,1.33,1.33,0,0,1-.51-1,1.07,1.07,0,0,1,.32-.77,1.05,1.05,0,0,1,1.43-.11,5.44,5.44,0,0,0,1.48.91,4.63,4.63,0,0,0,1.71.29,3.37,3.37,0,0,0,1.83-.48,1.37,1.37,0,0,0,.77-1.17,1.5,1.5,0,0,0-.76-1.34,6.41,6.41,0,0,0-2.41-.74c-2.78-.4-4.16-1.69-4.16-3.87a3.49,3.49,0,0,1,.63-2.08,3.89,3.89,0,0,1,1.7-1.35,6.11,6.11,0,0,1,2.42-.47,6.93,6.93,0,0,1,2.25.36,5.77,5.77,0,0,1,1.76.95,1.31,1.31,0,0,1,.55,1,1.06,1.06,0,0,1-.33.77,1,1,0,0,1-.76.33.79.79,0,0,1-.51-.17,5.15,5.15,0,0,0-1.38-.73,4.56,4.56,0,0,0-1.58-.33,3.28,3.28,0,0,0-1.86.45,1.35,1.35,0,0,0-.65,1.16,1.36,1.36,0,0,0,.67,1.24,6.25,6.25,0,0,0,2.12.68,11.3,11.3,0,0,1,2.61.73,3.36,3.36,0,0,1,1.48,1.22,3.71,3.71,0,0,1,.49,2,3.4,3.4,0,0,1-.67,2.1,4.33,4.33,0,0,1-1.8,1.39,6.06,6.06,0,0,1-2.41.48A7.88,7.88,0,0,1,283.59,254.92Z"/></g></g></svg>