<svg xmlns="http://www.w3.org/2000/svg" viewBox="0 0 424.42 337.32"><defs><style>.cls-1{fill:#b00d0d;}.cls-2{fill:#e6a0a2;}.cls-3{fill:#fff;}.cls-4{fill:#333;}</style></defs><title>Asset 41</title><g id="Layer_2" data-name="Layer 2"><g id="Economics_main" data-name="Economics main"><path class="cls-1" d="M60.26,89.28h87.95a7,7,0,0,1,7,7V308.51a0,0,0,0,1,0,0H53.26a0,0,0,0,1,0,0V96.28A7,7,0,0,1,60.26,89.28Z"/><path class="cls-2" d="M172.27,109.65h87.95a7,7,0,0,1,7,7V308.51a0,0,0,0,1,0,0H165.27a0,0,0,0,1,0,0V116.65A7,7,0,0,1,172.27,109.65Z"/><path class="cls-3" d="M91.68,122.07a2,2,0,0,1,.58,1.44,1.88,1.88,0,0,1-.58,1.39,2,2,0,0,1-1.44.56H78a2,2,0,0,1-1.48-.58A2.07,2.07,0,0,1,76,123.4a2.24,2.24,0,0,1,.65-1.58l7.85-8.39a14.08,14.08,0,0,0,2.11-2.9,5.83,5.83,0,0,0,.77-2.68A3.89,3.89,0,0,0,86.21,105a3.63,3.63,0,0,0-2.67-1.19,3.8,3.8,0,0,0-2.1.71,7.64,7.64,0,0,0-1.93,1.85,2,2,0,0,1-1.65.86,2.1,2.1,0,0,1-1.46-.61,1.79,1.79,0,0,1-.67-1.37,2,2,0,0,1,.36-1.09,8.24,8.24,0,0,1,1.08-1.28,11,11,0,0,1,3.17-2.2,8.27,8.27,0,0,1,3.46-.82,8.41,8.41,0,0,1,4.17,1,7,7,0,0,1,2.77,2.78,8.08,8.08,0,0,1,1,4,10,10,0,0,1-1.17,4.52,19.29,19.29,0,0,1-3.15,4.45l-4.58,4.86h7.42A2,2,0,0,1,91.68,122.07Z"/><path class="cls-3" d="M94.18,124.86a2.16,2.16,0,0,1-.56-1.6v-.61a2.2,2.2,0,0,1,.56-1.61,2.17,2.17,0,0,1,1.6-.55h.47a1.94,1.94,0,0,1,2.16,2.16v.61a2.12,2.12,0,0,1-.56,1.6,2.16,2.16,0,0,1-1.6.56h-.47A2.18,2.18,0,0,1,94.18,124.86Z"/><path class="cls-3" d="M117,100.85a1.92,1.92,0,0,1,.7,1.53,2.5,2.5,0,0,1-.21,1l-9.47,20.92a2,2,0,0,1-.79,1,2.12,2.12,0,0,1-1.19.37,2.26,2.26,0,0,1-1.57-.62,1.93,1.93,0,0,1-.66-1.47,2.32,2.32,0,0,1,.21-1l8.39-18.37h-9.57a2,2,0,0,1-2-2,1.86,1.86,0,0,1,.58-1.39,2,2,0,0,1,1.44-.56H115.4A2.44,2.44,0,0,1,117,100.85Z"/><path class="cls-3" d="M120.34,112.13a4.67,4.67,0,0,1-1.58-1.89,6.13,6.13,0,0,1-.57-2.66,6.2,6.2,0,0,1,.57-2.69,4.65,4.65,0,0,1,1.57-1.89,4.16,4.16,0,0,1,4.59,0,4.61,4.61,0,0,1,1.55,1.89,6.34,6.34,0,0,1,.55,2.69,6,6,0,0,1-.58,2.66,4.69,4.69,0,0,1-1.59,1.89,3.88,3.88,0,0,1-2.23.68A4,4,0,0,1,120.34,112.13Zm3.52-2.51a4,4,0,0,0,.46-2,4.25,4.25,0,0,0-.44-2.06,1.39,1.39,0,0,0-1.26-.78,1.41,1.41,0,0,0-1.25.8,3.9,3.9,0,0,0-.48,2,4.13,4.13,0,0,0,.46,2,1.41,1.41,0,0,0,1.27.79A1.38,1.38,0,0,0,123.86,109.62ZM122,121.13a1.16,1.16,0,0,1-.46-.94,1.61,1.61,0,0,1,.27-.81l10.75-16.23a1.38,1.38,0,0,1,1.1-.65,1.5,1.5,0,0,1,1,.38,1.16,1.16,0,0,1,.46.94,1.61,1.61,0,0,1-.27.81l-10.75,16.23a1.38,1.38,0,0,1-1.1.65A1.5,1.5,0,0,1,122,121.13Zm10-.09a4.82,4.82,0,0,1-1.61-1.89,5.87,5.87,0,0,1-.59-2.66,6.35,6.35,0,0,1,.56-2.69,4.65,4.65,0,0,1,1.57-1.89,4.16,4.16,0,0,1,4.59,0,4.53,4.53,0,0,1,1.55,1.89,6.35,6.35,0,0,1,.56,2.69,6.14,6.14,0,0,1-.58,2.66,4.72,4.72,0,0,1-1.6,1.89,3.93,3.93,0,0,1-4.45,0Zm3.47-2.51a4.13,4.13,0,0,0,.46-2,4.07,4.07,0,0,0-.45-2,1.39,1.39,0,0,0-1.26-.79,1.41,1.41,0,0,0-1.25.8,3.9,3.9,0,0,0-.47,2,4,4,0,0,0,.46,2,1.39,1.39,0,0,0,2.51,0Z"/><path class="cls-4" d="M71.16,331.44a1.45,1.45,0,0,1,.46,1.11,1.38,1.38,0,0,1-.46,1.07,1.56,1.56,0,0,1-1.13.43H61.58A1.54,1.54,0,0,1,60,332.47v-15a1.51,1.51,0,0,1,.46-1.13,1.68,1.68,0,0,1,1.2-.46,1.57,1.57,0,0,1,1.12.46,1.52,1.52,0,0,1,.47,1.13V331H70A1.56,1.56,0,0,1,71.16,331.44Z"/><path class="cls-4" d="M86,330.84a6.63,6.63,0,0,1-2.56,2.56,7.52,7.52,0,0,1-7.17,0,6.67,6.67,0,0,1-2.55-2.56,7.95,7.95,0,0,1,0-7.46,6.77,6.77,0,0,1,2.55-2.57,7.37,7.37,0,0,1,7.17,0A6.72,6.72,0,0,1,86,323.38a7.95,7.95,0,0,1,0,7.46Zm-2.72-6a3.91,3.91,0,0,0-1.43-1.55,3.88,3.88,0,0,0-4,0,3.91,3.91,0,0,0-1.43,1.55,4.78,4.78,0,0,0-.53,2.27,4.71,4.71,0,0,0,.53,2.26,4,4,0,0,0,1.43,1.54,3.94,3.94,0,0,0,4,0,4,4,0,0,0,1.43-1.54,4.71,4.71,0,0,0,.53-2.26A4.78,4.78,0,0,0,83.28,324.84Z"/><path class="cls-4" d="M99.85,321.46a8,8,0,0,1,1,4.35v6.66a1.57,1.57,0,0,1-.44,1.13,1.52,1.52,0,0,1-1.12.45,1.5,1.5,0,0,1-1.12-.45,1.53,1.53,0,0,1-.44-1.13v-6.66a3.75,3.75,0,0,0-.6-2.25,2.39,2.39,0,0,0-2.05-.82,3.17,3.17,0,0,0-2.37.87,3,3,0,0,0-.86,2.2v6.66a1.57,1.57,0,0,1-.44,1.13,1.5,1.5,0,0,1-1.12.45,1.52,1.52,0,0,1-1.12-.45,1.57,1.57,0,0,1-.44-1.13V321.73a1.57,1.57,0,0,1,.44-1.13,1.52,1.52,0,0,1,1.12-.46,1.51,1.51,0,0,1,1.12.46,1.57,1.57,0,0,1,.44,1.13v.44a6.39,6.39,0,0,1,1.83-1.61,4.8,4.8,0,0,1,2.49-.68C98,319.88,99.18,320.41,99.85,321.46Z"/><path class="cls-4" d="M115.84,315.26a1.51,1.51,0,0,1,.45,1.14v16.07a1.54,1.54,0,0,1-.45,1.13,1.48,1.48,0,0,1-1.11.45,1.45,1.45,0,0,1-1.11-.44,1.58,1.58,0,0,1-.45-1.12,5.63,5.63,0,0,1-4.09,1.82,5.92,5.92,0,0,1-3.25-.92,6.5,6.5,0,0,1-2.3-2.56,8,8,0,0,1-.84-3.72,8.12,8.12,0,0,1,.83-3.73,6.32,6.32,0,0,1,2.27-2.57,5.8,5.8,0,0,1,3.19-.93,6.28,6.28,0,0,1,4.19,1.62v-5.1a1.53,1.53,0,0,1,.44-1.13,1.59,1.59,0,0,1,2.23,0Zm-3.61,15a5.07,5.07,0,0,0,0-6.23,3.64,3.64,0,0,0-5.49,0,5.13,5.13,0,0,0,0,6.23,3.44,3.44,0,0,0,2.74,1.23A3.48,3.48,0,0,0,112.23,330.22Z"/><path class="cls-4" d="M131.31,330.84a6.5,6.5,0,0,1-2.56,2.56,7.5,7.5,0,0,1-7.16,0,6.6,6.6,0,0,1-2.55-2.56,7.95,7.95,0,0,1,0-7.46,6.7,6.7,0,0,1,2.55-2.57,7.36,7.36,0,0,1,7.16,0,6.59,6.59,0,0,1,2.56,2.57,7.87,7.87,0,0,1,0,7.46Zm-2.71-6a4,4,0,0,0-1.43-1.55,3.88,3.88,0,0,0-4,0,3.84,3.84,0,0,0-1.43,1.55,4.67,4.67,0,0,0-.54,2.27,4.61,4.61,0,0,0,.54,2.26,3.94,3.94,0,0,0,1.43,1.54,3.94,3.94,0,0,0,4,0,4.09,4.09,0,0,0,1.43-1.54,4.71,4.71,0,0,0,.53-2.26A4.78,4.78,0,0,0,128.6,324.84Z"/><path class="cls-4" d="M145.17,321.46a8,8,0,0,1,1,4.35v6.66a1.54,1.54,0,0,1-.45,1.13,1.61,1.61,0,0,1-2.23,0,1.53,1.53,0,0,1-.44-1.13v-6.66a3.75,3.75,0,0,0-.6-2.25,2.41,2.41,0,0,0-2.06-.82,3.16,3.16,0,0,0-2.36.87,3,3,0,0,0-.86,2.2v6.66a1.57,1.57,0,0,1-.44,1.13,1.62,1.62,0,0,1-2.24,0,1.57,1.57,0,0,1-.44-1.13V321.73a1.57,1.57,0,0,1,.44-1.13,1.59,1.59,0,0,1,2.24,0,1.57,1.57,0,0,1,.44,1.13v.44a6.39,6.39,0,0,1,1.83-1.61,4.78,4.78,0,0,1,2.49-.68C143.27,319.88,144.5,320.41,145.17,321.46Z"/><path class="cls-4" d="M301.61,330.67a8.67,8.67,0,0,1-3.16,3.39,8.85,8.85,0,0,1-9.07,0,8.72,8.72,0,0,1-3.15-3.39,10.42,10.42,0,0,1,0-9.44,8.72,8.72,0,0,1,3.15-3.39,8.85,8.85,0,0,1,9.07,0,8.67,8.67,0,0,1,3.16,3.39,10.26,10.26,0,0,1,0,9.44Zm-2.93-7.88a5.77,5.77,0,0,0-1.95-2.25,5.22,5.22,0,0,0-5.63,0,5.51,5.51,0,0,0-1.93,2.25,7.63,7.63,0,0,0,0,6.34,5.39,5.39,0,0,0,1.93,2.25,5.22,5.22,0,0,0,5.63,0,5.63,5.63,0,0,0,1.95-2.25,7.48,7.48,0,0,0,0-6.32Z"/><path class="cls-4" d="M315.81,322.46a7.93,7.93,0,0,1,1,4.35v6.66a1.55,1.55,0,0,1-.44,1.13,1.5,1.5,0,0,1-1.12.45,1.48,1.48,0,0,1-1.11-.45,1.55,1.55,0,0,1-.45-1.13v-6.66a3.83,3.83,0,0,0-.59-2.25,2.41,2.41,0,0,0-2.06-.82,3.16,3.16,0,0,0-2.36.87,3,3,0,0,0-.86,2.2v6.66a1.59,1.59,0,0,1-.44,1.13,1.52,1.52,0,0,1-1.12.45,1.5,1.5,0,0,1-1.12-.45,1.55,1.55,0,0,1-.44-1.13V322.73a1.53,1.53,0,0,1,.44-1.13,1.47,1.47,0,0,1,1.12-.46,1.49,1.49,0,0,1,1.12.46,1.57,1.57,0,0,1,.44,1.13v.44a6.39,6.39,0,0,1,1.83-1.61,4.74,4.74,0,0,1,2.48-.68C313.91,320.88,315.13,321.41,315.81,322.46Z"/><path class="cls-4" d="M326.79,332.47a1.36,1.36,0,0,1,.3.92,1.38,1.38,0,0,1-.76,1.18,3.22,3.22,0,0,1-1.73.48,5,5,0,0,1-2.72-.69c-.74-.46-1.1-1.43-1.1-2.92v-7.18h-1.2a1.43,1.43,0,0,1-1-.41,1.42,1.42,0,0,1-.42-1,1.31,1.31,0,0,1,.42-1,1.43,1.43,0,0,1,1-.41h1.2v-1.66a1.54,1.54,0,0,1,.45-1.13,1.51,1.51,0,0,1,1.13-.46,1.44,1.44,0,0,1,1.09.46,1.54,1.54,0,0,1,.45,1.13v1.66h1.84a1.43,1.43,0,0,1,1.46,1.46,1.33,1.33,0,0,1-.42,1,1.43,1.43,0,0,1-1,.4H323.9v7.05a1,1,0,0,0,.28.79,1.13,1.13,0,0,0,.78.25,2.22,2.22,0,0,0,.57-.11,1.71,1.71,0,0,1,.6-.13A.86.86,0,0,1,326.79,332.47Z"/><path class="cls-4" d="M341.65,321.32a1.55,1.55,0,0,1,.45,1.15v11a1.55,1.55,0,0,1-.45,1.13,1.48,1.48,0,0,1-1.11.45,1.45,1.45,0,0,1-1.11-.44,1.58,1.58,0,0,1-.45-1.12,5.63,5.63,0,0,1-4.09,1.82,6,6,0,0,1-3.25-.92,6.57,6.57,0,0,1-2.3-2.56,8.73,8.73,0,0,1,0-7.45,6.32,6.32,0,0,1,2.27-2.57,5.8,5.8,0,0,1,3.19-.93,5.92,5.92,0,0,1,2.34.46,6.32,6.32,0,0,1,1.85,1.15v0a1.53,1.53,0,0,1,.44-1.13,1.46,1.46,0,0,1,1.12-.46A1.51,1.51,0,0,1,341.65,321.32Zm-3.61,9.9a5.07,5.07,0,0,0,0-6.23,3.64,3.64,0,0,0-5.49,0,5.13,5.13,0,0,0,0,6.23,3.44,3.44,0,0,0,2.74,1.23A3.48,3.48,0,0,0,338,331.22Z"/><path class="cls-4" d="M353.24,321.32a1.35,1.35,0,0,1,.53,1,1.6,1.6,0,0,1-.42,1.21,1.35,1.35,0,0,1-1,.41,2.41,2.41,0,0,1-.88-.19l-.35-.1a2.21,2.21,0,0,0-.59-.08,2.25,2.25,0,0,0-1.29.42,3.06,3.06,0,0,0-1,1.26,4.59,4.59,0,0,0-.41,2v6.17a1.55,1.55,0,0,1-.44,1.13,1.61,1.61,0,0,1-2.23,0,1.55,1.55,0,0,1-.45-1.13V322.73a1.54,1.54,0,0,1,.45-1.13,1.58,1.58,0,0,1,2.23,0,1.53,1.53,0,0,1,.44,1.13v.34a4,4,0,0,1,1.72-1.63,5.32,5.32,0,0,1,2.39-.56A2,2,0,0,1,353.24,321.32Z"/><path class="cls-4" d="M355.3,319.17a1.24,1.24,0,0,1-.36-1v-.49a1.18,1.18,0,0,1,.39-1,3,3,0,0,1,2.52,0,1.24,1.24,0,0,1,.36,1v.49a1.19,1.19,0,0,1-.37,1,2.29,2.29,0,0,1-1.29.27A2.1,2.1,0,0,1,355.3,319.17Zm2.39,15.43a1.48,1.48,0,0,1-1.11.45,1.5,1.5,0,0,1-1.12-.45,1.55,1.55,0,0,1-.44-1.13V322.73a1.53,1.53,0,0,1,.44-1.13,1.47,1.47,0,0,1,1.12-.46,1.45,1.45,0,0,1,1.11.46,1.54,1.54,0,0,1,.45,1.13v10.74A1.55,1.55,0,0,1,357.69,334.6Z"/><path class="cls-4" d="M373,331.84a6.56,6.56,0,0,1-2.56,2.56,7.5,7.5,0,0,1-7.16,0,6.54,6.54,0,0,1-2.55-2.56,7.87,7.87,0,0,1,0-7.46,6.63,6.63,0,0,1,2.55-2.57,7.36,7.36,0,0,1,7.16,0,6.66,6.66,0,0,1,2.56,2.57,7.87,7.87,0,0,1,0,7.46Zm-2.71-6a4,4,0,0,0-1.43-1.55,3.73,3.73,0,0,0-2-.55,3.68,3.68,0,0,0-2,.55,3.84,3.84,0,0,0-1.43,1.55,5,5,0,0,0,0,4.53,3.94,3.94,0,0,0,1.43,1.54,3.76,3.76,0,0,0,2,.54,3.81,3.81,0,0,0,2-.54,4.09,4.09,0,0,0,1.43-1.54,5.1,5.1,0,0,0,0-4.53Z"/><path class="cls-4" d="M208.13,14a2.42,2.42,0,0,1,.68,1.74V24.2a2.4,2.4,0,0,1-1.24,2.16A15.92,15.92,0,0,1,199,28.8a14.42,14.42,0,0,1-7.32-1.94,14.53,14.53,0,0,1-5.32-5.24,13.86,13.86,0,0,1-2-7.22,13.86,13.86,0,0,1,2-7.22,14.53,14.53,0,0,1,5.32-5.24A14.42,14.42,0,0,1,199,0a14.07,14.07,0,0,1,6.88,1.6,2.16,2.16,0,0,1,.9.84,2.21,2.21,0,0,1,.3,1.12,2.52,2.52,0,0,1-.66,1.74,2.1,2.1,0,0,1-1.62.74,3.34,3.34,0,0,1-1.32-.32A11.37,11.37,0,0,0,199,4.8a9,9,0,0,0-4.72,1.3,9.64,9.64,0,0,0-4.68,8.3,9.64,9.64,0,0,0,4.68,8.3A9,9,0,0,0,199,24a16,16,0,0,0,2.4-.2,14,14,0,0,0,2.24-.52v-5.2h-3.76a2.42,2.42,0,0,1-1.74-.68,2.46,2.46,0,0,1,0-3.44,2.42,2.42,0,0,1,1.74-.68h6.56A2.28,2.28,0,0,1,208.13,14Z"/><path class="cls-4" d="M230.07,2.26a11.85,11.85,0,0,1,4.12,5,17.18,17.18,0,0,1,1.42,7.1,17.18,17.18,0,0,1-1.42,7.1,11.85,11.85,0,0,1-4.12,5,11.1,11.1,0,0,1-6.46,1.86h-9.56A2.39,2.39,0,0,1,211.61,26V2.84A2.39,2.39,0,0,1,214.05.4h9.56A11.1,11.1,0,0,1,230.07,2.26Zm-1.46,18.88a11.77,11.77,0,0,0,1.8-6.74,11.69,11.69,0,0,0-1.82-6.74A6.1,6.1,0,0,0,223.21,5h-6.6V23.8h6.6A6.09,6.09,0,0,0,228.61,21.14Z"/><path class="cls-4" d="M253.65,1.62a9.12,9.12,0,0,1,3,3.28,9.21,9.21,0,0,1,1.12,4.5,9.28,9.28,0,0,1-1.12,4.48,9,9,0,0,1-3,3.3,6.94,6.94,0,0,1-3.88,1.22h-7V26a2.44,2.44,0,0,1-.64,1.76,2.22,2.22,0,0,1-1.68.68,2.11,2.11,0,0,1-1.64-.7,2.48,2.48,0,0,1-.64-1.74V2.84a2.36,2.36,0,0,1,.7-1.74,2.33,2.33,0,0,1,1.74-.7h9.12A6.94,6.94,0,0,1,253.65,1.62ZM251.27,13.2a4.83,4.83,0,0,0,1.2-1.66,5.21,5.21,0,0,0,0-4.28,4.57,4.57,0,0,0-1.2-1.64,2.34,2.34,0,0,0-1.5-.62h-7v8.84h7A2.26,2.26,0,0,0,251.27,13.2Z"/><path class="cls-4" d="M211.73,54.52a1.09,1.09,0,0,1,.32.8,1,1,0,0,1-.32.77,1.09,1.09,0,0,1-.8.31h-6.8a1.08,1.08,0,0,1-.82-.32,1.15,1.15,0,0,1-.3-.82,1.24,1.24,0,0,1,.36-.88l4.36-4.66a7.89,7.89,0,0,0,1.17-1.61,3.19,3.19,0,0,0,.43-1.49,2.15,2.15,0,0,0-.64-1.56,2,2,0,0,0-1.48-.66,2.1,2.1,0,0,0-1.17.39,4.33,4.33,0,0,0-1.07,1,1.11,1.11,0,0,1-.92.48,1.17,1.17,0,0,1-.81-.34,1,1,0,0,1-.37-.76,1.16,1.16,0,0,1,.2-.61,4.19,4.19,0,0,1,.6-.71,6,6,0,0,1,1.76-1.22,4.56,4.56,0,0,1,1.92-.46,4.71,4.71,0,0,1,2.32.56,3.87,3.87,0,0,1,1.54,1.54,4.5,4.5,0,0,1,.54,2.22A5.62,5.62,0,0,1,211.1,49a10.75,10.75,0,0,1-1.75,2.47l-2.54,2.7h4.12A1.09,1.09,0,0,1,211.73,54.52Z"/><path class="cls-4" d="M214.9,55.7a5.42,5.42,0,0,1-1.83-2.53,11.77,11.77,0,0,1,0-7.54,5.42,5.42,0,0,1,1.83-2.53,5.09,5.09,0,0,1,5.78,0,5.42,5.42,0,0,1,1.83,2.53,11.77,11.77,0,0,1,0,7.54,5.42,5.42,0,0,1-1.83,2.53,5.09,5.09,0,0,1-5.78,0ZM219.8,53a7,7,0,0,0,.73-3.58,7,7,0,0,0-.73-3.58,2.27,2.27,0,0,0-4,0,7,7,0,0,0-.73,3.58,7,7,0,0,0,.73,3.58,2.27,2.27,0,0,0,4,0Z"/><path class="cls-4" d="M228.37,42.75a1.18,1.18,0,0,1,.34.87V55.18a1.14,1.14,0,0,1-.38.87,1.35,1.35,0,0,1-.94.35,1.28,1.28,0,0,1-.92-.35,1.15,1.15,0,0,1-.36-.87V45.7l-1.24.76a1.21,1.21,0,0,1-.64.18,1.12,1.12,0,0,1-.85-.38,1.22,1.22,0,0,1-.35-.84,1.22,1.22,0,0,1,.62-1l3-1.8a1.83,1.83,0,0,1,.86-.18A1.15,1.15,0,0,1,228.37,42.75Z"/><path class="cls-4" d="M237.08,48a5.07,5.07,0,0,1,1.65,1.7,4.37,4.37,0,0,1,.64,2.31,4.5,4.5,0,0,1-.63,2.33,4.62,4.62,0,0,1-4,2.31,4.16,4.16,0,0,1-2.46-.77,5.06,5.06,0,0,1-1.66-2,6.2,6.2,0,0,1-.58-2.67,11.59,11.59,0,0,1,.51-3.21,8.8,8.8,0,0,1,1.86-3.31,7.36,7.36,0,0,1,3.67-2.22,1.88,1.88,0,0,1,.46-.06,1.34,1.34,0,0,1,.86.27,1,1,0,0,1,.34.85,1.15,1.15,0,0,1-.29.77,1.55,1.55,0,0,1-.77.47A6.16,6.16,0,0,0,234.32,46a5.51,5.51,0,0,0-1.57,2.2,3.43,3.43,0,0,1,2.28-.86A3.84,3.84,0,0,1,237.08,48Zm-.77,5.75a2.62,2.62,0,0,0,0-3.48,2.19,2.19,0,0,0-3.21,0,2.65,2.65,0,0,0,0,3.48,2.19,2.19,0,0,0,3.21,0Z"/><path class="cls-2" d="M283.28,168.31h87.95a7,7,0,0,1,7,7v133.2a0,0,0,0,1,0,0H276.28a0,0,0,0,1,0,0V175.31A7,7,0,0,1,283.28,168.31Z"/><path class="cls-3" d="M308.84,182.88a2.15,2.15,0,0,1,.61,1.57v20.8a2.06,2.06,0,0,1-.68,1.57,2.41,2.41,0,0,1-1.69.63,2.29,2.29,0,0,1-1.66-.63,2.1,2.1,0,0,1-.65-1.57V188.19l-2.23,1.37a2.24,2.24,0,0,1-1.15.32,2,2,0,0,1-1.53-.68,2.19,2.19,0,0,1-.63-1.51,2,2,0,0,1,.31-1.08,2.22,2.22,0,0,1,.81-.8l5.43-3.24a3.36,3.36,0,0,1,1.55-.32A2,2,0,0,1,308.84,182.88Z"/><path class="cls-3" d="M313,206.86a2.2,2.2,0,0,1-.56-1.61v-.61a2,2,0,0,1,2.16-2.16h.47a2,2,0,0,1,2.16,2.16v.61a2.2,2.2,0,0,1-.56,1.61,2.16,2.16,0,0,1-1.6.55h-.47A2.17,2.17,0,0,1,313,206.86Z"/><path class="cls-3" d="M339.55,197.23a2,2,0,0,1,.57,1.44,1.85,1.85,0,0,1-.57,1.38,2,2,0,0,1-1.44.56H336.6v4.64a2.15,2.15,0,0,1-2.2,2.2,2,2,0,0,1-1.51-.63,2.15,2.15,0,0,1-.61-1.57v-4.64h-9.36a2.16,2.16,0,0,1-1.48-.63,2,2,0,0,1-.68-1.49,2.19,2.19,0,0,1,.54-1.44l11.37-13.94a2.21,2.21,0,0,1,1.8-.86,2,2,0,0,1,1.51.63,2.16,2.16,0,0,1,.62,1.57v12.2h1.51A2,2,0,0,1,339.55,197.23Zm-13.1-.58h5.83v-7.2Z"/><path class="cls-3" d="M344.16,194.12a4.67,4.67,0,0,1-1.58-1.89,6.13,6.13,0,0,1-.56-2.66,6.23,6.23,0,0,1,.56-2.69,4.56,4.56,0,0,1,1.57-1.88,4.16,4.16,0,0,1,4.59,0,4.51,4.51,0,0,1,1.55,1.88,6.37,6.37,0,0,1,.55,2.69,6,6,0,0,1-.58,2.66,4.62,4.62,0,0,1-1.59,1.89,3.87,3.87,0,0,1-2.23.69A4,4,0,0,1,344.16,194.12Zm3.52-2.51a4,4,0,0,0,.46-2,4.1,4.1,0,0,0-.44-2,1.4,1.4,0,0,0-2.51,0,3.9,3.9,0,0,0-.48,2,4.11,4.11,0,0,0,.46,2,1.42,1.42,0,0,0,1.27.8A1.39,1.39,0,0,0,347.68,191.61Zm-1.86,11.51a1.18,1.18,0,0,1-.46-.94,1.68,1.68,0,0,1,.27-.81l10.75-16.23a1.37,1.37,0,0,1,1.11-.64,1.48,1.48,0,0,1,.94.37,1.18,1.18,0,0,1,.46.95,1.68,1.68,0,0,1-.27.81l-10.75,16.23a1.37,1.37,0,0,1-1.1.64A1.44,1.44,0,0,1,345.82,203.12Zm10-.09a4.82,4.82,0,0,1-1.61-1.89,6,6,0,0,1-.59-2.66,6.38,6.38,0,0,1,.56-2.69,4.56,4.56,0,0,1,1.57-1.88,4.16,4.16,0,0,1,4.59,0,4.44,4.44,0,0,1,1.55,1.88,6.38,6.38,0,0,1,.56,2.69,6.14,6.14,0,0,1-.58,2.66,4.72,4.72,0,0,1-1.6,1.89,3.93,3.93,0,0,1-4.45,0Zm3.47-2.51a4.82,4.82,0,0,0,0-4.09,1.38,1.38,0,0,0-1.25-.78,1.42,1.42,0,0,0-1.26.79,4.71,4.71,0,0,0,0,4.08,1.38,1.38,0,0,0,2.51,0Z"/><path class="cls-3" d="M205.69,143.06a2,2,0,0,1,.58,1.44,1.86,1.86,0,0,1-.58,1.38,1.94,1.94,0,0,1-1.44.56H192a2,2,0,0,1-1.48-.57,2.14,2.14,0,0,1-.54-1.48,2.22,2.22,0,0,1,.65-1.58l7.85-8.39a14.08,14.08,0,0,0,2.11-2.9,5.86,5.86,0,0,0,.77-2.68,3.89,3.89,0,0,0-1.15-2.81,3.62,3.62,0,0,0-2.66-1.19,3.87,3.87,0,0,0-2.11.7,7.87,7.87,0,0,0-1.93,1.86,2,2,0,0,1-1.65.86,2.1,2.1,0,0,1-1.46-.61,1.81,1.81,0,0,1-.67-1.37,2,2,0,0,1,.36-1.1,8.23,8.23,0,0,1,1.08-1.27,10.79,10.79,0,0,1,3.17-2.2,8.29,8.29,0,0,1,3.46-.83,8.41,8.41,0,0,1,4.17,1,7.05,7.05,0,0,1,2.78,2.77,8.25,8.25,0,0,1,1,4,10,10,0,0,1-1.17,4.52,19.24,19.24,0,0,1-3.15,4.44l-4.57,4.86h7.41A1.92,1.92,0,0,1,205.69,143.06Z"/><path class="cls-3" d="M208.19,145.85a2.17,2.17,0,0,1-.55-1.6v-.62a1.94,1.94,0,0,1,2.16-2.16h.46a2.16,2.16,0,0,1,1.6.56,2.14,2.14,0,0,1,.56,1.6v.62a2.14,2.14,0,0,1-.56,1.6,2.16,2.16,0,0,1-1.6.56h-.46A2.19,2.19,0,0,1,208.19,145.85Z"/><path class="cls-3" d="M226.88,131.23a9.07,9.07,0,0,1,3,3.06,8.18,8.18,0,0,1,0,8.35,8.39,8.39,0,0,1-3,3.05,8.2,8.2,0,0,1-4.21,1.11,7.47,7.47,0,0,1-4.43-1.38,9.2,9.2,0,0,1-3-3.64,11.36,11.36,0,0,1-1-4.81,20.83,20.83,0,0,1,.92-5.77,15.86,15.86,0,0,1,3.35-6,13.28,13.28,0,0,1,6.6-4,3.58,3.58,0,0,1,.83-.11,2.45,2.45,0,0,1,1.55.49,1.82,1.82,0,0,1,.61,1.53,2,2,0,0,1-.52,1.39,2.92,2.92,0,0,1-1.39.84,10.93,10.93,0,0,0-4.19,2.31,9.82,9.82,0,0,0-2.83,4,6.09,6.09,0,0,1,4.11-1.55A7,7,0,0,1,226.88,131.23Zm-1.39,10.35a4.71,4.71,0,0,0,0-6.26,3.94,3.94,0,0,0-5.78,0,4.77,4.77,0,0,0,0,6.26,3.94,3.94,0,0,0,5.78,0Z"/><path class="cls-3" d="M233.6,133.11a4.52,4.52,0,0,1-1.58-1.89,6.54,6.54,0,0,1,0-5.34,4.63,4.63,0,0,1,1.56-1.89,4.16,4.16,0,0,1,4.59,0,4.53,4.53,0,0,1,1.55,1.89,6.3,6.3,0,0,1,.56,2.68,6.1,6.1,0,0,1-.58,2.66,4.72,4.72,0,0,1-1.6,1.89,3.84,3.84,0,0,1-2.22.69A3.93,3.93,0,0,1,233.6,133.11Zm3.52-2.51a4.82,4.82,0,0,0,0-4.09,1.38,1.38,0,0,0-1.25-.78,1.43,1.43,0,0,0-1.26.8,4.69,4.69,0,0,0,0,4.07,1.38,1.38,0,0,0,2.51,0Zm-1.86,11.52a1.17,1.17,0,0,1-.46-1,1.68,1.68,0,0,1,.27-.81l10.74-16.22a1.38,1.38,0,0,1,1.11-.65,1.42,1.42,0,0,1,.94.38,1.15,1.15,0,0,1,.46.94,1.61,1.61,0,0,1-.27.81l-10.74,16.23a1.41,1.41,0,0,1-1.11.65A1.47,1.47,0,0,1,235.26,142.12Zm10-.1a4.73,4.73,0,0,1-1.6-1.89,5.84,5.84,0,0,1-.6-2.66,6.16,6.16,0,0,1,.57-2.68,4.71,4.71,0,0,1,1.56-1.89,4,4,0,0,1,2.3-.69,3.92,3.92,0,0,1,2.29.69,4.55,4.55,0,0,1,1.56,1.89,6.3,6.3,0,0,1,.55,2.68,6,6,0,0,1-.58,2.66,4.71,4.71,0,0,1-1.59,1.89,3.95,3.95,0,0,1-4.46,0Zm3.47-2.51a4,4,0,0,0,.46-2,4.21,4.21,0,0,0-.44-2.05,1.39,1.39,0,0,0-1.26-.78,1.44,1.44,0,0,0-1.26.8,4.69,4.69,0,0,0,0,4.07,1.42,1.42,0,0,0,1.27.8A1.4,1.4,0,0,0,248.7,139.51Z"/><path class="cls-4" d="M184.56,321.07a1.79,1.79,0,0,1-.39,1.07,1.29,1.29,0,0,1-1.07.54,2,2,0,0,1-.88-.23,6.4,6.4,0,0,0-2.76-.6,6.23,6.23,0,0,0-3.17.77,5.25,5.25,0,0,0-2.08,2.15,6.85,6.85,0,0,0-.73,3.19,6.12,6.12,0,0,0,1.66,4.65,6.66,6.66,0,0,0,7.08,1,2.07,2.07,0,0,1,.83-.21,1.45,1.45,0,0,1,1.15.57,1.7,1.7,0,0,1,.39,1.07,1.43,1.43,0,0,1-.21.76,1.46,1.46,0,0,1-.6.52,9.59,9.59,0,0,1-4.32,1,10.26,10.26,0,0,1-4.68-1.08,8.32,8.32,0,0,1-3.4-3.18,9.7,9.7,0,0,1-1.28-5.1,9.44,9.44,0,0,1,1.21-4.76,8.65,8.65,0,0,1,3.34-3.29,9.77,9.77,0,0,1,4.81-1.18,9.29,9.29,0,0,1,4.29,1A1.4,1.4,0,0,1,184.56,321.07Z"/><path class="cls-4" d="M198.65,323.33a1.54,1.54,0,0,1,.44,1.15v11a1.53,1.53,0,0,1-.44,1.13,1.59,1.59,0,0,1-2.22,0,1.65,1.65,0,0,1-.46-1.12,5.58,5.58,0,0,1-4.08,1.82,6,6,0,0,1-3.25-.92,6.45,6.45,0,0,1-2.3-2.57,8.7,8.7,0,0,1,0-7.44,6.41,6.41,0,0,1,2.27-2.58,5.87,5.87,0,0,1,3.19-.92A6.15,6.15,0,0,1,196,324.5v0a1.56,1.56,0,0,1,.45-1.14,1.48,1.48,0,0,1,1.11-.45A1.53,1.53,0,0,1,198.65,323.33ZM195,333.22a4.56,4.56,0,0,0,1.06-3.1A4.63,4.63,0,0,0,195,327a3.64,3.64,0,0,0-5.49,0,5.11,5.11,0,0,0,0,6.22,3.42,3.42,0,0,0,2.74,1.24A3.46,3.46,0,0,0,195,333.22Z"/><path class="cls-4" d="M212.8,324.46a8.06,8.06,0,0,1,1,4.36v6.65a1.57,1.57,0,0,1-.44,1.13,1.59,1.59,0,0,1-2.24,0,1.57,1.57,0,0,1-.44-1.13v-6.65a3.71,3.71,0,0,0-.6-2.25,2.36,2.36,0,0,0-2.05-.82,3.17,3.17,0,0,0-2.37.87,3,3,0,0,0-.86,2.2v6.65a1.53,1.53,0,0,1-.44,1.13,1.47,1.47,0,0,1-1.12.46,1.45,1.45,0,0,1-1.11-.46,1.54,1.54,0,0,1-.45-1.13V324.73a1.55,1.55,0,0,1,.45-1.13,1.48,1.48,0,0,1,1.11-.45,1.5,1.5,0,0,1,1.12.45,1.55,1.55,0,0,1,.44,1.13v.45a6.33,6.33,0,0,1,1.84-1.62,4.73,4.73,0,0,1,2.48-.67C210.9,322.89,212.12,323.41,212.8,324.46Z"/><path class="cls-4" d="M228.79,323.33a1.58,1.58,0,0,1,.44,1.15v11a1.57,1.57,0,0,1-.44,1.13,1.49,1.49,0,0,1-1.12.46,1.51,1.51,0,0,1-1.11-.44,1.64,1.64,0,0,1-.45-1.12,5.51,5.51,0,0,1-1.76,1.29,5.33,5.33,0,0,1-2.32.53,6,6,0,0,1-3.25-.92,6.48,6.48,0,0,1-2.31-2.57,8,8,0,0,1-.84-3.71,8.22,8.22,0,0,1,.83-3.73,6.44,6.44,0,0,1,2.28-2.58,5.81,5.81,0,0,1,3.18-.92,6.1,6.1,0,0,1,2.34.45,6.34,6.34,0,0,1,1.85,1.16v0a1.55,1.55,0,0,1,.44-1.14,1.5,1.5,0,0,1,1.12-.45A1.55,1.55,0,0,1,228.79,323.33Zm-3.62,9.89a4.56,4.56,0,0,0,1.07-3.1,4.63,4.63,0,0,0-1.07-3.12,3.63,3.63,0,0,0-5.48,0,5.09,5.09,0,0,0,0,6.22,3.67,3.67,0,0,0,5.5,0Z"/><path class="cls-4" d="M244.2,318.26a1.54,1.54,0,0,1,.44,1.15v16.06a1.53,1.53,0,0,1-.44,1.13,1.45,1.45,0,0,1-1.11.46,1.49,1.49,0,0,1-1.11-.44,1.6,1.6,0,0,1-.45-1.12,5.51,5.51,0,0,1-1.76,1.29,5.37,5.37,0,0,1-2.33.53,6,6,0,0,1-3.25-.92,6.45,6.45,0,0,1-2.3-2.57,8.7,8.7,0,0,1,0-7.44,6.41,6.41,0,0,1,2.27-2.58,5.87,5.87,0,0,1,3.19-.92,6.1,6.1,0,0,1,2.34.45,6.34,6.34,0,0,1,1.85,1.16v-5.09a1.55,1.55,0,0,1,.44-1.14,1.48,1.48,0,0,1,1.12-.45A1.51,1.51,0,0,1,244.2,318.26Zm-3.61,15a4.56,4.56,0,0,0,1.07-3.1,4.63,4.63,0,0,0-1.07-3.12,3.64,3.64,0,0,0-5.49,0,5.11,5.11,0,0,0,0,6.22,3.42,3.42,0,0,0,2.74,1.24A3.46,3.46,0,0,0,240.59,333.22Z"/><path class="cls-4" d="M259.62,323.33a1.54,1.54,0,0,1,.44,1.15v11a1.53,1.53,0,0,1-.44,1.13,1.59,1.59,0,0,1-2.22,0,1.65,1.65,0,0,1-.46-1.12,5.46,5.46,0,0,1-1.75,1.29,5.37,5.37,0,0,1-2.33.53,6,6,0,0,1-3.25-.92,6.45,6.45,0,0,1-2.3-2.57,8.7,8.7,0,0,1,0-7.44,6.41,6.41,0,0,1,2.27-2.58,5.85,5.85,0,0,1,3.19-.92,6.15,6.15,0,0,1,4.18,1.61v0a1.56,1.56,0,0,1,.45-1.14,1.48,1.48,0,0,1,1.11-.45A1.53,1.53,0,0,1,259.62,323.33ZM256,333.22a4.56,4.56,0,0,0,1.06-3.1A4.63,4.63,0,0,0,256,327a3.64,3.64,0,0,0-5.49,0,5.07,5.07,0,0,0,0,6.22,3.4,3.4,0,0,0,2.74,1.24A3.46,3.46,0,0,0,256,333.22Z"/><path class="cls-1" d="M11.89,118.27h0a1.56,1.56,0,0,0-.5-.29,1,1,0,0,0-.16-.06,2.14,2.14,0,0,0-.44-.08h-.25a1.71,1.71,0,0,0-.51.1l0,0a1.72,1.72,0,0,0-.48.26l-.06,0L.52,125.81a1.37,1.37,0,0,0,0,2.13,1.93,1.93,0,0,0,2.45,0l4.81-4.08A39,39,0,0,0,8.28,136c3.28,18.09,20,30.9,37.24,28.54A1.58,1.58,0,0,0,47,163a1.64,1.64,0,0,0,0-.23,1.73,1.73,0,0,0-2-1.26c-15.38,2.1-30.31-9.58-33.3-26.09a36.76,36.76,0,0,1-.42-11.83l3.74,6.3a1.86,1.86,0,0,0,2.33.65,1.41,1.41,0,0,0,.74-2l-5.89-9.92A1.31,1.31,0,0,0,11.89,118.27Z"/><path class="cls-1" d="M405,233.36l-3.88,6.54a.92.92,0,0,0,.49,1.33,1.24,1.24,0,0,0,1.54-.42l2.46-4.15a24.09,24.09,0,0,1-.28,7.8c-2,10.88-11.81,18.58-22,17.2a1.12,1.12,0,0,0-1.3.82.88.88,0,0,0,0,.16,1,1,0,0,0,1,1c11.38,1.56,22.39-6.89,24.55-18.81a26,26,0,0,0,.35-8l3.17,2.69a1.25,1.25,0,0,0,1.61,0,.9.9,0,0,0,0-1.4l-5.88-5,0,0a1.33,1.33,0,0,0-.31-.18h0a1.21,1.21,0,0,0-.33-.07h-.17a1.5,1.5,0,0,0-.29.06l-.1,0a1,1,0,0,0-.33.2h0A1.16,1.16,0,0,0,405,233.36Z"/><rect class="cls-1" x="18.47" y="302.75" width="405.95" height="6.1" rx="2.15" ry="2.15"/></g></g></svg>