<svg xmlns="http://www.w3.org/2000/svg" viewBox="0 0 56.65 75.02"><defs><style>.cls-1{fill:#e2b300;}</style></defs><title>Asset 16</title><g id="Layer_2" data-name="Layer 2"><g id="Education"><path class="cls-1" d="M50.76,6.77V0H8.49C4.27,0,0,1.3,0,4.2V62.81c0,4.83.66,8.44,3.91,10.31C6.7,74.72,11.19,75,19,75H56.65V6.77ZM44.47,40.9H42.55c.45.75,1.27,2.25.92,2.52l-.08.06h-.11a7.9,7.9,0,0,1-3.35-2.58H32v5.33H20.16c0,.06-.45.41-.49.47a7.92,7.92,0,0,1-3.16,2.51,9.45,9.45,0,0,1,1.52-3H15.62V38.47H27.51V32.58h17ZM47.84,6.77H8.49a9.89,9.89,0,0,1-5.05-1V4.47a9.74,9.74,0,0,1,5.05-1H47.84Z"/><path class="cls-1" d="M32,40.34h8.16l.08.08a.73.73,0,0,1,.11.13,7.63,7.63,0,0,0,2.49,2.15,15,15,0,0,0-1-1.93l-.29-.43h2.37v-7.2H28.06v5.33h4Z"/></g></g></svg>