<svg xmlns="http://www.w3.org/2000/svg" viewBox="0 0 63.68 72.99"><defs><style>.cls-1{fill:#e2b300;}</style></defs><title>Asset 8</title><g id="Layer_2" data-name="Layer 2"><g id="Education"><path class="cls-1" d="M63,9.34a2.29,2.29,0,0,0-1.67-.71,6.3,6.3,0,0,0-2,.78c-1,.52-2.12,1.1-3.27,1.75a23.92,23.92,0,0,1-4.09,1.75,14,14,0,0,1-4.37.78A7.22,7.22,0,0,1,44.27,13a66.93,66.93,0,0,0-8.15-3.27,24.78,24.78,0,0,0-7.44-1.08q-6.87,0-15.65,4.46c-1.21.61-2.08,1.07-2.64,1.41l-.55-4.07a5.95,5.95,0,1,0-7,.58l8,59a3.5,3.5,0,0,0,3.46,3l.48,0a3.51,3.51,0,0,0,3-4L14.59,45.33Q23.4,41,29.8,41a17.36,17.36,0,0,1,5.3.82,23.45,23.45,0,0,1,4.29,1.78,24.4,24.4,0,0,0,4,1.78,13.65,13.65,0,0,0,4.59.82q5.73,0,13.72-4.31a5.59,5.59,0,0,0,1.47-1,2.05,2.05,0,0,0,.47-1.43V11A2.29,2.29,0,0,0,63,9.34Z"/></g></g></svg>