<svg xmlns="http://www.w3.org/2000/svg" viewBox="0 0 54.74 75.93"><defs><style>.cls-1{fill:#e2b300;}</style></defs><title>Asset 13</title><g id="Layer_2" data-name="Layer 2"><g id="Education"><path class="cls-1" d="M3.53,0A3.53,3.53,0,0,0,0,3.53V72.4a3.53,3.53,0,0,0,3.53,3.53H51.21a3.52,3.52,0,0,0,3.53-3.53V3.53A3.52,3.52,0,0,0,51.21,0ZM27.37,5.3a22.07,22.07,0,0,1,.69,44.12c-.22,0-.46,0-.69,0l-.69,0A22.07,22.07,0,0,1,27.37,5.3ZM25.6,9.41a10,10,0,0,0-3.5,4.36,22.25,22.25,0,0,0-1.16,3H25.6Zm3.54,0v7.37H33.8a22.25,22.25,0,0,0-1.16-3A10,10,0,0,0,29.14,9.41Zm-9.19,1a18.45,18.45,0,0,0-7.78,6.41h5.07a28.27,28.27,0,0,1,1.66-4.53A21.21,21.21,0,0,1,20,10.37Zm14.84,0a21.21,21.21,0,0,1,1.05,1.88,27.34,27.34,0,0,1,1.66,4.53h5.07A18.45,18.45,0,0,0,34.79,10.37ZM10.24,20.31A18.27,18.27,0,0,0,8.91,25.6h7a42.14,42.14,0,0,1,.52-5.29Zm9.85,0a36.2,36.2,0,0,0-.61,5.29H25.6V20.31Zm9.05,0V25.6h6.12a36.2,36.2,0,0,0-.61-5.29Zm9.13,0a42.14,42.14,0,0,1,.52,5.29h7a18.27,18.27,0,0,0-1.33-5.29ZM8.91,29.14a18.35,18.35,0,0,0,1.33,5.29h6.23A42,42,0,0,1,16,29.14Zm10.57,0a36.2,36.2,0,0,0,.61,5.29H25.6V29.14Zm9.66,0v5.29h5.51a36.2,36.2,0,0,0,.61-5.29Zm9.65,0a42,42,0,0,1-.52,5.29H44.5a18.35,18.35,0,0,0,1.33-5.29ZM12.17,38A18.45,18.45,0,0,0,20,44.37a19,19,0,0,1-1.05-1.88A28.27,28.27,0,0,1,17.24,38Zm8.77,0a21.3,21.3,0,0,0,1.16,3,10.18,10.18,0,0,0,3.5,4.42V38Zm8.2,0v7.4a10.18,10.18,0,0,0,3.5-4.42,21.3,21.3,0,0,0,1.16-3Zm8.36,0a28.27,28.27,0,0,1-1.66,4.53,19,19,0,0,1-1.05,1.88A18.45,18.45,0,0,0,42.57,38ZM9.71,56.51H45A1.77,1.77,0,0,1,45,60H9.71a1.77,1.77,0,0,1,0-3.53Zm0,8.83H45a1.77,1.77,0,0,1,0,3.53H9.71a1.77,1.77,0,0,1,0-3.53Z"/></g></g></svg>