<svg xmlns="http://www.w3.org/2000/svg" viewBox="0 0 78.76 78.76"><defs><style>.cls-1{fill:#e2b300;}</style></defs><title>Asset 5</title><g id="Layer_2" data-name="Layer 2"><g id="Education"><path class="cls-1" d="M76.79,70.88h-2V27.57a3.72,3.72,0,0,0-3.94-3.94V19.69A3.72,3.72,0,0,0,67,15.75H57.1L39.38,0,19.69,15.75H11.81a3.72,3.72,0,0,0-3.93,3.94v3.94a3.72,3.72,0,0,0-3.94,3.94V70.88H2a1.86,1.86,0,0,0-2,2v3.94a1.86,1.86,0,0,0,2,2H76.79a1.86,1.86,0,0,0,2-2V72.85A1.86,1.86,0,0,0,76.79,70.88ZM38.2,7.88a3.72,3.72,0,0,1,3.94,3.93,3.72,3.72,0,0,1-3.94,3.94,3.94,3.94,0,0,1-3.94-3.94A3.72,3.72,0,0,1,38.2,7.88ZM23.63,63H11.81V51.19H23.63Zm0-19.69H11.81V31.5H23.63ZM47.26,70.88H31.5V59.07a7.88,7.88,0,1,1,15.76,0Zm0-27.56H31.5V31.5H47.26ZM67,63H55.13V51.19H67Zm0-19.69H55.13V31.5H67Z"/></g></g></svg>