<svg xmlns="http://www.w3.org/2000/svg" viewBox="0 0 41.92 75.48"><defs><style>.cls-1{fill:#e2b300;}</style></defs><title>Asset 15</title><g id="Layer_2" data-name="Layer 2"><g id="Education"><path class="cls-1" d="M21,0A20.88,20.88,0,0,0,3.42,32.08L0,41a.57.57,0,0,0,.14.63.61.61,0,0,0,.4.16.69.69,0,0,0,.24,0L9.1,38A20.68,20.68,0,0,0,21,41.76,20.88,20.88,0,0,0,21,0Zm0,38.68a17.65,17.65,0,0,1-10.41-3.37,2.5,2.5,0,0,0-1.47-.47,2.43,2.43,0,0,0-1,.22L5.06,36.44,6.4,32.9a2.49,2.49,0,0,0-.24-2.26,17.79,17.79,0,1,1,14.88,8Z"/><path class="cls-1" d="M19.44,17.12H13.28v2.47h5.65v2H13.28v3h6.44v2.1H10.91V15.06h8.53Z"/><path class="cls-1" d="M21.58,15.06h2.55l4.61,8.11V15.06H31V26.7H28.58l-4.74-8.26V26.7H21.58Z"/><path class="cls-1" d="M16.07,75.48A15.89,15.89,0,0,0,29.48,51.05l2.58-6.77A.45.45,0,0,0,32,43.8a.42.42,0,0,0-.3-.12.41.41,0,0,0-.19,0l-6.3,2.82a15.9,15.9,0,1,0-9.09,28.94Zm0-29.45A13.43,13.43,0,0,1,24,48.59a1.88,1.88,0,0,0,1.89.19l2.35-1.05-1,2.69a1.87,1.87,0,0,0,.19,1.72A13.55,13.55,0,1,1,16.07,46Z"/><path class="cls-1" d="M8.74,55.16h6.32v1.56H10.58v2H14.5V60.3H10.58V64H8.74Z"/><path class="cls-1" d="M21.94,55.38a2.29,2.29,0,0,1,.83.62,2.9,2.9,0,0,1,.44.74,2.54,2.54,0,0,1,.16.94,2.68,2.68,0,0,1-.31,1.24,1.84,1.84,0,0,1-1.06.86,1.64,1.64,0,0,1,.87.7,2.9,2.9,0,0,1,.26,1.39v.59a3.82,3.82,0,0,0,.05.82.75.75,0,0,0,.34.51V64h-2c-.06-.2-.1-.35-.13-.47a4.9,4.9,0,0,1-.07-.77V62a1.66,1.66,0,0,0-.3-1.13,1.48,1.48,0,0,0-1-.28H18.11V64H16.3V55.15h4.24A3.87,3.87,0,0,1,21.94,55.38Zm-3.83,1.31v2.38h2a2.23,2.23,0,0,0,.89-.14,1,1,0,0,0,.53-1A1.11,1.11,0,0,0,21,56.85a1.78,1.78,0,0,0-.86-.16Z"/></g></g></svg>