<svg xmlns="http://www.w3.org/2000/svg" viewBox="0 0 75.02 69.16"><defs><style>.cls-1{fill:#e2b300;}</style></defs><title>Asset 9</title><g id="Layer_2" data-name="Layer 2"><g id="Education"><path class="cls-1" d="M46.79,69.16a77.69,77.69,0,0,1-15.36-1.51A1.74,1.74,0,0,1,30,66V48.43l-9-2.7a1.74,1.74,0,0,1,0-3.33l25.29-7.56a1.89,1.89,0,0,1,1,0l25.25,7.55a1.94,1.94,0,0,1,.42.17,1.76,1.76,0,0,1,.86,1.51v9.07l1.07,2.57a1.74,1.74,0,0,1-2.81,1.93A1.77,1.77,0,0,1,70.2,58a1.75,1.75,0,0,1-.93-2.28l1.07-2.57V46.4L47.29,53.29a1.89,1.89,0,0,1-1,0L33.51,49.47v15a74.54,74.54,0,0,0,13.28,1.17,74.35,74.35,0,0,0,13.27-1.17V54.66a1.75,1.75,0,0,1,3.49,0V66a1.74,1.74,0,0,1-1.4,1.7A77.76,77.76,0,0,1,46.79,69.16ZM32.31,45.48,46.79,49.8,66,44.07,46.79,38.33,27.58,44.07l4.65,1.38Zm-7.79,14a1.53,1.53,0,0,1-.52-.08L1.22,52.27A1.74,1.74,0,0,1,0,50.61V1.74A1.73,1.73,0,0,1,.71.34,1.72,1.72,0,0,1,2.26.08L32,9.38,61.29.23a1.73,1.73,0,0,1,2.25,1.66V33a1.74,1.74,0,0,1-3.48,0V4.26l-26.55,8.3V32.09a1.74,1.74,0,1,1-3.48,0V12.4L3.48,4.11V49.33L25,56.06a1.74,1.74,0,0,1-.51,3.4ZM16.76,36.38a1.53,1.53,0,0,1-.52-.08l-4.77-1.48a1.74,1.74,0,0,1,1-3.33L17.28,33a1.74,1.74,0,0,1-.52,3.4ZM42,29.22a1.75,1.75,0,0,1-.52-3.41l9.54-3a1.74,1.74,0,1,1,1,3.32l-9.53,3A1.88,1.88,0,0,1,42,29.22Zm-20.5,0a1.93,1.93,0,0,1-.52-.08l-9.53-3a1.74,1.74,0,1,1,1-3.32l9.53,3a1.75,1.75,0,0,1-.52,3.41ZM42,21.09a1.74,1.74,0,0,1-.52-3.4l9.54-3a1.74,1.74,0,1,1,1,3.32l-9.53,3A1.57,1.57,0,0,1,42,21.09Zm-20.5,0A1.61,1.61,0,0,1,21,21l-9.53-3a1.74,1.74,0,1,1,1-3.32l9.53,3a1.74,1.74,0,0,1-.52,3.4Z"/></g></g></svg>