<svg xmlns="http://www.w3.org/2000/svg" viewBox="0 0 100 78.57"><defs><style>.cls-1{fill:#e2b300;}.cls-2{fill:none;}</style></defs><title>Asset 7</title><g id="Layer_2" data-name="Layer 2"><g id="Education"><path class="cls-1" d="M39.14,78.28a39.09,39.09,0,0,1-31.53-16,1.73,1.73,0,0,1-.3-.41,39.06,39.06,0,0,1,0-45.5,1.73,1.73,0,0,1,.3-.41A39.12,39.12,0,0,1,39.14,0h0C54.8,0,65.32,5,71.51,19.33c.47,1.1-12.08,3-16.75,3.76A85.59,85.59,0,0,1,56.17,37v4.33C56,50.64,54.38,59.38,51.68,66.1,48.51,74,44.06,78.28,39.14,78.28ZM28.78,58.88C31.27,68.25,35.34,74,39.14,74S47,68.25,49.51,58.88A101.14,101.14,0,0,0,28.78,58.88ZM12.87,62A34.82,34.82,0,0,0,30.2,72.79a30.92,30.92,0,0,1-3.59-6.69,51.16,51.16,0,0,1-2.15-6.67A88.11,88.11,0,0,0,12.87,62ZM4.4,41.31a34.6,34.6,0,0,0,5.67,17A90.63,90.63,0,0,1,23.52,55.2a86.87,86.87,0,0,1-1.4-13.89Zm22,0a82.21,82.21,0,0,0,1.37,13.32,106,106,0,0,1,22.66,0,80.14,80.14,0,0,0,1.37-13.32Zm0-4.33h25.4a81.12,81.12,0,0,0-1.37-13.33,104.67,104.67,0,0,1-22.66,0A82.22,82.22,0,0,0,26.44,37Zm-22,0H22.12a86.75,86.75,0,0,1,1.4-13.89A93.21,93.21,0,0,1,10.07,20,34.6,34.6,0,0,0,4.4,37ZM28.78,19.4a101,101,0,0,0,20.72,0C47,10,42.94,4.33,39.14,4.33S31.27,10,28.78,19.4ZM48.08,5.49a31,31,0,0,1,3.6,6.7,53.67,53.67,0,0,1,2.15,6.66,89.27,89.27,0,0,0,11.62-2.53A34.85,34.85,0,0,0,48.08,5.49ZM12.87,16.33a88.1,88.1,0,0,0,11.59,2.52,50.52,50.52,0,0,1,2.15-6.66,31,31,0,0,1,3.59-6.7A34.91,34.91,0,0,0,12.87,16.33Z"/><path class="cls-2" d="M67.08,48.68a.65.65,0,0,0,.55.24.47.47,0,0,0,.24-.13A15.11,15.11,0,0,0,72.61,56a6.72,6.72,0,0,0,4.08,1.53,6.82,6.82,0,0,0,4.17-1.59,15.13,15.13,0,0,0,4.66-7.1.47.47,0,0,0,.24.13.62.62,0,0,0,.48-.18,3.74,3.74,0,0,0,1-2.1c.22-1.25,0-2.36-.45-2.58a.35.35,0,0,0-.11,0,.59.59,0,0,0-.45.14h0v0a9.85,9.85,0,0,0-2-4.27h0l-.37.13a4,4,0,0,1,.32,1c-.41-.19-.82-.42-1.24-.63l-3.55,1.25c-2.14.84-2.14.84-4.28,0L70.15,39.8c-2.42,1-2.88,3.93-2.92,4.35v0h0a.6.6,0,0,0-.47-.15.48.48,0,0,0-.18.08,1,1,0,0,0-.32.51c0,.61-.07,1.22-.08,1.85,0,.06,0,.12,0,.18A4,4,0,0,0,67.08,48.68Z"/><path class="cls-1" d="M62.82,32l-.07,1a.81.81,0,0,0-.11,1.58L62,43.79l.91,2.74.91-2.74-.66-9.24A.81.81,0,0,0,63,33L63,32.05l1.58.91.06,0,1.25.73-.34,4.36,0,0c-.09.58-.16,1.15-.2,1.69A11,11,0,0,0,65,42.51h0v0h0c-.81.14-1.18,1.87-.83,3.86.33,1.82,1.15,3.23,1.91,3.34a19.33,19.33,0,0,0,4.39,7A10.74,10.74,0,0,0,74,59.08a7.16,7.16,0,0,0,2.71.54,7.48,7.48,0,0,0,2.71-.54A10.92,10.92,0,0,0,83,56.59a19.44,19.44,0,0,0,4.29-6.88c.72-.21,1.49-1.58,1.8-3.32.34-1.9,0-3.55-.71-3.82,0-.46,0-.93,0-1.41a15.14,15.14,0,0,0-.38-3.38l-.36-3.65,1.34-.77.68-.4,2.85-1.64a.47.47,0,0,0,0-.64l-15.13-6.3a.47.47,0,0,0-.64,0L61.7,30.68a.45.45,0,0,0,0,.64Zm3.44,12.65a1,1,0,0,1,.32-.51.48.48,0,0,1,.18-.08.57.57,0,0,1,.46.15h0a0,0,0,0,0,0,0c0-.42.5-3.4,2.92-4.35L75,41.59c2.14.84,2.14.84,4.28,0l3.54-1.25a5.69,5.69,0,0,0,.93-.33l.36-.13h0a9.75,9.75,0,0,1,2,4.27v0h0a.58.58,0,0,1,.45-.14.45.45,0,0,1,.11,0c.47.22.67,1.33.45,2.58a3.74,3.74,0,0,1-1,2.1.63.63,0,0,1-.48.18.5.5,0,0,1-.25-.13,15,15,0,0,1-4.65,7.1,6.82,6.82,0,0,1-4.17,1.59A6.72,6.72,0,0,1,72.61,56a15,15,0,0,1-4.74-7.16.47.47,0,0,1-.24.13.68.68,0,0,1-.56-.24,4.09,4.09,0,0,1-.87-2A4.85,4.85,0,0,1,66.26,44.62Z"/><path class="cls-1" d="M99.45,73.26a4.91,4.91,0,0,0,.35-3.65c-2.62-9-7.47-9.34-8.51-9.58-2.05-.49-4.54-.28-5.87-.7-.23,2-4,3.49-8.55,3.49s-8.32-1.54-8.55-3.49c-1.33.42-3.81.21-5.87.7-1,.24-5.89.55-8.51,9.58a4.91,4.91,0,0,0,.35,3.65c2.14,4,13.42,5.31,22.55,5.31h.06C86,78.57,97.31,77.32,99.45,73.26Z"/></g></g></svg>