<svg xmlns="http://www.w3.org/2000/svg" viewBox="0 0 88.18 76.29"><defs><style>.cls-1{fill:#e2b300;}</style></defs><title>Asset 2</title><g id="Layer_2" data-name="Layer 2"><g id="Education"><path class="cls-1" d="M84.3,70.92V27.27H80.92v-5.5l-5.1-3.56-5.1,3.56v5.5H69.43V19.32h-12v-10L44.09,0,30.78,9.28v10h-12v8H17.47v-5.5l-5.1-3.56L7.26,21.77v5.5H3.88V70.92H0v5.37H88.18V70.92ZM11.54,27.27H8.92V23.06h2.62Zm1.65-4.21h2.62v4.21H13.19Zm5.14,44.67H13.65V57.62h4.68Zm0-12.36H13.65V45.25h4.68Zm0-12.37H13.65V32.88h4.68ZM29.57,67.73H24.89V57.62h4.68Zm0-12.36H24.89V45.25h4.68Zm0-12.37H24.89V32.88h4.68ZM40.81,67.73H36.13V57.62h4.68Zm0-12.36H36.13V45.25h4.68Zm0-12.37H36.13V32.88h4.68Zm-1.5-27.51a4.78,4.78,0,1,1,4.78,4.78A4.78,4.78,0,0,1,39.31,15.49ZM52.05,67.73H47.37V57.62h4.68Zm0-12.36H47.37V45.25h4.68Zm0-12.37H47.37V32.88h4.68ZM63.3,67.73H58.61V57.62H63.3Zm0-12.36H58.61V45.25H63.3ZM63.3,43H58.61V32.88H63.3ZM74.54,67.73H69.85V57.62h4.69Zm0-12.36H69.85V45.25h4.69Zm0-12.37H69.85V32.88h4.69ZM75,27.27H72.37V23.06H75Zm4.27,0H76.65V23.06h2.61Z"/></g></g></svg>