<svg xmlns="http://www.w3.org/2000/svg" viewBox="0 0 114.57 76.41"><defs><style>.cls-1{fill:#e2b300;}</style></defs><title>Asset 12</title><g id="Layer_2" data-name="Layer 2"><g id="Life_Page" data-name="Life Page"><path class="cls-1" d="M65.26,22.56A14.05,14.05,0,0,1,71.79,33a11.33,11.33,0,1,0-6.53-10.43Zm-7.43,23.2A11.33,11.33,0,1,0,46.5,34.43,11.33,11.33,0,0,0,57.83,45.76Zm4.81.77H53A14.53,14.53,0,0,0,38.52,61V72.8l0,.18.81.25a65.83,65.83,0,0,0,19.72,3.18c10.66,0,16.85-3,17.23-3.23l.75-.38h.09V61A14.53,14.53,0,0,0,62.64,46.53Zm18.75-11.7H71.85a14,14,0,0,1-4.31,9.73,17.24,17.24,0,0,1,12.31,16.5v3.62c9.42-.35,14.85-3,15.2-3.2l.76-.38h.08V49.34A14.53,14.53,0,0,0,81.39,34.83Zm2.55-23.67a14.05,14.05,0,0,1,6.53,10.43,11.33,11.33,0,1,0-6.53-10.43Zm16.13,12.27H90.53a14,14,0,0,1-4.31,9.73,17.24,17.24,0,0,1,12.31,16.5v3.62c9.42-.35,14.85-3,15.2-3.2l.76-.38h.08V37.94A14.53,14.53,0,0,0,100.07,23.43ZM19.31,0A11.33,11.33,0,1,0,24.1,21.59a14.05,14.05,0,0,1,6.53-10.43A11.32,11.32,0,0,0,19.31,0ZM0,37.94V49.7H.08l.76.38c.36.18,5.78,2.85,15.2,3.2V49.66a17.23,17.23,0,0,1,12.32-16.5,13.94,13.94,0,0,1-4.31-9.73H14.51A14.53,14.53,0,0,0,0,37.94Zm38-3.88a11.29,11.29,0,0,0,6-1.75,14,14,0,0,1,5.27-8.94c0-.22,0-.43,0-.64A11.33,11.33,0,1,0,38,34.06Zm10.18,10.5a14,14,0,0,1-4.31-9.67c-.35,0-.7-.06-1.06-.06H33.15A14.52,14.52,0,0,0,18.64,49.34V61.1l0,.18.81.25A67.22,67.22,0,0,0,35.81,64.6V61.05A17.25,17.25,0,0,1,48.13,44.56Z"/></g></g></svg>