<svg xmlns="http://www.w3.org/2000/svg" viewBox="0 0 79.96 84.54"><defs><style>.cls-1{fill:#e2b300;}</style></defs><title>Asset 4</title><g id="Layer_2" data-name="Layer 2"><g id="Education"><path class="cls-1" d="M77.36,76.09V37.89a3.6,3.6,0,0,0-3.61-3.61H56.61V23.88a2.7,2.7,0,0,0-1.39-2.36L41.3,13.76a1.27,1.27,0,0,0-.23-.12V9.21h7.49a1.08,1.08,0,0,0,1.08-1.08V2.66a1.08,1.08,0,0,0-1.08-1.09H41.07V1.08a1.09,1.09,0,0,0-2.17,0V13.64l-.24.12L24.74,21.52a2.72,2.72,0,0,0-1.39,2.36v10.4H6.21A3.61,3.61,0,0,0,2.6,37.89v38.2a4.42,4.42,0,0,0,1.82,8.45H75.54a4.42,4.42,0,0,0,1.82-8.45Zm-14-29.23a2.1,2.1,0,0,1,2.1-2.1h3.93a2.1,2.1,0,0,1,2.11,2.1v3.93a2.11,2.11,0,0,1-2.11,2.11H65.51a2.11,2.11,0,0,1-2.1-2.11V46.86Zm0,12.64a2.1,2.1,0,0,1,2.1-2.11h3.93a2.1,2.1,0,0,1,2.11,2.11v3.93a2.1,2.1,0,0,1-2.11,2.1H65.51a2.1,2.1,0,0,1-2.1-2.1V59.5ZM50.77,46.86a2.1,2.1,0,0,1,2.11-2.1h3.93a2.1,2.1,0,0,1,2.1,2.1v3.93a2.11,2.11,0,0,1-2.1,2.11H52.88a2.11,2.11,0,0,1-2.11-2.11Zm0,12.64a2.1,2.1,0,0,1,2.11-2.11h3.93a2.1,2.1,0,0,1,2.1,2.11v3.93a2.1,2.1,0,0,1-2.1,2.1H52.88a2.1,2.1,0,0,1-2.11-2.1ZM40,23.89a6,6,0,1,1-5.95,6A6,6,0,0,1,40,23.89Zm-6,34.2A2.11,2.11,0,0,1,36.12,56h7.72A2.11,2.11,0,0,1,46,58.09V74.66a2.08,2.08,0,0,1-.28,1H34.3a2.08,2.08,0,0,1-.28-1V58.09Zm-13-11.23a2.1,2.1,0,0,1,2.1-2.1h3.94a2.1,2.1,0,0,1,2.1,2.1v3.93a2.11,2.11,0,0,1-2.1,2.11H23.15a2.11,2.11,0,0,1-2.1-2.11Zm0,12.64a2.1,2.1,0,0,1,2.1-2.11h3.94a2.1,2.1,0,0,1,2.1,2.11v3.93a2.1,2.1,0,0,1-2.1,2.1H23.15a2.1,2.1,0,0,1-2.1-2.1ZM8.42,46.86a2.1,2.1,0,0,1,2.1-2.1h3.93a2.1,2.1,0,0,1,2.1,2.1v3.93a2.11,2.11,0,0,1-2.1,2.11H10.52a2.11,2.11,0,0,1-2.1-2.11V46.86Zm0,12.64a2.1,2.1,0,0,1,2.1-2.11h3.93a2.1,2.1,0,0,1,2.1,2.11v3.93a2.1,2.1,0,0,1-2.1,2.1H10.52a2.1,2.1,0,0,1-2.1-2.1V59.5Z"/></g></g></svg>