<svg xmlns="http://www.w3.org/2000/svg" viewBox="0 0 81.1 74.39"><defs><style>.cls-1{fill:#e2b300;}</style></defs><title>Asset 10</title><g id="Layer_2" data-name="Layer 2"><g id="Education"><path class="cls-1" d="M43.72,17.62a6.57,6.57,0,0,0-5.82,0c-3.11.64-8.71,3.33-8.71,9.19V40a2.13,2.13,0,0,0,4.25,0V26.81a4,4,0,0,1,.68-2.24V71.66a2.74,2.74,0,0,0,5.47,0V47.8a6.92,6.92,0,0,0,1.22.11A6.67,6.67,0,0,0,42,47.8V71.48a2.74,2.74,0,0,0,5.47,0V41.63c0-.13,0-.26,0-.4V24.59a3.89,3.89,0,0,1,.67,2.22V40a2.13,2.13,0,0,0,4.26,0V26.81C52.42,21,46.83,18.27,43.72,17.62Z"/><path class="cls-1" d="M49.72,4.52,41.56.05a.42.42,0,0,0-.38,0L32.31,4a.42.42,0,0,0-.25.33.45.45,0,0,0,.14.39l2.45,2.16v3a.58.58,0,0,0,0,.19,6.13,6.13,0,0,0,12.25-.21h0V7.39l1.47-1.11v4.58a.43.43,0,1,0,.85,0V5.63l.53-.4a.4.4,0,0,0,.17-.37A.42.42,0,0,0,49.72,4.52Zm-9.06,6.54-7.4-6.52L41.34.9,48.73,5Z"/><ellipse class="cls-1" cx="48.81" cy="12.54" rx="0.66" ry="1.08"/><path class="cls-1" d="M60.72,21.86a5.45,5.45,0,0,0-4.77,0c-2.54.53-7.14,2.73-7.14,7.53V40.22a1.75,1.75,0,0,0,3.49,0V29.39a3.23,3.23,0,0,1,.56-1.83V66.15a2.24,2.24,0,1,0,4.48,0V46.6a6.41,6.41,0,0,0,1,.09,5.15,5.15,0,0,0,1-.09V66a2.25,2.25,0,0,0,4.49,0V41.54c0-.11,0-.21,0-.33V27.57a3.19,3.19,0,0,1,.56,1.82V40.22a1.74,1.74,0,0,0,3.48,0V29.39C67.85,24.6,63.27,22.4,60.72,21.86Z"/><path class="cls-1" d="M65.64,11.13,59,7.47a.34.34,0,0,0-.31,0l-7.27,3.28a.33.33,0,0,0-.2.27.34.34,0,0,0,.11.31l2,1.77v2.47a.42.42,0,0,0,0,.15,5,5,0,0,0,10-.17h0v-2l1.21-.91v3.75a.34.34,0,0,0,.35.35.35.35,0,0,0,.35-.35V12l.43-.32a.41.41,0,0,0,.14-.31A.36.36,0,0,0,65.64,11.13Zm-7.43,5.36-6.06-5.34,6.62-3,6.06,3.31Z"/><ellipse class="cls-1" cx="64.89" cy="17.7" rx="0.55" ry="0.89"/><path class="cls-1" d="M75,25.35a4.67,4.67,0,0,0-2-.47,4.59,4.59,0,0,0-2,.47c-2.16.45-6.08,2.32-6.08,6.41V41a1.49,1.49,0,1,0,3,0V31.76a2.72,2.72,0,0,1,.48-1.56V63.06a1.91,1.91,0,1,0,3.81,0V46.41a4.8,4.8,0,0,0,.85.08,4.49,4.49,0,0,0,.83-.08V62.93a1.91,1.91,0,0,0,3.82,0V42.11c0-.1,0-.19,0-.28V30.21a2.71,2.71,0,0,1,.47,1.55V41a1.49,1.49,0,0,0,3,0V31.76C81.1,27.68,77.21,25.8,75,25.35Z"/><path class="cls-1" d="M20.38,21.9a5.32,5.32,0,0,1,2.39-.56,5.41,5.41,0,0,1,2.38.55c2.55.53,7.14,2.73,7.14,7.53V40.25a1.74,1.74,0,1,1-3.48,0V29.42a3.3,3.3,0,0,0-.56-1.83V66.18a2.24,2.24,0,1,1-4.48,0V46.63a5.55,5.55,0,0,1-1,.09,5.25,5.25,0,0,1-1-.09V66a2.24,2.24,0,1,1-4.48,0V41.57c0-.1,0-.21,0-.32V27.6a3.26,3.26,0,0,0-.55,1.82V40.25a1.75,1.75,0,0,1-3.49,0V29.42C13.26,24.63,17.83,22.43,20.38,21.9Z"/><path class="cls-1" d="M15.29,11.44a.36.36,0,0,0,.13.31l.43.32v4.28a.36.36,0,1,0,.71,0V12.6l1.2.91v2.05h0a5,5,0,0,0,10,.17.4.4,0,0,0,0-.15V13.12l2-1.78a.34.34,0,0,0-.09-.58L22.46,7.49a.34.34,0,0,0-.31,0l-6.68,3.66A.34.34,0,0,0,15.29,11.44Zm1,.07,6-3.31,6.62,3-6.06,5.34Z"/><ellipse class="cls-1" cx="16.21" cy="17.73" rx="0.55" ry="0.89"/><path class="cls-1" d="M6.07,25.38a4.62,4.62,0,0,1,4.06,0c2.17.45,6.08,2.32,6.08,6.41V41a1.49,1.49,0,1,1-3,0V31.79a2.82,2.82,0,0,0-.47-1.56V63.09a1.91,1.91,0,0,1-3.82,0V46.44a4.71,4.71,0,0,1-.85.08,4.58,4.58,0,0,1-.83-.08V63a1.91,1.91,0,0,1-3.82,0V42.14c0-.09,0-.19,0-.28V30.24A2.71,2.71,0,0,0,3,31.79V41a1.49,1.49,0,1,1-3,0V31.79C0,27.71,3.9,25.83,6.07,25.38Z"/><path class="cls-1" d="M1.73,16.48a.3.3,0,0,0,.12.26l.37.28v3.64a.3.3,0,1,0,.59,0V17.47l1,.77V20h0a4.27,4.27,0,0,0,8.54.14.28.28,0,0,0,0-.13V17.9l1.71-1.5a.3.3,0,0,0,.09-.27A.29.29,0,0,0,14,15.9L7.84,13.11a.32.32,0,0,0-.27,0L1.88,16.24A.3.3,0,0,0,1.73,16.48Zm.84.06,5.16-2.82,5.64,2.53L8.21,20.8Z"/><ellipse class="cls-1" cx="2.52" cy="21.84" rx="0.46" ry="0.76"/></g></g></svg>