<svg xmlns="http://www.w3.org/2000/svg" viewBox="0 0 98 17"><defs><style>.cls-1{fill:#e2b300;}</style></defs><title>Asset 17</title><g id="Layer_2" data-name="Layer 2"><g id="Education"><path class="cls-1" d="M9,0a.49.49,0,0,0-.44.25L6,5.25.41,6.09a.53.53,0,0,0-.29.85l4,3.94-.91,5.53a.53.53,0,0,0,.44.59A.55.55,0,0,0,4,16.94l5-2.6,5,2.6a.53.53,0,0,0,.72-.53l-.91-5.53,4-3.94a.52.52,0,0,0-.28-.85L12,5.25,9.44.25A.5.5,0,0,0,9,0ZM29,0a.49.49,0,0,0-.44.25L26,5.25l-5.59.84a.53.53,0,0,0-.29.85l4,3.94-.91,5.53a.53.53,0,0,0,.44.59.55.55,0,0,0,.28-.06l5-2.6,5,2.6a.53.53,0,0,0,.72-.53l-.91-5.53,4-3.94a.52.52,0,0,0-.28-.85L32,5.25l-2.56-5A.5.5,0,0,0,29,0ZM49,0a.49.49,0,0,0-.44.25L46,5.25l-5.59.84a.53.53,0,0,0-.29.85l4,3.94-.91,5.53a.53.53,0,0,0,.44.59.55.55,0,0,0,.28-.06l5-2.6,5,2.6a.53.53,0,0,0,.72-.53l-.91-5.53,4-3.94a.52.52,0,0,0-.28-.85L52,5.25l-2.56-5A.5.5,0,0,0,49,0ZM69,0a.49.49,0,0,0-.44.25L66,5.25l-5.59.84a.53.53,0,0,0-.29.85l4,3.94-.91,5.53a.53.53,0,0,0,.44.59.55.55,0,0,0,.28-.06l5-2.6,5,2.6a.53.53,0,0,0,.72-.53l-.91-5.53,4-3.94a.52.52,0,0,0-.28-.85L72,5.25l-2.56-5A.5.5,0,0,0,69,0ZM89,0a.49.49,0,0,0-.44.25L86,5.25l-5.59.84a.53.53,0,0,0-.29.85l4,3.94-.91,5.53a.53.53,0,0,0,.44.59.55.55,0,0,0,.28-.06l5-2.6,5,2.6a.53.53,0,0,0,.72-.53l-.91-5.53,4-3.94a.52.52,0,0,0-.28-.85L92,5.25l-2.56-5A.5.5,0,0,0,89,0Z"/></g></g></svg>