<svg xmlns="http://www.w3.org/2000/svg" viewBox="0 0 27.79 47.64"><defs><style>.cls-1{fill:#008700;}</style></defs><title>Asset 21</title><g id="Layer_2" data-name="Layer 2"><g id="Life_Page" data-name="Life Page"><path class="cls-1" d="M21.5,24.92a2,2,0,0,1-1.65.88,1.94,1.94,0,0,1-1.1-.33l-4.86-3.24L9,25.47a2,2,0,0,1-2.2-3.3l5.95-4a2,2,0,0,1,2.21,0l5.95,4a2,2,0,0,1,.55,2.75m0,9.92a2,2,0,0,1-2.75.55l-4.86-3.23L9,35.39a2,2,0,1,1-2.2-3.3l5.95-4a2,2,0,0,1,2.21,0l5.95,4a2,2,0,0,1,.55,2.75M26.26,9,15.11.41a2,2,0,0,0-2.36,0L1.63,8.24A3.46,3.46,0,0,0,0,11.18V45.65a2,2,0,0,0,2,2H25.8a2,2,0,0,0,2-2V11.91A3.43,3.43,0,0,0,26.26,9"/></g></g></svg>