<svg xmlns="http://www.w3.org/2000/svg" viewBox="0 0 127.27 46.6"><defs><style>.cls-1{fill:#008700;}</style></defs><title>Asset 22</title><g id="Layer_2" data-name="Layer 2"><g id="Life_Page" data-name="Life Page"><path class="cls-1" d="M63.73,35A17.48,17.48,0,1,1,81.21,17.48,17.51,17.51,0,0,1,63.73,35Zm0-33.69A16.22,16.22,0,1,0,80,17.48,16.22,16.22,0,0,0,63.73,1.26Z"/><path class="cls-1" d="M64.07,8.26,66,14.18a.41.41,0,0,0,.38.3H72.6a.41.41,0,0,1,.25.75l-5,3.66a.49.49,0,0,0-.17.46l1.93,5.92a.41.41,0,0,1-.63.47l-5-3.66a.37.37,0,0,0-.5,0l-5,3.66a.41.41,0,0,1-.63-.47l1.94-5.92a.39.39,0,0,0-.17-.46l-5-3.66a.41.41,0,0,1,.25-.75h6.22a.41.41,0,0,0,.38-.3l2-5.92A.4.4,0,0,1,64.07,8.26Z"/><path class="cls-1" d="M17.48,46.6A17.48,17.48,0,1,1,35,29.12,17.52,17.52,0,0,1,17.48,46.6Zm0-33.69A16.22,16.22,0,1,0,33.69,29.12,16.23,16.23,0,0,0,17.48,12.91Z"/><path class="cls-1" d="M17.81,19.91l1.93,5.92a.41.41,0,0,0,.38.29h6.22a.42.42,0,0,1,.25.76l-5,3.66a.51.51,0,0,0-.17.46l1.94,5.92a.41.41,0,0,1-.63.46l-5.05-3.65a.37.37,0,0,0-.5,0l-5,3.65a.4.4,0,0,1-.63-.46L13.4,31a.39.39,0,0,0-.17-.46l-5-3.66a.42.42,0,0,1,.25-.76h6.22a.4.4,0,0,0,.38-.29l2-5.92A.39.39,0,0,1,17.81,19.91Z"/><path class="cls-1" d="M109.79,46.6a17.48,17.48,0,1,1,17.48-17.48A17.52,17.52,0,0,1,109.79,46.6Zm0-33.7A16.22,16.22,0,1,0,126,29.12,16.22,16.22,0,0,0,109.79,12.9Z"/><path class="cls-1" d="M110.13,19.9l1.93,5.93a.41.41,0,0,0,.38.29h6.22a.42.42,0,0,1,.25.76l-5,3.65a.5.5,0,0,0-.17.46l1.93,5.93a.41.41,0,0,1-.63.46l-5-3.66a.39.39,0,0,0-.5,0l-5,3.66a.41.41,0,0,1-.63-.46L105.72,31a.4.4,0,0,0-.17-.46l-5-3.65a.42.42,0,0,1,.25-.76H107a.43.43,0,0,0,.38-.29l2-5.93A.4.4,0,0,1,110.13,19.9Z"/></g></g></svg>