<svg xmlns="http://www.w3.org/2000/svg" viewBox="0 0 30.5 45.53"><defs><style>.cls-1{fill:#008700;}</style></defs><title>Asset 20</title><g id="Layer_2" data-name="Layer 2"><g id="Life_Page" data-name="Life Page"><path class="cls-1" d="M30.5,15.25a15.25,15.25,0,0,0-30.5,0A15,15,0,0,0,5.26,26.74L4.54,43.28v.07a2.29,2.29,0,0,0,1.3,2A2.08,2.08,0,0,0,8.11,45l7.14-6.16L22.39,45a2.12,2.12,0,0,0,2.27.33,2.16,2.16,0,0,0,1.3-2l-.72-16.61A14.78,14.78,0,0,0,30.5,15.25Zm-15.25,12a12,12,0,1,1,12-12A12,12,0,0,1,15.25,27.26Z"/><polygon class="cls-1" points="13.3 17 9.35 13.04 7.07 15.38 13.3 21.61 23.43 11.42 21.16 9.15 13.3 17"/></g></g></svg>