<svg id="Layer_1" data-name="Layer 1" xmlns="http://www.w3.org/2000/svg" viewBox="0 0 72.3 72.29"><defs><style>.cls-1{fill:#b62025;}.cls-1,.cls-2,.cls-3,.cls-4,.cls-5,.cls-6,.cls-7,.cls-8,.cls-9{opacity:0.6;isolation:isolate;}.cls-2{fill:#816a2b;}.cls-3{fill:#e7c01f;}.cls-4{fill:#175c2f;}.cls-5{fill:#2db24b;}.cls-6{fill:#184982;}.cls-7{fill:#45b2e5;}.cls-8{fill:#2e1c52;}.cls-9{fill:#9a6cad;}.cls-10,.cls-12{fill:none;stroke:#fff;stroke-miterlimit:10;}.cls-10{stroke-width:1.05px;}.cls-11{fill:#fff;}.cls-12{stroke-width:0.75px;}</style></defs><title>logo-icon</title><g id="Color"><g id="Red"><path class="cls-1" d="M72.92,50.62s.75.09.75,1.37-.3,1.39-1.3,2-33,19.45-33.54,19.57a2.72,2.72,0,0,1-2.43,0C35,72.92,1.56,53.47,1.53,53.23s-.31-1.7.09-2.06l1-.67L36.8,30.2a1,1,0,0,1,1,0C38.4,30.5,72.92,50.62,72.92,50.62Z" transform="translate(-1.38 -1.55)"/><path class="cls-1" d="M37.22,72.5,2.56,52.29a1,1,0,0,1,0-1.79L36.83,30.17a1,1,0,0,1,1,0L72.7,50.47a1,1,0,0,1,0,1.79L38.22,72.5A1,1,0,0,1,37.22,72.5Z" transform="translate(-1.38 -1.55)"/></g><g id="Yellow"><path class="cls-2" d="M72.92,44s.75.09.75,1.36-.3,1.4-1.3,2-33,19.48-33.54,19.55a3,3,0,0,1-2.46,0C35,66.32,1.53,46.87,1.5,46.62s-.31-1.69.09-2.06l1-.66L36.77,23.6a1,1,0,0,1,1,0C38.4,23.9,72.92,44,72.92,44Z" transform="translate(-1.38 -1.55)"/><path class="cls-3" d="M37.22,65.89,2.56,45.68a1,1,0,0,1,0-1.78L36.83,23.56a1,1,0,0,1,1,0L72.7,43.87a1,1,0,0,1,0,1.78L38.22,65.89A1,1,0,0,1,37.22,65.89Z" transform="translate(-1.38 -1.55)"/></g><g id="Green"><path class="cls-4" d="M72.92,36.41s.75.09.75,1.37-.3,1.39-1.3,2-33,19.48-33.54,19.54a3,3,0,0,1-2.46,0C35,58.71,1.53,39.26,1.5,39s-.31-1.7.09-2.06l1-.67L36.77,16a1,1,0,0,1,1,0C38.4,16.29,72.92,36.41,72.92,36.41Z" transform="translate(-1.38 -1.55)"/><path class="cls-5" d="M37.22,58.29,2.56,38.08a1,1,0,0,1,0-1.79L36.83,16a1,1,0,0,1,1,0L72.7,36.26a1,1,0,0,1,0,1.79L38.22,58.29A1,1,0,0,1,37.22,58.29Z" transform="translate(-1.38 -1.55)"/></g><g id="Blue"><path class="cls-6" d="M72.92,29.32s.75.09.75,1.37-.3,1.39-1.3,2-33,19.48-33.54,19.54a3,3,0,0,1-2.46,0C35,51.62,1.53,32.17,1.5,31.93s-.31-1.7.09-2.06l1-.67L36.77,8.9a1,1,0,0,1,1,0C38.4,9.2,72.92,29.32,72.92,29.32Z" transform="translate(-1.38 -1.55)"/><path class="cls-7" d="M37.22,51.2,2.56,31a1,1,0,0,1,0-1.79L36.83,8.87a1,1,0,0,1,1,0L72.7,29.17a1,1,0,0,1,0,1.79L38.22,51.2A1,1,0,0,1,37.22,51.2Z" transform="translate(-1.38 -1.55)"/></g><g id="Purple"><path class="cls-8" d="M72.92,22.14s.75.09.75,1.36-.3,1.4-1.3,2S39.4,45,38.83,45.05a3,3,0,0,1-2.46,0C35,44.44,1.53,25,1.5,24.75s-.31-1.7.09-2.06l1-.67L36.77,1.72a1,1,0,0,1,1,0C38.4,2,72.92,22.14,72.92,22.14Z" transform="translate(-1.38 -1.55)"/><path class="cls-9" d="M37.22,44,2.56,23.81a1,1,0,0,1,0-1.79L36.83,1.69a1,1,0,0,1,1,0L72.7,22a1,1,0,0,1,0,1.79L38.22,44A1.07,1.07,0,0,1,37.22,44Z" transform="translate(-1.38 -1.55)"/></g><g id="Tree"><path class="cls-10" d="M60.86,40.78l-2.79,2.78a3.71,3.71,0,0,0-1.24,2v5.73C56.83,52.23,55,54,55,54l-9.46,9a2.63,2.63,0,0,1-1.45.69L41.61,64" transform="translate(-1.38 -1.55)"/><line class="cls-10" x1="55.45" y1="48.68" x2="58.72" y2="45.47"/><line class="cls-10" x1="40.21" y1="58.71" x2="49.84" y2="49.16"/><line class="cls-10" x1="60.02" y1="33.19" x2="40.15" y2="53.13"/><line class="cls-10" x1="51.75" y1="41.5" x2="44.97" y2="35.98"/><path class="cls-10" d="M57.46,38.68V34.47s0-2.51,1-3.54,2.46-2.58,2.46-2.58" transform="translate(-1.38 -1.55)"/><path class="cls-10" d="M50.86,41.2v-16A4,4,0,0,0,50,22.38c-1-1.09-2-1.21-2-2.88V13.9" transform="translate(-1.38 -1.55)"/><path class="cls-10" d="M50.89,25.93l2.45-2.46a3.18,3.18,0,0,0,.76-1.72V18.17" transform="translate(-1.38 -1.55)"/><path class="cls-10" d="M50.89,38.08s3.51-2.58,3.48-3.33,0-6,0-6V28s-.09-.64.91-1.7,2.3-2.42,2.3-2.42" transform="translate(-1.38 -1.55)"/><line class="cls-10" x1="49.51" y1="27.04" x2="46.66" y2="24.38"/><path class="cls-11" d="M42.07,71.74l-1,.61V30.69l0-.1A6.8,6.8,0,0,1,42.64,28a2.43,2.43,0,0,0,.61-1.4V17.2h1.06v9.36a3.28,3.28,0,0,1-.91,2.16l0,0a5.48,5.48,0,0,0-1.24,2.09Z" transform="translate(-1.38 -1.55)"/><path class="cls-10" d="M43.77,20.72l-2.19-2.15a3.47,3.47,0,0,1-1.3-2.22V12.11" transform="translate(-1.38 -1.55)"/><line class="cls-10" x1="40.18" y1="33.47" x2="43.87" y2="30.22"/><path class="cls-10" d="M41.55,41.62,39,39.2a4.53,4.53,0,0,1-.91-2.58V34.05" transform="translate(-1.38 -1.55)"/><path class="cls-10" d="M35.28,48.5l-.12-17.66s-.27-.85,1.49-2.46,2.42-2.82,2.42-3.94-.09-4.33-.76-5.15-2.54-1.54-2.63-2.88-.13-4.63-.13-4.63" transform="translate(-1.38 -1.55)"/><line class="cls-10" x1="37.36" y1="24.26" x2="34.75" y2="21.71"/><path class="cls-10" d="M35.16,34.93s-3.67-2.52-3.67-4.76v-13" transform="translate(-1.38 -1.55)"/><path class="cls-10" d="M31.71,45.26V37.84A3.87,3.87,0,0,0,30.62,36l-2.25-2.4" transform="translate(-1.38 -1.55)"/><line class="cls-10" x1="31.27" y1="57.1" x2="22.75" y2="50.5"/><path class="cls-10" d="M32.65,64.17l-12-9.55S18.1,53.11,18.1,51V45.81a2.32,2.32,0,0,0-.7-1.73L14.4,41" transform="translate(-1.38 -1.55)"/><line class="cls-10" x1="16.72" y1="48.47" x2="13.73" y2="45.71"/><path class="cls-10" d="M23.86,38.08V24.53a3.55,3.55,0,0,1,1.21-2.09c1-.87,1.73-1.39,1.73-3.09V14.17" transform="translate(-1.38 -1.55)"/><path class="cls-10" d="M23.86,26.05l-2.21-2.12a2.72,2.72,0,0,1-.85-2.24V18.17" transform="translate(-1.38 -1.55)"/><path class="cls-10" d="M41.55,54.08l-20.24-18a4.72,4.72,0,0,1-.75-2.88v-4.7a4.09,4.09,0,0,0-1.13-2.45C18.37,25,17.25,24,17.25,24" transform="translate(-1.38 -1.55)"/><polygon class="cls-11" points="31.72 70.13 30.72 69.56 30.69 49.22 12.36 33.26 13.06 32.47 31.75 48.77 31.72 70.13"/><path class="cls-10" d="M17.28,37.53V32.69A4.68,4.68,0,0,0,16,30.05L14.74,29" transform="translate(-1.38 -1.55)"/><line class="cls-10" x1="22.48" y1="27.65" x2="25.39" y2="24.74"/><circle class="cls-12" cx="52.69" cy="15.17" r="1.45"/><circle class="cls-12" cx="46.66" cy="10.92" r="1.45"/><circle class="cls-12" cx="42.39" cy="14.2" r="1.45"/><circle class="cls-12" cx="33.97" cy="20.74" r="1.45"/><circle class="cls-12" cx="30.09" cy="14.2" r="1.45"/><circle class="cls-12" cx="38.87" cy="9.14" r="1.45"/><circle class="cls-12" cx="34.12" cy="8.77" r="1.45"/><circle class="cls-12" cx="56.9" cy="21.53" r="1.45"/><circle class="cls-12" cx="60.18" cy="26.01" r="1.45"/><circle class="cls-12" cx="60.84" cy="32.38" r="1.45"/><circle class="cls-12" cx="60.27" cy="38.28" r="1.45"/><circle class="cls-12" cx="59.57" cy="44.65" r="1.45"/><circle class="cls-12" cx="50.63" cy="48.25" r="1.45"/><circle class="cls-12" cx="44.12" cy="35.25" r="1.45"/><circle class="cls-12" cx="44.78" cy="29.47" r="1.45"/><circle class="cls-12" cx="36.75" cy="31.04" r="1.45"/><circle class="cls-12" cx="26.33" cy="31.19" r="1.45"/><circle class="cls-12" cx="26.3" cy="23.95" r="1.45"/><circle class="cls-12" cx="25.39" cy="11.44" r="1.45"/><circle class="cls-12" cx="19.42" cy="15.41" r="1.45"/><circle class="cls-12" cx="15.09" cy="21.53" r="1.45"/><circle class="cls-12" cx="12.06" cy="26.32" r="1.45"/><circle class="cls-12" cx="12.06" cy="31.98" r="1.45"/><circle class="cls-12" cx="12.27" cy="38.74" r="1.45"/><circle class="cls-12" cx="12.88" cy="44.86" r="1.45"/><circle class="cls-12" cx="21.48" cy="49.68" r="1.45"/><circle class="cls-12" cx="45.75" cy="23.65" r="1.45"/></g></g></svg>