<svg xmlns="http://www.w3.org/2000/svg" viewBox="0 0 298 155.69"><defs><style>.cls-1{fill:#ee1b2d;}</style></defs><title>Asset 2</title><g id="Layer_2" data-name="Layer 2"><g id="svg3400"><g id="layer1"><g id="g3346"><g id="g3348"><g id="g3354"><path id="path3356" class="cls-1" d="M235.11,3.45,213.71,90.5l-21.46-87h-62V35.59C122.73,7.46,95.1.41,70.41,0,40.31-.38,7,12.66,5.79,52.47H47.43c0-12,11-18.9,21.39-18.73,12.76-.1,18.63,5.34,18.92,13.82C87.3,54.92,83,60,68.93,60h-14V88.92H67.63c7.23,0,17.28,3.93,17.67,14.22.48,12.26-8,17.64-18.53,17.75-18.72-.7-23.55-15.08-23.55-27.45H0c.18,8.33-.09,62.65,67.64,62.25,32.45.29,56.07-13.35,62.73-32.16v28.83h41.68V58.44l23,93.92h37.24l23.13-93.81v93.89H298V3.45ZM130.4,90.3c-5.31-11-12.78-15.78-17-17.3,8.83-3.93,13.45-9.25,17-19.86Z"/></g></g></g></g></g></g></svg>