<?xml version="1.0" encoding="utf-8"?>
<!-- Generator: Adobe Illustrator 21.1.0, SVG Export Plug-In . SVG Version: 6.00 Build 0)  -->
<svg version="1.1" id="Horizontal_Logo" xmlns="http://www.w3.org/2000/svg" xmlns:xlink="http://www.w3.org/1999/xlink" x="0px"
	 y="0px" width="1092px" height="287.2px" viewBox="0 0 1092 287.2" style="enable-background:new 0 0 1092 287.2;"
	 xml:space="preserve">
<style type="text/css">
	.st0{fill:#B62025;stroke:#B62025;stroke-width:2.0594;stroke-miterlimit:10;}
	.st1{fill:#010101;}
	.st2{opacity:0.6;fill:#B62025;enable-background:new    ;}
	.st3{opacity:0.6;fill:#816A2B;enable-background:new    ;}
	.st4{opacity:0.6;fill:#E7C01F;enable-background:new    ;}
	.st5{opacity:0.6;fill:#175C2F;enable-background:new    ;}
	.st6{opacity:0.6;fill:#2DB24B;enable-background:new    ;}
	.st7{opacity:0.6;fill:#184982;enable-background:new    ;}
	.st8{opacity:0.6;fill:#45B2E5;enable-background:new    ;}
	.st9{opacity:0.6;fill:#2E1C52;enable-background:new    ;}
	.st10{opacity:0.6;fill:#9A6CAD;enable-background:new    ;}
	.st11{fill:none;stroke:#FFFFFF;stroke-width:3.4543;stroke-miterlimit:10;}
	.st12{fill:#FFFFFF;}
	.st13{fill:none;stroke:#FFFFFF;stroke-width:2.4674;stroke-miterlimit:10;}
</style>
<g id="Text_2_">
	<g id="TEXT">
		<path d="M693.7,177.7h26.4v10.1h-38.7v-65.9h12.3V177.7z"/>
		<path d="M788.1,154.9c0,4.8-0.8,9.3-2.4,13.4c-1.6,4.1-3.9,7.7-6.8,10.7c-2.9,3-6.4,5.4-10.5,7c-4.1,1.7-8.6,2.5-13.6,2.5
			s-9.5-0.8-13.7-2.5c-4.1-1.7-7.6-4-10.6-7c-2.9-3-5.2-6.6-6.8-10.7c-1.6-4.1-2.4-8.6-2.4-13.4c0-4.8,0.8-9.3,2.4-13.4
			c1.6-4.1,3.9-7.7,6.8-10.7c2.9-3,6.5-5.4,10.6-7c4.1-1.7,8.7-2.5,13.7-2.5s9.5,0.9,13.6,2.6s7.6,4.1,10.5,7
			c2.9,3,5.2,6.6,6.8,10.7C787.3,145.6,788.1,150,788.1,154.9z M775.6,154.9c0-3.6-0.5-6.9-1.4-9.7c-1-2.9-2.3-5.3-4.1-7.3
			s-4-3.5-6.5-4.6c-2.6-1.1-5.5-1.6-8.7-1.6s-6.1,0.5-8.7,1.6c-2.6,1.1-4.8,2.6-6.6,4.6s-3.2,4.4-4.2,7.3c-1,2.9-1.5,6.1-1.5,9.7
			c0,3.6,0.5,6.9,1.5,9.7c1,2.9,2.4,5.3,4.2,7.3s4,3.5,6.6,4.6s5.5,1.6,8.7,1.6s6.1-0.5,8.7-1.6c2.6-1.1,4.7-2.6,6.5-4.6
			s3.2-4.4,4.1-7.3C775.1,161.7,775.6,158.5,775.6,154.9z"/>
		<path d="M805.6,122c0.4,0,0.7,0.1,1,0.3c0.3,0.1,0.6,0.3,0.8,0.6c0.3,0.3,0.6,0.6,0.9,1l34.6,44.1c-0.1-1.1-0.2-2.1-0.3-3.1
			c0-1-0.1-2-0.1-2.8V122h10.8v65.9H847c-1,0-1.8-0.2-2.4-0.5c-0.6-0.3-1.3-0.9-1.9-1.6l-34.5-43.9c0.1,1,0.2,1.9,0.2,2.9
			s0.1,1.8,0.1,2.6v40.5h-10.8V122h6.4C804.8,121.9,805.2,121.9,805.6,122z"/>
		<path d="M925.3,154.9c0,4.8-0.8,9.3-2.4,13.3c-1.6,4-3.9,7.5-6.8,10.4c-2.9,2.9-6.4,5.2-10.5,6.8s-8.6,2.4-13.6,2.4h-25.2v-65.9
			H892c5,0,9.5,0.8,13.6,2.4s7.6,3.9,10.5,6.8c2.9,2.9,5.2,6.4,6.8,10.4C924.5,145.6,925.3,150,925.3,154.9z M912.7,154.9
			c0-3.6-0.5-6.9-1.5-9.7c-1-2.9-2.4-5.3-4.1-7.3c-1.8-2-4-3.5-6.5-4.6c-2.6-1.1-5.5-1.6-8.7-1.6h-12.8v46.4h12.8
			c3.2,0,6.1-0.5,8.7-1.6c2.6-1.1,4.7-2.6,6.5-4.6s3.2-4.4,4.1-7.3C912.3,161.7,912.7,158.5,912.7,154.9z"/>
		<path d="M1013.1,122c0.4,0,0.7,0.1,1,0.3c0.3,0.1,0.6,0.3,0.8,0.6c0.3,0.3,0.6,0.6,0.9,1l34.6,44.1c-0.1-1.1-0.2-2.1-0.3-3.1
			c0-1-0.1-2-0.1-2.8V122h10.8v65.9h-6.3c-1,0-1.8-0.2-2.4-0.5s-1.3-0.9-1.9-1.6l-34.5-43.9c0.1,1,0.2,1.9,0.2,2.9s0.1,1.8,0.1,2.6
			v40.5h-10.8V122h6.4C1012.3,121.9,1012.7,121.9,1013.1,122z"/>
		<path class="st0" d="M351.5,174.3c0.5,0,0.9,0.2,1.3,0.6l3.5,3.8c-2.7,3.1-5.9,5.5-9.7,7.2c-3.8,1.7-8.4,2.6-13.8,2.6
			c-4.7,0-9-0.8-12.8-2.4c-3.8-1.6-7.1-3.9-9.8-6.8c-2.7-2.9-4.8-6.5-6.3-10.6s-2.2-8.6-2.2-13.5s0.8-9.4,2.4-13.5s3.8-7.6,6.7-10.6
			c2.9-2.9,6.3-5.2,10.4-6.9c4-1.6,8.5-2.4,13.3-2.4s8.9,0.7,12.4,2.2s6.6,3.5,9.3,6.1l-2.9,4.1c-0.2,0.3-0.5,0.6-0.7,0.8
			c-0.3,0.2-0.7,0.3-1.2,0.3c-0.4,0-0.8-0.1-1.3-0.4c-0.4-0.3-1-0.6-1.6-1.1c-0.6-0.4-1.3-0.9-2.1-1.4c-0.8-0.5-1.8-0.9-2.9-1.4
			c-1.1-0.4-2.4-0.8-3.9-1.1s-3.2-0.4-5.2-0.4c-3.5,0-6.7,0.6-9.6,1.8s-5.4,2.9-7.5,5.1c-2.1,2.2-3.7,4.9-4.9,8.1
			c-1.2,3.2-1.8,6.8-1.8,10.7c0,4.1,0.6,7.7,1.8,10.9c1.2,3.2,2.8,5.9,4.8,8.1c2,2.2,4.4,3.9,7.2,5c2.8,1.2,5.7,1.7,8.9,1.7
			c1.9,0,3.7-0.1,5.2-0.3c1.6-0.2,3-0.6,4.3-1.1s2.6-1.1,3.7-1.8s2.3-1.6,3.4-2.7C350.5,174.6,351,174.3,351.5,174.3z"/>
		<path class="st0" d="M420.9,187.8H412v-29.7h-35.2v29.7h-8.9v-65.3h8.9v29.1H412v-29.1h8.9V187.8z"/>
		<path class="st0" d="M497.5,155.2c0,4.9-0.8,9.4-2.3,13.5c-1.6,4.1-3.7,7.6-6.6,10.6c-2.8,2.9-6.2,5.2-10.2,6.9
			c-4,1.6-8.4,2.4-13.2,2.4c-4.8,0-9.2-0.8-13.1-2.4c-4-1.6-7.3-3.9-10.2-6.9c-2.8-2.9-5-6.5-6.6-10.6s-2.3-8.6-2.3-13.5
			s0.8-9.4,2.3-13.5c1.6-4.1,3.7-7.6,6.6-10.6c2.8-3,6.2-5.3,10.2-6.9s8.3-2.5,13.1-2.5c4.8,0,9.2,0.8,13.2,2.5
			c4,1.6,7.4,3.9,10.2,6.9c2.8,3,5,6.5,6.6,10.6C496.7,145.8,497.5,150.3,497.5,155.2z M488.4,155.2c0-4-0.5-7.6-1.6-10.8
			s-2.6-5.9-4.7-8.1c-2-2.2-4.4-3.9-7.3-5.1c-2.9-1.2-6-1.8-9.6-1.8c-3.5,0-6.7,0.6-9.5,1.8c-2.9,1.2-5.3,2.9-7.3,5.1
			c-2,2.2-3.6,4.9-4.7,8.1c-1.1,3.2-1.6,6.8-1.6,10.8s0.5,7.6,1.6,10.8s2.7,5.9,4.7,8.1c2,2.2,4.5,3.9,7.3,5.1
			c2.9,1.2,6,1.8,9.5,1.8s6.7-0.6,9.6-1.8s5.3-2.9,7.3-5.1c2-2.2,3.6-4.9,4.7-8.1C487.9,162.8,488.4,159.2,488.4,155.2z"/>
		<path class="st0" d="M570.3,155.2c0,4.9-0.8,9.4-2.3,13.5c-1.6,4.1-3.7,7.6-6.6,10.6c-2.8,2.9-6.2,5.2-10.2,6.9
			c-4,1.6-8.4,2.4-13.2,2.4s-9.2-0.8-13.1-2.4c-4-1.6-7.3-3.9-10.2-6.9c-2.8-2.9-5-6.5-6.6-10.6s-2.3-8.6-2.3-13.5s0.8-9.4,2.3-13.5
			c1.6-4.1,3.7-7.6,6.6-10.6c2.8-3,6.2-5.3,10.2-6.9s8.3-2.5,13.1-2.5s9.2,0.8,13.2,2.5c4,1.6,7.4,3.9,10.2,6.9s5,6.5,6.6,10.6
			C569.5,145.8,570.3,150.3,570.3,155.2z M561.2,155.2c0-4-0.5-7.6-1.6-10.8s-2.6-5.9-4.7-8.1c-2-2.2-4.4-3.9-7.3-5.1
			c-2.9-1.2-6-1.8-9.6-1.8c-3.5,0-6.7,0.6-9.5,1.8c-2.9,1.2-5.3,2.9-7.3,5.1c-2,2.2-3.6,4.9-4.7,8.1c-1.1,3.2-1.6,6.8-1.6,10.8
			s0.5,7.6,1.6,10.8s2.7,5.9,4.7,8.1c2,2.2,4.5,3.9,7.3,5.1c2.9,1.2,6,1.8,9.5,1.8s6.7-0.6,9.6-1.8c2.9-1.2,5.3-2.9,7.3-5.1
			c2-2.2,3.6-4.9,4.7-8.1C560.7,162.8,561.2,159.2,561.2,155.2z"/>
		<path class="st0" d="M615.8,132.7c-0.3,0.5-0.6,0.8-0.9,1c-0.3,0.2-0.7,0.3-1.2,0.3s-1.1-0.3-1.8-0.8s-1.6-1.1-2.6-1.7
			c-1-0.6-2.3-1.2-3.8-1.7s-3.3-0.8-5.4-0.8c-2,0-3.7,0.3-5.2,0.8s-2.8,1.3-3.8,2.2s-1.8,2-2.3,3.2s-0.8,2.6-0.8,4
			c0,1.8,0.4,3.3,1.3,4.5c0.9,1.2,2.1,2.2,3.6,3.1c1.5,0.9,3.1,1.6,5,2.2c1.9,0.6,3.8,1.3,5.7,1.9c2,0.7,3.9,1.4,5.7,2.3
			c1.9,0.8,3.5,1.9,5,3.2s2.7,2.8,3.6,4.7c0.9,1.9,1.3,4.1,1.3,6.8c0,2.9-0.5,5.5-1.5,8s-2.4,4.7-4.3,6.5c-1.9,1.9-4.2,3.3-6.9,4.4
			c-2.7,1.1-5.8,1.6-9.3,1.6c-4.2,0-8.1-0.8-11.6-2.3s-6.5-3.6-8.9-6.2l2.6-4.2c0.2-0.3,0.5-0.6,0.9-0.8c0.3-0.2,0.7-0.3,1.2-0.3
			c0.6,0,1.4,0.3,2.2,1s1.8,1.4,3.1,2.3c1.2,0.8,2.7,1.6,4.5,2.3c1.7,0.7,3.9,1,6.4,1c2.1,0,4-0.3,5.6-0.9c1.6-0.6,3-1.4,4.2-2.4
			c1.1-1,2-2.3,2.6-3.8s0.9-3.1,0.9-4.9c0-2-0.4-3.6-1.3-4.9c-0.9-1.3-2.1-2.3-3.5-3.2c-1.5-0.9-3.1-1.6-5-2.2
			c-1.9-0.6-3.8-1.2-5.7-1.8c-2-0.6-3.9-1.3-5.7-2.2c-1.9-0.8-3.5-1.9-5-3.2s-2.6-2.9-3.5-4.9s-1.3-4.4-1.3-7.3
			c0-2.3,0.4-4.5,1.3-6.7c0.9-2.2,2.2-4.1,3.9-5.7c1.7-1.7,3.8-3,6.3-4s5.4-1.5,8.6-1.5c3.6,0,7,0.6,10,1.7c3,1.2,5.6,2.8,7.9,5
			L615.8,132.7z"/>
		<path class="st0" d="M671,122.5v7.2h-31.4v21.7H665v6.9h-25.4v22.3H671v7.2h-40.3v-65.3L671,122.5L671,122.5z"/>
	</g>
	<g id="ON">
		<path class="st1" d="M930,158.3c-1.1-12,4-23,12.6-29.9c3.3-2.7,8.3-0.4,8.3,3.9l0,0c0,1.6-0.7,3-2,4c-6,4.9-9.7,12.7-8.8,21.3
			c1.2,11.2,10.1,20.2,21.3,21.5c14.6,1.6,26.9-9.8,26.9-24c0-7.6-3.5-14.3-9-18.7c-1.2-1-1.9-2.4-1.9-4l0,0c0-4.2,4.9-6.6,8.2-4
			c7.8,6.3,12.8,15.9,12.8,26.7c0,19.7-16.8,35.6-36.8,34.2C945.1,188,931.6,174.8,930,158.3z M964.1,113.1c-2.8,0-5.1,2.3-5.1,5.1
			v23.3c0,2.8,2.3,5.1,5.1,5.1s5.1-2.3,5.1-5.1v-23.3C969.2,115.4,966.9,113.1,964.1,113.1z"/>
	</g>
</g>
<g id="Color_2_">
	<g id="Red_2_">
		<path class="st2" d="M263.8,190.6c0,0,2.5,0.3,2.5,4.5s-1,4.6-4.3,6.6c-3.3,1.9-108.8,64.2-110.7,64.6s-3.5,1.9-8-0.1
			s-115-66.2-115.1-67c-0.1-0.8-1-5.6,0.3-6.8l3.2-2.2l112.9-67c0,0,1.6-1.1,3.4,0C149.9,124.2,263.8,190.6,263.8,190.6z"/>
		<path class="st2" d="M146,262.8L31.6,196.1c-2.2-1.3-2.3-4.5,0-5.9l113.1-67.1c1.1-0.6,2.4-0.6,3.4,0l115,67
			c2.2,1.3,2.3,4.5,0,5.9l-113.8,66.8C148.3,263.4,147,263.4,146,262.8z"/>
	</g>
	<g id="Yellow_2_">
		<path class="st3" d="M263.8,168.8c0,0,2.5,0.3,2.5,4.5s-1,4.6-4.3,6.6c-3.3,1.9-108.8,64.3-110.7,64.5s-3.5,2-8.1,0
			c-4.5-2-115-66.2-115.1-67c-0.1-0.8-1-5.6,0.3-6.8l3.2-2.2l112.9-67c0,0,1.6-1.1,3.4,0C149.9,102.4,263.8,168.8,263.8,168.8z"/>
		<path class="st4" d="M146,241L31.6,174.3c-2.2-1.3-2.3-4.5,0-5.9l113.1-67.1c1.1-0.6,2.4-0.6,3.4,0l115,67c2.2,1.3,2.3,4.5,0,5.9
			L149.3,241C148.3,241.6,147,241.6,146,241z"/>
	</g>
	<g id="Green_2_">
		<path class="st5" d="M263.8,143.7c0,0,2.5,0.3,2.5,4.5s-1,4.6-4.3,6.6c-3.3,1.9-108.8,64.3-110.7,64.5s-3.5,2-8.1,0
			c-4.5-2-115-66.2-115.1-67c-0.1-0.8-1-5.6,0.3-6.8l3.2-2.2l112.9-67c0,0,1.6-1.1,3.4,0C149.9,77.3,263.8,143.7,263.8,143.7z"/>
		<path class="st6" d="M146,215.9L31.6,149.2c-2.2-1.3-2.3-4.5,0-5.9l113.1-67.1c1.1-0.6,2.4-0.6,3.4,0l115,67
			c2.2,1.3,2.3,4.5,0,5.9l-113.8,66.8C148.3,216.5,147,216.5,146,215.9z"/>
	</g>
	<g id="Blue_2_">
		<path class="st7" d="M263.8,120.3c0,0,2.5,0.3,2.5,4.5s-1,4.6-4.3,6.6c-3.3,1.9-108.8,64.3-110.7,64.5s-3.5,2-8.1,0
			c-4.5-2-115-66.2-115.1-67c-0.1-0.8-1-5.6,0.3-6.8l3.2-2.2l112.9-67c0,0,1.6-1.1,3.4,0C149.9,53.9,263.8,120.3,263.8,120.3z"/>
		<path class="st8" d="M146,192.5L31.6,125.8c-2.2-1.3-2.3-4.5,0-5.9l113.1-67.1c1.1-0.6,2.4-0.6,3.4,0l115,67
			c2.2,1.3,2.3,4.5,0,5.9l-113.8,66.8C148.3,193.1,147,193.1,146,192.5z"/>
	</g>
	<g id="Purple_2_">
		<path class="st9" d="M263.8,96.6c0,0,2.5,0.3,2.5,4.5s-1,4.6-4.3,6.6c-3.3,1.9-108.8,64.3-110.7,64.5s-3.5,2-8.1,0
			c-4.5-2-115-66.2-115.1-67c-0.1-0.8-1-5.6,0.3-6.8l3.2-2.2l112.9-67c0,0,1.6-1.1,3.4,0C149.9,30.1,263.8,96.6,263.8,96.6z"/>
		<path class="st10" d="M146,168.7L31.6,102.1c-2.2-1.3-2.3-4.5,0-5.9l113.1-67.1c1.1-0.6,2.4-0.6,3.4,0l115,67
			c2.2,1.3,2.3,4.5,0,5.9l-113.8,66.8C148.3,169.3,147,169.3,146,168.7z"/>
	</g>
	<g id="Tree_2_">
		<path class="st11" d="M224,158.1c0,0-5.3,5.3-9.2,9.2s-4.1,6.7-4.1,6.7s0,14.5,0,18.9c0,3-6,8.7-6,8.7l-31.2,29.8
			c-1.3,1.3-3,2-4.8,2.3l-8.2,1"/>
		<line class="st11" x1="210.7" y1="189.3" x2="221.5" y2="178.7"/>
		<line class="st11" x1="160.4" y1="222.4" x2="192.2" y2="190.9"/>
		<line class="st11" x1="225.8" y1="138.2" x2="160.2" y2="204"/>
		<line class="st11" x1="198.5" y1="165.6" x2="176.1" y2="147.4"/>
		<path class="st11" d="M212.8,151.2v-13.9c0,0,0.1-8.3,3.3-11.7c3.2-3.4,8.1-8.5,8.1-8.5"/>
		<path class="st11" d="M191,159.5v-52.9c0,0,0.6-5.6-2.7-9.2s-6.6-4-6.6-9.5s0-18.5,0-18.5"/>
		<path class="st11" d="M191.1,109.1l8.1-8.1c0,0,2.5-2.9,2.5-5.7c0-3.9,0-11.8,0-11.8"/>
		<path class="st11" d="M191.1,149.2c0,0,11.6-8.5,11.5-11s0-19.7,0-19.7V116c0,0-0.3-2.1,3-5.6c3.3-3.6,7.6-8,7.6-8"/>
		<line class="st11" x1="191.1" y1="117.9" x2="181.7" y2="109.1"/>
		<g>
			<path class="st12" d="M162,260.3l-3.4,2V124.8l0.1-0.3c0.1-0.2,1.9-5.9,5.2-8.7c1.9-2.1,2-4.6,2-4.6V80.3h3.5v30.9
				c0,0.2,0,4-3,7.1l-0.1,0.1c-2,1.7-3.6,5.4-4.1,6.9L162,260.3z"/>
		</g>
		<path class="st11" d="M167.6,91.9l-7.2-7.1c0,0-4.3-3.4-4.3-7.3s0-14,0-14"/>
		<line class="st11" x1="160.3" y1="139.1" x2="172.5" y2="128.4"/>
		<path class="st11" d="M160.3,160.9l-8.4-8c0,0-3-3.7-3-8.5s0-8.5,0-8.5"/>
		<path class="st11" d="M139.6,183.6l-0.4-58.3c0,0-0.9-2.8,4.9-8.1c5.8-5.3,8-9.3,8-13s-0.3-14.3-2.5-17s-8.4-5.1-8.7-9.5
			c-0.4-4.4-0.4-15.3-0.4-15.3"/>
		<line class="st11" x1="151" y1="108.7" x2="142.4" y2="100.3"/>
		<path class="st11" d="M139.2,138.8c0,0-12.1-8.3-12.1-15.7c0-7.4,0-42.8,0-42.8"/>
		<path class="st11" d="M127.8,172.9v-24.5c0,0-0.4-2.8-3.6-6.2s-7.4-7.9-7.4-7.9"/>
		<line class="st11" x1="130.9" y1="217.1" x2="102.8" y2="195.3"/>
		<path class="st11" d="M130.9,235.3l-39.5-31.5c0,0-8.5-5-8.5-12s0-17.1,0-17.1s0.3-3.1-2.3-5.7c-2.6-2.6-9.9-10.1-9.9-10.1"/>
		<line class="st11" x1="82.9" y1="188.6" x2="73" y2="179.5"/>
		<path class="st11" d="M101.9,149.2v-44.7c0,0,0.5-4,4-6.9c3.4-2.9,5.7-4.6,5.7-10.2s0-17.1,0-17.1"/>
		<path class="st11" d="M101.9,109.5l-7.3-7c0,0-2.8-2-2.8-7.4s0-11.6,0-11.6"/>
		<path class="st11" d="M160.3,202l-66.8-59.3c0,0-2.5-3-2.5-9.5c0-9.4,0-15.5,0-15.5s-0.2-4.6-3.7-8.1s-7.2-7-7.2-7"/>
		<g>
			<polygon class="st12" points="132.4,260.1 129.1,258.2 129,191.1 68.5,138.4 70.8,135.8 132.5,189.6 			"/>
		</g>
		<path class="st11" d="M80.2,147.4v-16c0,0-0.7-5.7-4.2-8.7c-5.1-4.4-4.2-3.6-4.2-3.6"/>
		<line class="st11" x1="101.9" y1="119.9" x2="111.5" y2="110.3"/>
		<circle class="st13" cx="201.6" cy="78.7" r="4.8"/>
		<circle class="st13" cx="181.7" cy="64.7" r="4.8"/>
		<circle class="st13" cx="167.6" cy="75.5" r="4.8"/>
		<circle class="st13" cx="139.8" cy="97.1" r="4.8"/>
		<circle class="st13" cx="127" cy="75.5" r="4.8"/>
		<circle class="st13" cx="156" cy="58.8" r="4.8"/>
		<circle class="st13" cx="140.3" cy="57.6" r="4.8"/>
		<circle class="st13" cx="215.5" cy="99.7" r="4.8"/>
		<circle class="st13" cx="226.3" cy="114.5" r="4.8"/>
		<circle class="st13" cx="228.5" cy="135.5" r="4.8"/>
		<circle class="st13" cx="226.6" cy="155" r="4.8"/>
		<circle class="st13" cx="224.3" cy="176" r="4.8"/>
		<circle class="st13" cx="194.8" cy="187.9" r="4.8"/>
		<circle class="st13" cx="173.3" cy="145" r="4.8"/>
		<circle class="st13" cx="175.5" cy="125.9" r="4.8"/>
		<circle class="st13" cx="149" cy="131.1" r="4.8"/>
		<circle class="st13" cx="114.6" cy="131.6" r="4.8"/>
		<circle class="st13" cx="114.5" cy="107.7" r="4.8"/>
		<circle class="st13" cx="111.5" cy="66.4" r="4.8"/>
		<circle class="st13" cx="91.8" cy="79.5" r="4.8"/>
		<circle class="st13" cx="77.5" cy="99.7" r="4.8"/>
		<circle class="st13" cx="67.5" cy="115.5" r="4.8"/>
		<circle class="st13" cx="67.5" cy="134.2" r="4.8"/>
		<circle class="st13" cx="68.2" cy="156.5" r="4.8"/>
		<circle class="st13" cx="70.2" cy="176.7" r="4.8"/>
		<circle class="st13" cx="98.6" cy="192.6" r="4.8"/>
		<circle class="st13" cx="178.7" cy="106.7" r="4.8"/>
	</g>
</g>
</svg>
