<?xml version="1.0" encoding="UTF-8" standalone="no"?>
<!-- Created with Inkscape (http://www.inkscape.org/) -->

<svg
   xmlns:dc="http://purl.org/dc/elements/1.1/"
   xmlns:cc="http://creativecommons.org/ns#"
   xmlns:rdf="http://www.w3.org/1999/02/22-rdf-syntax-ns#"
   xmlns:svg="http://www.w3.org/2000/svg"
   xmlns="http://www.w3.org/2000/svg"
   xmlns:sodipodi="http://sodipodi.sourceforge.net/DTD/sodipodi-0.dtd"
   xmlns:inkscape="http://www.inkscape.org/namespaces/inkscape"
   width="456.80017"
   height="152.59999"
   viewBox="0 0 120.8617 40.375415"
   version="1.1"
   id="svg10240"
   inkscape:version="0.92.0 r15299"
   sodipodi:docname="libro credit union.svg">
  <defs
     id="defs10234" />
  <sodipodi:namedview
     id="base"
     pagecolor="#ffffff"
     bordercolor="#666666"
     borderopacity="1.0"
     inkscape:pageopacity="0.0"
     inkscape:pageshadow="2"
     inkscape:zoom="1.7634125"
     inkscape:cx="227.40015"
     inkscape:cy="75.300001"
     inkscape:document-units="mm"
     inkscape:current-layer="layer1"
     showgrid="false"
     fit-margin-top="0"
     fit-margin-left="0"
     fit-margin-right="0"
     fit-margin-bottom="0"
     units="px"
     inkscape:window-width="1280"
     inkscape:window-height="744"
     inkscape:window-x="-4"
     inkscape:window-y="-4"
     inkscape:window-maximized="1" />
  <metadata
     id="metadata10237">
    <rdf:RDF>
      <cc:Work
         rdf:about="">
        <dc:format>image/svg+xml</dc:format>
        <dc:type
           rdf:resource="http://purl.org/dc/dcmitype/StillImage" />
        <dc:title></dc:title>
      </cc:Work>
    </rdf:RDF>
  </metadata>
  <g
     inkscape:label="Layer 1"
     inkscape:groupmode="layer"
     id="layer1"
     transform="translate(192.45796,-206.24414)">
    <g
       id="g10274"
       transform="translate(0.26458594,-0.26457721)">
      <path
         id="path10244"
         d="m -160.52271,212.38247 c -0.76729,-0.82021 -1.79917,-1.29646 -2.93688,-1.34938 h -0.15875 c -1.11125,0 -2.16958,0.39688 -2.98979,1.16417 -0.82021,0.76729 -1.29646,1.79916 -1.32292,2.91041 v 0.10584 c 0,0 0,0.0265 0.0265,0.0265 1.69334,0.34395 3.28084,0.79375 4.73604,1.29645 1.0848,-0.44979 2.3548,-0.84666 3.75709,-1.1377 0,0 0.0265,0 0.0265,-0.0265 0.0529,-1.08479 -0.37042,-2.16959 -1.13771,-2.98979"
         class="st0"
         inkscape:connector-curvature="0"
         style="fill:#fdb913;stroke-width:0.26458332" />
      <path
         id="path10246"
         d="m -136.55146,216.32476 c -2.54,-0.29104 -5.02709,-0.50271 -7.38188,-0.635 -1.24354,-0.0529 -2.46062,-0.10584 -3.59833,-0.10584 -4.23333,-0.0529 -7.88458,0.26459 -10.82146,0.87313 -1.05833,0.21167 -2.01083,0.47625 -2.91042,0.79375 v 0.0529 c 2.06375,0.8202 3.81,1.7727 5.2123,2.8575 4.25979,-1.61396 11.1125,-3.59834 19.47333,-3.81 0.0265,0.0264 0.0265,0 0.0265,-0.0265 0,0.0265 0,0 0,0"
         class="st1"
         inkscape:connector-curvature="0"
         style="fill:#6dcff6;stroke-width:0.26458332" />
      <path
         id="path10248"
         d="m -157.55938,220.76976 c -1.48167,-1.08479 -3.41312,-2.06375 -5.58271,-2.8575 -1.45521,-0.52917 -3.04271,-0.97896 -4.7625,-1.32292 -2.56646,-0.55562 -5.3975,-0.89958 -8.41375,-1.05833 -0.89958,-0.0529 -1.85208,-0.0794 -2.80458,-0.0794 -4.10104,-0.0529 -8.5725,0.26459 -13.30854,0.87313 0,0 -0.0265,0 -0.0265,0.0265 0,0 0,0.0264 0.0265,0.0264 0.3175,0.0265 0.66146,0.0265 1.00541,0.0529 2.09021,0.10583 4.23334,0.21167 6.24417,0.44979 5.66208,0.66146 15.98083,2.43417 21.40479,6.87917 0.0265,0 1.66688,-0.92604 2.91042,-1.53458 1.64042,-0.7673 2.91042,-1.29646 3.25437,-1.42875 0.0529,0 0.0529,0 0.0529,-0.0265"
         class="st2"
         inkscape:connector-curvature="0"
         style="fill:#c1cd23;stroke-width:0.26458332" />
      <path
         id="path10250"
         d="m -133.6675,246.61955 c -1.29646,0 -2.11667,-0.92604 -2.11667,-2.32833 0,-1.4023 0.84667,-2.32834 2.11667,-2.32834 0.52916,0 0.92604,0.13229 1.27,0.3175 l -0.1323,0.82021 c -0.29104,-0.21167 -0.66145,-0.39687 -1.08479,-0.39687 -0.79375,0 -1.29646,0.60854 -1.29646,1.5875 0,0.97895 0.52917,1.5875 1.32292,1.5875 0.42333,0 0.79375,-0.15875 1.13771,-0.37042 l 0.10583,0.74083 c -0.34396,0.21167 -0.82021,0.37042 -1.32291,0.37042 m 6.08541,-0.21167 -0.87312,0.15875 -1.16417,-1.77271 h -0.39687 v 1.7198 h -0.87313 v -4.49792 h 1.40229 c 1.00542,0 1.61396,0.47625 1.61396,1.34937 0,0.66146 -0.34396,1.05834 -0.89958,1.27 z m -1.98437,-3.67771 h -0.47625 v 1.42875 h 0.44979 c 0.52917,0 0.87312,-0.26458 0.87312,-0.71437 -0.0265,-0.44979 -0.3175,-0.71438 -0.84666,-0.71438 m 3.175,3.81 v -4.49791 h 2.61937 v 0.74083 h -1.74625 v 1.03188 h 1.34938 l 0.10583,0.74083 h -1.45521 v 1.24354 h 1.82563 v 0.74083 z m 5.45041,0 h -1.40229 v -4.49791 h 1.42875 c 1.56104,0 2.38125,0.92604 2.38125,2.24896 -0.0265,1.32291 -0.87312,2.24895 -2.40771,2.24895 m 0,-3.78354 h -0.55562 v 3.06917 h 0.55562 c 0.9525,0 1.50813,-0.47625 1.50813,-1.53458 0,-1.03188 -0.60854,-1.53459 -1.50813,-1.53459 m 3.86292,-0.71437 h 0.87313 v 4.49791 h -0.87313 z m 4.39208,0.74083 v 3.75708 h -0.84666 v -3.75708 h -1.34938 v -0.74083 h 3.4925 l 0.13229,0.74083 z m 6.4823,3.83646 c -1.0848,0 -1.79917,-0.635 -1.79917,-1.82563 v -2.75166 h 0.84667 v 2.69875 c 0,0.68791 0.3175,1.11125 0.9525,1.11125 0.635,0 0.9525,-0.39688 0.9525,-1.08479 v -2.72521 h 0.87312 v 2.72521 c 0,1.19062 -0.74083,1.85208 -1.82562,1.85208 m 6.297079,-0.0794 -2.116669,-3.09562 v 3.09562 h -0.79375 v -4.49791 h 0.82021 l 2.010834,2.93687 v -2.93687 h 0.79375 v 4.49791 z m 2.354791,-4.49791 h 0.873125 v 4.49791 h -0.873125 z m 4.418542,4.57729 c -1.27,0 -2.090208,-0.92604 -2.090208,-2.32833 0,-1.4023 0.846666,-2.32834 2.116666,-2.32834 1.296459,0 2.090209,0.92604 2.090209,2.32834 0,1.37583 -0.820209,2.32833 -2.116667,2.32833 m 0.02646,-3.94229 c -0.767291,0 -1.243541,0.635 -1.243541,1.61396 0,0.97895 0.47625,1.61395 1.243541,1.61395 0.767292,0 1.243542,-0.635 1.243542,-1.61395 -0.02646,-0.97896 -0.47625,-1.61396 -1.243542,-1.61396 m 6.429375,3.86291 -2.116666,-3.09562 v 3.09562 h -0.79375 v -4.49791 h 0.820208 l 2.010833,2.93687 v -2.93687 h 0.820209 v 4.49791 z m -59.954587,-9.23395 v -27.14625 l 3.83646,-1.27 v 25.00312 h 9.28688 v 3.41313 z m 15.74271,0 v -19.12938 l 3.81,-1.27 v 20.39938 z m 14.10229,0.42333 c -2.83104,0 -4.86833,-0.635 -6.0325,-1.32292 V 208.0433 l 3.78354,-1.27 v 10.4775 c 1.37584,-0.52917 2.75167,-0.87313 4.39209,-0.87313 4.81541,0 9.23396,3.28084 9.23396,10.00125 0,7.17021 -5.2123,11.35063 -11.37709,11.35063 m 1.50813,-17.93875 c -1.85209,0 -2.88396,0.52917 -3.75709,0.89958 v 13.30854 c 0.87313,0.34396 1.77271,0.47625 3.01625,0.47625 3.83646,0 6.7998,-3.43958 6.7998,-7.88458 0.0264,-3.86292 -2.16959,-6.79979 -6.05896,-6.79979 m 40.348957,-0.635 c 1.799167,1.905 2.804583,4.65667 2.804583,7.9375 0,3.28083 -1.031875,6.08542 -2.883958,7.96396 -1.693333,1.71979 -4.021666,2.67229 -6.773333,2.67229 -2.672292,0 -4.92125,-0.87313 -6.588125,-2.48708 -1.905,-1.905 -2.936875,-4.78896 -2.936875,-8.09625 0,-3.3073 1.031875,-6.08542 2.883958,-8.01688 1.693334,-1.71979 3.96875,-2.72521 6.693959,-2.72521 2.778125,0 5.106458,0.97896 6.799791,2.75167 m -12.514791,7.88458 c 0,4.52438 2.143125,7.54063 5.741458,7.54063 3.571875,0 5.635625,-3.06917 5.635625,-7.54063 0,-4.52437 -2.06375,-7.48771 -5.741458,-7.48771 -3.65125,0 -5.635625,3.01625 -5.635625,7.48771 m -3.942292,-10.02771 c -0.873125,-0.15875 -1.772708,-0.26458 -2.54,-0.26458 -1.375833,0 -2.513542,0.0794 -4.048125,0.635 -1.719792,0.58208 -3.492499,1.79917 -4.815419,3.25438 l -0.21167,0.26458 v 16.40417 h 3.836464 v -15.39875 c 1.27,-1.11125 2.910417,-2.01084 4.60375,-2.01084 h 0.05292 c 0.449791,0 1.217083,0.0265 1.799166,0.15875 l 0.211667,0.0529 0.07937,-0.18521 c 0.291042,-0.635 0.661458,-1.37583 0.978958,-2.03729 l 0.396875,-0.79375 z"
         class="st3"
         inkscape:connector-curvature="0"
         style="fill:#007ac1;stroke-width:0.26458332" />
    </g>
  </g>
  <style
     id="style10242">.st0{fill:#fdb913}.st1{fill:#6dcff6}.st2{fill:#c1cd23}.st3{fill:#007ac1}</style>
</svg>
