<svg id="Layer_1" data-name="Layer 1" xmlns="http://www.w3.org/2000/svg" viewBox="0 0 306.91 30.9"><defs><style>.cls-1{fill:#b62025;stroke:#b62025;stroke-miterlimit:10;stroke-width:0.83px;}.cls-2{fill:#010101;}</style></defs><title>logo-short</title><g id="Text"><g id="TEXT-2" data-name="TEXT"><path d="M160.58,28.18h10.66v4.08H155.61V5.65h5Z" transform="translate(-1.89 -2.1)"/><path d="M198.69,19a14.73,14.73,0,0,1-1,5.41A12.89,12.89,0,0,1,195,28.71a11.81,11.81,0,0,1-4.24,2.82,14.09,14.09,0,0,1-5.49,1,14.4,14.4,0,0,1-5.53-1,12.82,12.82,0,0,1-4.28-2.82,13.08,13.08,0,0,1-2.75-4.32,14.94,14.94,0,0,1-1-5.41,14.9,14.9,0,0,1,1-5.41,13,13,0,0,1,2.75-4.32,12,12,0,0,1,4.28-2.83,14.26,14.26,0,0,1,5.53-1,14.1,14.1,0,0,1,5.49,1A13.13,13.13,0,0,1,195,9.29a12.8,12.8,0,0,1,2.74,4.32A14.19,14.19,0,0,1,198.69,19Zm-5,0a13,13,0,0,0-.57-3.92,8.44,8.44,0,0,0-1.65-3,7.65,7.65,0,0,0-2.63-1.85,9.8,9.8,0,0,0-7,0,7.44,7.44,0,0,0-2.67,1.85,8.36,8.36,0,0,0-1.69,3,11.73,11.73,0,0,0-.61,3.92,11.55,11.55,0,0,0,.61,3.91,8.36,8.36,0,0,0,1.69,2.95,7.47,7.47,0,0,0,2.67,1.86,9.95,9.95,0,0,0,7,0,7.31,7.31,0,0,0,2.63-1.86,7.86,7.86,0,0,0,1.65-2.95A13.17,13.17,0,0,0,193.65,19Z" transform="translate(-1.89 -2.1)"/><path d="M205.76,5.69a.68.68,0,0,1,.4.12.73.73,0,0,1,.33.25,3.61,3.61,0,0,1,.36.4l14,17.81c0-.45-.08-.85-.12-1.26s0-.8,0-1.13V5.69H225V32.3h-2.54a2.16,2.16,0,0,1-1-.2,2.49,2.49,0,0,1-.77-.65L206.81,13.73a11.5,11.5,0,0,1,.08,1.17c0,.4,0,.73,0,1V32.3h-4.36V5.69h2.58A1.53,1.53,0,0,1,205.76,5.69Z" transform="translate(-1.89 -2.1)"/><path d="M254.09,19a14.37,14.37,0,0,1-1,5.37,12.53,12.53,0,0,1-2.74,4.2,12.26,12.26,0,0,1-4.24,2.74,14.91,14.91,0,0,1-5.5,1H230.47V5.65h10.17a15.12,15.12,0,0,1,5.5,1,12.15,12.15,0,0,1,7,7A14.54,14.54,0,0,1,254.09,19ZM249,19a11.83,11.83,0,0,0-.6-3.92,9.15,9.15,0,0,0-1.66-3,7.61,7.61,0,0,0-2.62-1.85,8.83,8.83,0,0,0-3.52-.65h-5.16V28.34h5.16a9,9,0,0,0,3.52-.64,7.28,7.28,0,0,0,2.62-1.86,7.88,7.88,0,0,0,1.66-2.95A11,11,0,0,0,249,19Z" transform="translate(-1.89 -2.1)"/><path d="M289.54,5.69a.68.68,0,0,1,.4.12.68.68,0,0,1,.33.25,3.61,3.61,0,0,1,.36.4l14,17.81c0-.45-.08-.85-.12-1.26s0-.8,0-1.13V5.69h4.36V32.3h-2.54a2.16,2.16,0,0,1-1-.2,2.61,2.61,0,0,1-.77-.65L290.59,13.73a11.5,11.5,0,0,1,.08,1.17c0,.4,0,.73,0,1V32.3h-4.36V5.69h2.58A1.53,1.53,0,0,1,289.54,5.69Z" transform="translate(-1.89 -2.1)"/><path class="cls-1" d="M22.41,26.81a.74.74,0,0,1,.53.24l1.41,1.54a11.05,11.05,0,0,1-3.92,2.9,13.5,13.5,0,0,1-5.57,1.05,13.2,13.2,0,0,1-5.17-1,11.35,11.35,0,0,1-3.95-2.74,12.53,12.53,0,0,1-2.55-4.28A15.9,15.9,0,0,1,2.3,19.1a15,15,0,0,1,1-5.45A12.7,12.7,0,0,1,6,9.37a12.75,12.75,0,0,1,4.2-2.79,14.53,14.53,0,0,1,5.37-1,12.69,12.69,0,0,1,5,.89A12.36,12.36,0,0,1,24.31,9l-1.17,1.66a1.82,1.82,0,0,1-.29.32.85.85,0,0,1-.48.12,1,1,0,0,1-.52-.16,7.54,7.54,0,0,1-.65-.44c-.24-.16-.53-.37-.85-.57a10.79,10.79,0,0,0-1.17-.56,10.74,10.74,0,0,0-1.57-.45,11,11,0,0,0-2.1-.16,9.94,9.94,0,0,0-3.88.73,8.72,8.72,0,0,0-3,2.06,9.54,9.54,0,0,0-2,3.27A12.35,12.35,0,0,0,5.9,19.1a12.53,12.53,0,0,0,.72,4.4,10.13,10.13,0,0,0,1.94,3.27,7.79,7.79,0,0,0,2.91,2,9,9,0,0,0,3.59.69,16.29,16.29,0,0,0,2.1-.13,7.38,7.38,0,0,0,1.74-.44,7.93,7.93,0,0,0,1.49-.73,7.35,7.35,0,0,0,1.37-1.09A1.32,1.32,0,0,1,22.41,26.81Z" transform="translate(-1.89 -2.1)"/><path class="cls-1" d="M50.43,32.26H46.84v-12H32.63v12H29V5.9h3.6V17.64H46.84V5.9h3.59Z" transform="translate(-1.89 -2.1)"/><path class="cls-1" d="M81.36,19.1a15.66,15.66,0,0,1-.93,5.45,12,12,0,0,1-6.78,7.07,14.36,14.36,0,0,1-5.33,1,14,14,0,0,1-5.29-1,11.66,11.66,0,0,1-4.12-2.79,12.76,12.76,0,0,1-2.66-4.28,14.79,14.79,0,0,1-.93-5.45,15.62,15.62,0,0,1,.93-5.45,12.44,12.44,0,0,1,2.66-4.28A11.31,11.31,0,0,1,63,6.58a14.12,14.12,0,0,1,5.29-1,13.61,13.61,0,0,1,5.33,1,11.4,11.4,0,0,1,4.12,2.79,13.07,13.07,0,0,1,2.66,4.28A15.62,15.62,0,0,1,81.36,19.1Zm-3.67,0A13.45,13.45,0,0,0,77,14.74a8.68,8.68,0,0,0-1.9-3.27,8,8,0,0,0-3-2.06,9.78,9.78,0,0,0-3.87-.73,9.63,9.63,0,0,0-3.84.73,7.94,7.94,0,0,0-2.94,2.06,9.24,9.24,0,0,0-1.9,3.27A13.19,13.19,0,0,0,59,19.1a13.23,13.23,0,0,0,.65,4.36,9.24,9.24,0,0,0,1.9,3.27,8.41,8.41,0,0,0,2.94,2.06,10,10,0,0,0,3.84.73,10.11,10.11,0,0,0,3.87-.73,8.09,8.09,0,0,0,3-2.06A9.24,9.24,0,0,0,77,23.46,13.49,13.49,0,0,0,77.69,19.1Z" transform="translate(-1.89 -2.1)"/><path class="cls-1" d="M110.75,19.1a15.9,15.9,0,0,1-.92,5.45,12.71,12.71,0,0,1-2.67,4.28A12.4,12.4,0,0,1,103,31.62a14.32,14.32,0,0,1-5.33,1,14,14,0,0,1-5.29-1,11.84,11.84,0,0,1-4.12-2.79,12.92,12.92,0,0,1-2.66-4.28,14.79,14.79,0,0,1-.93-5.45,15.62,15.62,0,0,1,.93-5.45A12.59,12.59,0,0,1,88.3,9.37a11.48,11.48,0,0,1,4.12-2.79,14.16,14.16,0,0,1,5.29-1,13.57,13.57,0,0,1,5.33,1,11.31,11.31,0,0,1,4.12,2.79,13.26,13.26,0,0,1,2.67,4.28A15.86,15.86,0,0,1,110.75,19.1Zm-3.67,0a13.19,13.19,0,0,0-.65-4.36,8.8,8.8,0,0,0-1.89-3.27,8.06,8.06,0,0,0-3-2.06,9.8,9.8,0,0,0-3.88-.73,9.58,9.58,0,0,0-3.83.73,8.06,8.06,0,0,0-2.95,2.06A9.39,9.39,0,0,0,89,14.74a13.46,13.46,0,0,0-.64,4.36A13.5,13.5,0,0,0,89,23.46a9.39,9.39,0,0,0,1.9,3.27,8.54,8.54,0,0,0,2.95,2.06,9.9,9.9,0,0,0,3.83.73,10.12,10.12,0,0,0,3.88-.73,8.18,8.18,0,0,0,3-2.06,9.38,9.38,0,0,0,1.89-3.27A13.23,13.23,0,0,0,107.08,19.1Z" transform="translate(-1.89 -2.1)"/><path class="cls-1" d="M129.13,10a1.27,1.27,0,0,1-.37.41.85.85,0,0,1-.48.12,1.4,1.4,0,0,1-.73-.32c-.28-.21-.65-.45-1-.69A7.89,7.89,0,0,0,125,8.84a7,7,0,0,0-2.18-.32,6.58,6.58,0,0,0-2.1.32,4.46,4.46,0,0,0-1.54.89,3.8,3.8,0,0,0-.93,1.29,4.33,4.33,0,0,0-.32,1.62,2.91,2.91,0,0,0,.53,1.82,5,5,0,0,0,1.45,1.25,9.62,9.62,0,0,0,2,.89c.76.24,1.53.52,2.3.76a19.71,19.71,0,0,1,2.3.93,7.57,7.57,0,0,1,2,1.29,5.59,5.59,0,0,1,1.45,1.9,6.22,6.22,0,0,1,.53,2.75,8.4,8.4,0,0,1-.61,3.23,7.31,7.31,0,0,1-1.73,2.62,8.34,8.34,0,0,1-2.79,1.78,10,10,0,0,1-3.75.64,11.75,11.75,0,0,1-4.69-.93,10.39,10.39,0,0,1-3.59-2.5l1-1.69a.89.89,0,0,1,.36-.33.87.87,0,0,1,.49-.12,1.39,1.39,0,0,1,.88.41,15.07,15.07,0,0,0,1.26.92,8.94,8.94,0,0,0,1.81.93,6.84,6.84,0,0,0,2.59.41,6.34,6.34,0,0,0,2.26-.37,5.61,5.61,0,0,0,1.69-1,4,4,0,0,0,1-1.53,5.1,5.1,0,0,0,.37-2,3.33,3.33,0,0,0-.53-2,4.86,4.86,0,0,0-1.41-1.29,9.34,9.34,0,0,0-2-.89l-2.3-.72a15,15,0,0,1-2.3-.89,7.66,7.66,0,0,1-2-1.29,5.68,5.68,0,0,1-1.42-2,7.21,7.21,0,0,1-.52-3,7.1,7.1,0,0,1,.52-2.71,6.66,6.66,0,0,1,1.58-2.3,7.46,7.46,0,0,1,2.54-1.61,9.23,9.23,0,0,1,3.48-.61,11.59,11.59,0,0,1,4,.69,9.67,9.67,0,0,1,3.19,2Z" transform="translate(-1.89 -2.1)"/><path class="cls-1" d="M151.41,5.9V8.8H138.73v8.76H149v2.79H138.73v9h12.68v2.91H135.14V5.9Z" transform="translate(-1.89 -2.1)"/></g><g id="ON"><path class="cls-2" d="M256,20.35a13.75,13.75,0,0,1,5.09-12.07,2,2,0,0,1,3.35,1.57h0a2,2,0,0,1-.81,1.62,9.76,9.76,0,1,0,15.91,7.59,9.61,9.61,0,0,0-3.64-7.55,2.09,2.09,0,0,1-.76-1.62h0a2.05,2.05,0,0,1,3.31-1.61,13.84,13.84,0,0,1-9.69,24.59A14,14,0,0,1,256,20.35ZM269.76,2.1a2.07,2.07,0,0,0-2.06,2.06v9.41a2.06,2.06,0,1,0,4.12,0V4.16A2.07,2.07,0,0,0,269.76,2.1Z" transform="translate(-1.89 -2.1)"/></g></g></svg>