<svg xmlns="http://www.w3.org/2000/svg" viewBox="0 0 105 105"><defs><style>.cls-1{fill:#fff;}</style></defs><title>Asset 39</title><g id="Layer_2" data-name="Layer 2"><g id="Work_Page" data-name="Work Page"><path class="cls-1" d="M93.45,76.7a15.36,15.36,0,0,0-.75-24h0a40.32,40.32,0,0,0-40.2-40.2,41.85,41.85,0,0,0-15.59,2.92v0A15.38,15.38,0,1,0,11.55,27.07,21.54,21.54,0,0,0,0,46.14v6.15a3.08,3.08,0,0,0,3.08,3.08h9.34A40.33,40.33,0,0,0,52.5,92.49a45.13,45.13,0,0,0,9.88-1.07,21.47,21.47,0,0,0-.45,4.35v6.15A3.08,3.08,0,0,0,65,105h36.91a3.08,3.08,0,0,0,3.08-3.08V95.77A21.54,21.54,0,0,0,93.45,76.7ZM92.7,65a9.23,9.23,0,1,1-9.23-9.23A9.24,9.24,0,0,1,92.7,65ZM21.53,6.15a9.23,9.23,0,1,1-9.23,9.23A9.24,9.24,0,0,1,21.53,6.15ZM6.15,49.22V46.14a15.38,15.38,0,1,1,30.76,0v3.08ZM52.5,86.34a34.09,34.09,0,0,1-33.9-31H40a3.08,3.08,0,0,0,3.08-3.08V46.14A21.54,21.54,0,0,0,31.52,27.07a15.66,15.66,0,0,0,3.11-3.63,34.44,34.44,0,0,1,51.8,26.48,15.24,15.24,0,0,0-3-.29,15.38,15.38,0,0,0-10,27.07,21.74,21.74,0,0,0-8.09,7.38A35.33,35.33,0,0,1,52.5,86.34ZM98.85,98.85H68.09V95.77a15.38,15.38,0,0,1,30.76,0Z"/></g></g></svg>