<svg xmlns="http://www.w3.org/2000/svg" viewBox="0 0 98.72 95.48"><defs><style>.cls-1{fill:#fff;}</style></defs><title>Asset 40</title><g id="Layer_2" data-name="Layer 2"><g id="Work_Page" data-name="Work Page"><polygon class="cls-1" points="3.81 72.86 3.81 30.91 45.85 30.91 43.37 27.1 0 27.1 0 76.67 31.45 76.67 37.06 72.86 3.81 72.86"/><polygon class="cls-1" points="72.65 72.86 70.79 72.86 74.21 76.67 76.46 76.67 76.46 49.05 72.65 47.7 72.65 72.86"/><rect class="cls-1" x="28.23" y="39.34" width="22.76" height="2.9"/><rect class="cls-1" x="19.76" y="46.78" width="39.71" height="3.2"/><rect class="cls-1" x="19.76" y="53.48" width="39.71" height="3.2"/><rect class="cls-1" x="19.76" y="59.82" width="39.71" height="3.2"/><path class="cls-1" d="M64.27,73.76a8.6,8.6,0,1,0-8.6,8.59A8.6,8.6,0,0,0,64.27,73.76Z"/><polygon class="cls-1" points="55.68 86.68 62.64 95.48 65.96 86.76 75.2 85.55 68.25 76.75 55.68 86.68"/><polygon class="cls-1" points="33.58 80.71 42.3 84.03 43.51 93.28 52.31 86.32 42.38 73.75 33.58 80.71"/><polygon class="cls-1" points="45.43 0 42.81 3.68 50.89 9.44 42.34 21.45 57 40.13 78.36 47.12 86.92 35.11 90.85 37.91 84.78 46.43 82.82 45.02 77.68 52.23 83.8 56.59 88.92 49.38 87.62 48.44 93.69 39.93 96.08 41.64 98.72 37.96 45.43 0"/></g></g></svg>