<svg xmlns="http://www.w3.org/2000/svg" viewBox="0 0 88.81 99.76"><defs><style>.cls-1{fill:#fff;}</style></defs><title>Asset 38</title><g id="Layer_2" data-name="Layer 2"><g id="Work_Page" data-name="Work Page"><path class="cls-1" d="M46.31,86.88A1.83,1.83,0,0,1,48.14,85h6.29a23,23,0,0,0,8.8,3.58,1.69,1.69,0,0,1-.39.08H48.14A1.82,1.82,0,0,1,46.31,86.88ZM41.84,72.23H45.1a22.85,22.85,0,0,1-.75-3.66H41.84a1.83,1.83,0,1,0,0,3.66ZM28.37,26a9.11,9.11,0,0,1-3.79-7.18,6.87,6.87,0,1,1,13.73,0A9.12,9.12,0,0,1,34.51,26c5.38,1.37,9.37,6,9.37,9.5,0,4.1-24.87,4.1-24.87,0C19,32,23,27.37,28.37,26ZM28,35.09l3.49,3.48,3.49-3.48L32,28h0l1.14-1.3a5.24,5.24,0,0,1-1.72.31,5,5,0,0,1-1.72-.32L30.85,28h0Zm46,60.68h0l-.09-.15H10a6,6,0,0,1-6-6V10a6,6,0,0,1,6-6H73.71a6,6,0,0,1,6,6V46.43a23.12,23.12,0,0,1,4,3.13V10a10,10,0,0,0-10-10H10A10,10,0,0,0,0,10V89.65A10,10,0,0,0,10,99.6H73.71A10,10,0,0,0,76,99.32ZM20.83,63.89H44.31a23.33,23.33,0,0,1,.62-3.66H20.84a1.83,1.83,0,0,0,0,3.66Zm0-16.68h32.9a23.65,23.65,0,0,1,2-1.33,23.25,23.25,0,0,1,5.71-2.33H20.83a1.83,1.83,0,0,0,0,3.66Zm0,8.34H46.66a23.24,23.24,0,0,1,2.26-3.66H20.83a1.83,1.83,0,0,0,0,3.66Zm62.53,1.11a18.51,18.51,0,1,1-25.3-6.77A18.54,18.54,0,0,1,83.36,56.66ZM80.71,58.2a15.45,15.45,0,1,0-5.66,21.1A15.48,15.48,0,0,0,80.71,58.2Zm.53,22.61-8,4.6L79.41,96l8-4.59Zm7,12.06-8,4.59a4.59,4.59,0,1,0,8-4.59Z"/></g></g></svg>